<svg xmlns="http://www.w3.org/2000/svg" width="240" height="65" viewBox="0 0 240 65" fill="none"><rect y="0.349121" width="240" height="64" rx="12" fill="#FB6514"></rect><mask id="path-2-outside-1_2142_93916" maskUnits="userSpaceOnUse" x="40.4932" y="14.3755" width="35" height="36" fill="black"><rect fill="white" x="40.4932" y="14.3755" width="35" height="36"></rect><path fill-rule="evenodd" clip-rule="evenodd" d="M42.7295 24.7615C42.5327 23.2912 42.307 21.6042 42.5467 19.9497L42.5168 19.9308C42.2941 19.7912 42.1139 19.7182 41.9586 19.7027L42.0783 18.5054C42.3206 18.5296 42.5442 18.5998 42.7457 18.6897C42.7551 18.6377 42.765 18.5854 42.7754 18.5331C42.8561 18.1301 42.9909 17.6114 43.2814 17.2483C43.3013 17.2234 43.3391 17.1557 43.3702 17.0131C43.4002 16.8753 43.4159 16.7053 43.4204 16.5107C43.4249 16.3178 43.4182 16.1184 43.4095 15.9225L43.4045 15.8139C43.3974 15.6609 43.3901 15.5043 43.3901 15.3755H44.5934C44.5934 15.4605 44.5975 15.5614 44.6031 15.6843C48.1777 15.9632 51.6327 17.4779 54.6844 18.99C55.458 19.3733 56.2504 19.7154 57.0597 20.0648L57.4155 20.2186C58.3419 20.6197 59.2847 21.0374 60.1984 21.5309C62.002 22.505 63.8129 23.4513 65.655 24.3311C67.831 25.3704 69.8225 26.7771 71.7231 28.1432C72.4704 28.6803 73.2612 29.2792 73.7499 30.2565C73.7943 30.3454 73.8413 30.4349 73.8894 30.5264C74.062 30.855 74.2485 31.2099 74.3785 31.6558C74.4204 31.7995 74.4712 32.0932 74.4939 32.3643C74.5056 32.5033 74.5123 32.6622 74.5012 32.81C74.4956 32.8836 74.4846 32.9708 74.4606 33.0589C74.439 33.1382 74.3929 33.2723 74.2842 33.3931C73.9729 33.7391 73.5867 34.0324 73.2277 34.2865C73.0995 34.3773 72.9772 34.4616 72.86 34.5424C72.629 34.7016 72.4172 34.8475 72.2177 35.0036C71.6621 35.4384 71.0803 35.8087 70.5109 36.1568C70.3668 36.2449 70.2243 36.331 70.0831 36.4164C69.6582 36.6734 69.2454 36.9231 68.8378 37.1948C68.5836 37.3643 68.3288 37.5354 68.0732 37.7071C67.1371 38.3358 66.1894 38.9722 65.2155 39.565C64.6446 39.9125 64.0062 39.9624 63.5197 40.0004L63.4986 40.002C62.9609 40.0441 62.5813 40.0779 62.2539 40.2542C61.9605 40.4122 61.6587 40.5377 61.3882 40.6502L61.369 40.6581C61.0843 40.7765 60.833 40.882 60.5969 41.0104C60.2762 41.1849 59.9428 41.3771 59.6021 41.5735C59.0293 41.9037 58.4355 42.246 57.8457 42.5367C57.003 42.9522 56.2069 43.3861 55.3977 43.8272C54.8415 44.1304 54.2791 44.437 53.6911 44.7432C52.6041 45.3094 51.4524 45.7118 50.3499 46.0971L50.2091 46.1463C49.049 46.5521 47.9452 46.9468 46.928 47.5081C46.6 47.689 46.2621 47.8121 45.9479 47.9131C45.8049 47.959 45.6779 47.9974 45.5565 48.034C45.3873 48.0851 45.2289 48.1329 45.0541 48.1933C44.8807 48.2532 44.7165 48.3453 44.5153 48.4701C44.4828 48.4903 44.4486 48.5118 44.4129 48.5343C44.2431 48.6411 44.0392 48.7695 43.8222 48.8751C43.5985 48.9839 43.3664 49.0365 43.2031 49.0732L43.192 49.0757C43.012 49.1161 42.9078 49.1395 42.8185 49.1771C42.6452 49.2501 42.4343 49.3241 42.2267 49.3229C42.1128 49.3222 41.95 49.2988 41.7959 49.191C41.6307 49.0754 41.5475 48.9135 41.5139 48.7712C41.4599 48.5418 41.5248 48.3206 41.5554 48.2214C41.5954 48.0918 41.6531 47.9506 41.705 47.8261L42.3185 48.0817L42.3516 48.0681C42.5448 47.9868 42.751 47.941 42.898 47.9084L42.9393 47.8992C43.1108 47.8607 43.214 47.8328 43.2958 47.793C43.3348 47.7741 43.3728 47.7543 43.4105 47.7337H42.9572C42.9572 45.4459 42.9843 43.1598 43.0113 40.8773L43.0113 40.8741C43.0384 38.5894 43.0654 36.3083 43.0654 34.0257C43.0654 32.9765 43.0122 31.9266 42.958 30.8601L42.9574 30.8491C42.9036 29.7913 42.849 28.7169 42.849 27.6406C42.849 27.5141 42.8493 27.3895 42.8497 27.2664C42.8519 26.4462 42.854 25.6954 42.752 24.9304L42.7295 24.7615ZM44.221 17.9999C44.4017 17.7741 44.4942 17.5064 44.5459 17.269C44.5729 17.1449 44.5912 17.0175 44.6033 16.8914C47.8872 17.1685 51.1294 18.5714 54.1501 20.0682C54.9543 20.4666 55.7781 20.8222 56.5849 21.1705L56.9374 21.3228C57.8623 21.7233 58.7629 22.1231 59.6266 22.5896C61.439 23.5685 63.2692 24.5251 65.1364 25.4169C67.2028 26.4038 69.1135 27.7494 71.0208 29.1203C71.7698 29.6586 72.3307 30.1089 72.6736 30.7947C72.74 30.9275 72.8004 31.0428 72.8555 31.1481C73.0143 31.4514 73.1299 31.6724 73.2234 31.9927C73.2233 31.9926 73.2233 31.9926 73.2234 31.9927L73.2267 32.0058C73.2289 32.0151 73.2317 32.0275 73.2349 32.043C73.2414 32.074 73.2488 32.1135 73.2563 32.1591C73.2716 32.2509 73.286 32.3593 73.2949 32.4648C73.3021 32.5512 73.3046 32.6244 73.3032 32.6798C73.097 32.8881 72.8347 33.0904 72.5323 33.3045C72.4327 33.3751 72.3258 33.4488 72.2159 33.5246C71.9676 33.6958 71.7043 33.8775 71.4761 34.056C70.9771 34.4465 70.4437 34.7876 69.8834 35.1301C69.7501 35.2116 69.6144 35.2936 69.4773 35.3765C69.0469 35.6368 68.6021 35.9058 68.1704 36.1936C67.9084 36.3683 67.6485 36.5428 67.3897 36.7166C66.5564 37.2762 65.7344 37.8282 64.8923 38.3512C64.8905 38.2673 64.8725 38.202 64.8658 38.1781C64.8549 38.1389 64.8417 38.1032 64.8304 38.0747C64.8074 38.0171 64.777 37.952 64.742 37.8819L64.6676 37.9192C64.6256 37.8712 64.5391 37.7488 64.5096 37.6946C64.4418 37.5703 64.3667 37.4433 64.2982 37.3275L64.2972 37.3257C64.2714 37.2821 64.2466 37.2401 64.2234 37.2004C64.1334 37.046 64.0572 36.9078 63.9961 36.7703C63.8682 36.4826 63.6782 36.2458 63.5029 36.0563C63.3907 35.9349 63.2571 35.8055 63.1444 35.6964C63.0925 35.6462 63.0449 35.6001 63.0059 35.5611C62.62 35.1753 62.3019 34.7711 61.9596 34.3364C61.784 34.1134 61.6021 33.8822 61.4014 33.6414C61.0488 33.2183 60.6535 32.851 60.2668 32.5132C60.1464 32.408 60.0296 32.3079 59.9151 32.2102C60.5904 31.4903 61.252 30.7496 61.8812 29.9806C61.9631 29.8805 62.0503 29.7836 62.1459 29.6787L62.1819 29.6392C62.265 29.5482 62.3554 29.4492 62.442 29.3477C62.6437 29.1111 62.8531 28.8291 63.0006 28.4686C63.2795 27.7867 63.7137 27.119 64.196 26.5295C64.2683 26.4412 64.3488 26.3642 64.4563 26.2614C64.4977 26.2219 64.543 26.1785 64.5934 26.1293C64.7498 25.9764 64.9562 25.7635 65.0922 25.4917L64.0159 24.9536C63.9771 25.0312 63.8999 25.1245 63.7523 25.2688C63.7266 25.2939 63.6972 25.322 63.6652 25.3525C63.5447 25.4674 63.3884 25.6164 63.2647 25.7676C62.7306 26.4204 62.2234 27.1904 61.8869 28.013C61.808 28.2058 61.6892 28.3761 61.5264 28.5669C61.454 28.6518 61.3785 28.7345 61.2942 28.8269L61.2566 28.8681C61.16 28.9742 61.0539 29.0916 60.95 29.2186C60.3342 29.9712 59.6827 30.7001 59.0112 31.415C58.167 30.6376 57.3031 29.8438 56.3514 29.1318C55.6071 28.5749 54.898 27.9703 54.1722 27.3516L54.0314 27.2315C53.2618 26.5758 52.4716 25.9082 51.6289 25.3014C50.6545 24.5998 49.7161 23.8875 48.7708 23.1699C48.0483 22.6214 47.3217 22.0697 46.5718 21.5175C46.1435 21.2021 45.727 20.8695 45.2997 20.5283L45.2629 20.4989C44.8259 20.15 44.3775 19.7927 43.9119 19.4535C43.8923 19.4392 43.8716 19.4239 43.8501 19.4079L43.8608 19.3349C43.8887 19.1454 43.9184 18.9538 43.9554 18.7691C44.0353 18.3692 44.1299 18.1138 44.221 17.9999ZM58.1845 32.2895C57.339 31.511 56.5231 30.763 55.6306 30.0953C54.8544 29.5145 54.1177 28.8864 53.3985 28.2732L53.2509 28.1474C52.4792 27.4898 51.7235 26.8523 50.9258 26.278C49.9534 25.5778 48.9812 24.8401 48.0162 24.1079C47.2919 23.5583 46.5716 23.0117 45.8583 22.4864C45.4107 22.1568 44.9778 21.8111 44.5556 21.474L44.512 21.4392C44.2286 21.2128 43.9495 20.9904 43.6688 20.7748C43.5822 22.0546 43.7579 23.3714 43.9313 24.6705L43.9448 24.7714C44.0584 25.6235 44.0557 26.4625 44.053 27.2766C44.0526 27.3985 44.0523 27.5198 44.0523 27.6406C44.0523 28.6849 44.1055 29.7324 44.1597 30.799L44.1599 30.8029C44.2138 31.8631 44.2687 32.9422 44.2687 34.0257C44.2687 36.3165 44.2416 38.6046 44.2145 40.888C44.1908 42.8908 44.1671 44.8902 44.1617 46.8894C44.9387 46.7849 45.5707 46.3597 46.28 45.6762C46.5165 45.4483 46.7509 45.2264 46.9822 45.0075C47.7943 44.2391 48.5686 43.5063 49.2655 42.67C49.6425 42.2176 50.0098 41.7619 50.381 41.3015C50.5632 41.0754 50.7465 40.848 50.9322 40.6196C51.6375 39.7514 52.3789 38.9177 53.11 38.0957L53.2029 37.9912C53.9672 37.1317 54.7189 36.2829 55.4265 35.3984C56.3012 34.3051 57.2423 33.2878 58.1845 32.2895ZM48.041 45.6625C48.6324 45.4246 49.2281 45.2147 49.8118 45.0105L49.9244 44.9711C51.049 44.578 52.127 44.2011 53.1353 43.676C53.6768 43.394 54.2255 43.0952 54.7794 42.7935C55.6144 42.3388 56.4613 41.8776 57.3137 41.4574C57.8795 41.1785 58.4001 40.8777 58.9395 40.5661C59.2866 40.3655 59.6419 40.1602 60.0218 39.9535C60.32 39.7912 60.627 39.6635 60.9021 39.5491L60.9069 39.5471C61.1925 39.4284 61.445 39.3231 61.6835 39.1947C62.2466 38.8915 62.8625 38.8441 63.3351 38.8078L63.4047 38.8024C63.5525 38.7909 63.687 38.7792 63.8105 38.7644C63.7983 38.7519 63.7892 38.7418 63.7835 38.7356L63.7822 38.7341C63.6739 38.6152 63.5273 38.4066 63.4532 38.2708C63.396 38.1658 63.3377 38.0673 63.2738 37.9591C63.2453 37.9109 63.2152 37.8601 63.184 37.8067C63.0881 37.6422 62.9851 37.4582 62.8965 37.259C62.8459 37.1451 62.756 37.0208 62.6194 36.8732C62.5276 36.7738 62.441 36.6903 62.3448 36.5975C62.2863 36.541 62.2241 36.481 62.1551 36.412C61.7197 35.9766 61.3247 35.4759 60.9568 35.0095C60.7919 34.8005 60.6322 34.598 60.477 34.4117C60.1852 34.0617 59.8461 33.7434 59.4751 33.4193C59.3519 33.3116 59.2212 33.2001 59.0874 33.0859C58.1399 34.0896 57.2193 35.0836 56.3661 36.1501C55.6362 37.0625 54.8645 37.9335 54.1021 38.7908L54.0151 38.8886C53.2794 39.7159 52.554 40.5316 51.866 41.3783C51.6867 41.599 51.5068 41.8222 51.3261 42.0464C50.9513 42.5113 50.5731 42.9805 50.1899 43.4403C49.5219 44.2419 48.7776 44.9639 48.041 45.6625ZM64.6676 37.9192C64.6541 37.9063 64.6268 37.883 64.5892 37.8597C64.5677 37.8464 64.5237 37.821 64.462 37.8015C64.4377 37.7937 64.4013 37.7839 64.3559 37.7784C64.2951 37.7709 64.2181 37.771 64.1321 37.7937C63.9568 37.84 63.8289 37.9575 63.7587 38.0889C63.7549 38.096 63.7513 38.103 63.7479 38.11C63.6984 38.2124 63.691 38.3029 63.6895 38.345C63.6887 38.3677 63.6894 38.3887 63.6909 38.4075L64.6676 37.9192ZM64.6703 37.9223C64.6749 37.9268 64.6771 37.9293 64.6768 37.9291C64.6767 37.9291 64.6764 37.9287 64.6758 37.9282C64.675 37.9273 64.6736 37.9259 64.6718 37.9239L64.6703 37.9223Z"></path></mask><path fill-rule="evenodd" clip-rule="evenodd" d="M42.7295 24.7615C42.5327 23.2912 42.307 21.6042 42.5467 19.9497L42.5168 19.9308C42.2941 19.7912 42.1139 19.7182 41.9586 19.7027L42.0783 18.5054C42.3206 18.5296 42.5442 18.5998 42.7457 18.6897C42.7551 18.6377 42.765 18.5854 42.7754 18.5331C42.8561 18.1301 42.9909 17.6114 43.2814 17.2483C43.3013 17.2234 43.3391 17.1557 43.3702 17.0131C43.4002 16.8753 43.4159 16.7053 43.4204 16.5107C43.4249 16.3178 43.4182 16.1184 43.4095 15.9225L43.4045 15.8139C43.3974 15.6609 43.3901 15.5043 43.3901 15.3755H44.5934C44.5934 15.4605 44.5975 15.5614 44.6031 15.6843C48.1777 15.9632 51.6327 17.4779 54.6844 18.99C55.458 19.3733 56.2504 19.7154 57.0597 20.0648L57.4155 20.2186C58.3419 20.6197 59.2847 21.0374 60.1984 21.5309C62.002 22.505 63.8129 23.4513 65.655 24.3311C67.831 25.3704 69.8225 26.7771 71.7231 28.1432C72.4704 28.6803 73.2612 29.2792 73.7499 30.2565C73.7943 30.3454 73.8413 30.4349 73.8894 30.5264C74.062 30.855 74.2485 31.2099 74.3785 31.6558C74.4204 31.7995 74.4712 32.0932 74.4939 32.3643C74.5056 32.5033 74.5123 32.6622 74.5012 32.81C74.4956 32.8836 74.4846 32.9708 74.4606 33.0589C74.439 33.1382 74.3929 33.2723 74.2842 33.3931C73.9729 33.7391 73.5867 34.0324 73.2277 34.2865C73.0995 34.3773 72.9772 34.4616 72.86 34.5424C72.629 34.7016 72.4172 34.8475 72.2177 35.0036C71.6621 35.4384 71.0803 35.8087 70.5109 36.1568C70.3668 36.2449 70.2243 36.331 70.0831 36.4164C69.6582 36.6734 69.2454 36.9231 68.8378 37.1948C68.5836 37.3643 68.3288 37.5354 68.0732 37.7071C67.1371 38.3358 66.1894 38.9722 65.2155 39.565C64.6446 39.9125 64.0062 39.9624 63.5197 40.0004L63.4986 40.002C62.9609 40.0441 62.5813 40.0779 62.2539 40.2542C61.9605 40.4122 61.6587 40.5377 61.3882 40.6502L61.369 40.6581C61.0843 40.7765 60.833 40.882 60.5969 41.0104C60.2762 41.1849 59.9428 41.3771 59.6021 41.5735C59.0293 41.9037 58.4355 42.246 57.8457 42.5367C57.003 42.9522 56.2069 43.3861 55.3977 43.8272C54.8415 44.1304 54.2791 44.437 53.6911 44.7432C52.6041 45.3094 51.4524 45.7118 50.3499 46.0971L50.2091 46.1463C49.049 46.5521 47.9452 46.9468 46.928 47.5081C46.6 47.689 46.2621 47.8121 45.9479 47.9131C45.8049 47.959 45.6779 47.9974 45.5565 48.034C45.3873 48.0851 45.2289 48.1329 45.0541 48.1933C44.8807 48.2532 44.7165 48.3453 44.5153 48.4701C44.4828 48.4903 44.4486 48.5118 44.4129 48.5343C44.2431 48.6411 44.0392 48.7695 43.8222 48.8751C43.5985 48.9839 43.3664 49.0365 43.2031 49.0732L43.192 49.0757C43.012 49.1161 42.9078 49.1395 42.8185 49.1771C42.6452 49.2501 42.4343 49.3241 42.2267 49.3229C42.1128 49.3222 41.95 49.2988 41.7959 49.191C41.6307 49.0754 41.5475 48.9135 41.5139 48.7712C41.4599 48.5418 41.5248 48.3206 41.5554 48.2214C41.5954 48.0918 41.6531 47.9506 41.705 47.8261L42.3185 48.0817L42.3516 48.0681C42.5448 47.9868 42.751 47.941 42.898 47.9084L42.9393 47.8992C43.1108 47.8607 43.214 47.8328 43.2958 47.793C43.3348 47.7741 43.3728 47.7543 43.4105 47.7337H42.9572C42.9572 45.4459 42.9843 43.1598 43.0113 40.8773L43.0113 40.8741C43.0384 38.5894 43.0654 36.3083 43.0654 34.0257C43.0654 32.9765 43.0122 31.9266 42.958 30.8601L42.9574 30.8491C42.9036 29.7913 42.849 28.7169 42.849 27.6406C42.849 27.5141 42.8493 27.3895 42.8497 27.2664C42.8519 26.4462 42.854 25.6954 42.752 24.9304L42.7295 24.7615ZM44.221 17.9999C44.4017 17.7741 44.4942 17.5064 44.5459 17.269C44.5729 17.1449 44.5912 17.0175 44.6033 16.8914C47.8872 17.1685 51.1294 18.5714 54.1501 20.0682C54.9543 20.4666 55.7781 20.8222 56.5849 21.1705L56.9374 21.3228C57.8623 21.7233 58.7629 22.1231 59.6266 22.5896C61.439 23.5685 63.2692 24.5251 65.1364 25.4169C67.2028 26.4038 69.1135 27.7494 71.0208 29.1203C71.7698 29.6586 72.3307 30.1089 72.6736 30.7947C72.74 30.9275 72.8004 31.0428 72.8555 31.1481C73.0143 31.4514 73.1299 31.6724 73.2234 31.9927C73.2233 31.9926 73.2233 31.9926 73.2234 31.9927L73.2267 32.0058C73.2289 32.0151 73.2317 32.0275 73.2349 32.043C73.2414 32.074 73.2488 32.1135 73.2563 32.1591C73.2716 32.2509 73.286 32.3593 73.2949 32.4648C73.3021 32.5512 73.3046 32.6244 73.3032 32.6798C73.097 32.8881 72.8347 33.0904 72.5323 33.3045C72.4327 33.3751 72.3258 33.4488 72.2159 33.5246C71.9676 33.6958 71.7043 33.8775 71.4761 34.056C70.9771 34.4465 70.4437 34.7876 69.8834 35.1301C69.7501 35.2116 69.6144 35.2936 69.4773 35.3765C69.0469 35.6368 68.6021 35.9058 68.1704 36.1936C67.9084 36.3683 67.6485 36.5428 67.3897 36.7166C66.5564 37.2762 65.7344 37.8282 64.8923 38.3512C64.8905 38.2673 64.8725 38.202 64.8658 38.1781C64.8549 38.1389 64.8417 38.1032 64.8304 38.0747C64.8074 38.0171 64.777 37.952 64.742 37.8819L64.6676 37.9192C64.6256 37.8712 64.5391 37.7488 64.5096 37.6946C64.4418 37.5703 64.3667 37.4433 64.2982 37.3275L64.2972 37.3257C64.2714 37.2821 64.2466 37.2401 64.2234 37.2004C64.1334 37.046 64.0572 36.9078 63.9961 36.7703C63.8682 36.4826 63.6782 36.2458 63.5029 36.0563C63.3907 35.9349 63.2571 35.8055 63.1444 35.6964C63.0925 35.6462 63.0449 35.6001 63.0059 35.5611C62.62 35.1753 62.3019 34.7711 61.9596 34.3364C61.784 34.1134 61.6021 33.8822 61.4014 33.6414C61.0488 33.2183 60.6535 32.851 60.2668 32.5132C60.1464 32.408 60.0296 32.3079 59.9151 32.2102C60.5904 31.4903 61.252 30.7496 61.8812 29.9806C61.9631 29.8805 62.0503 29.7836 62.1459 29.6787L62.1819 29.6392C62.265 29.5482 62.3554 29.4492 62.442 29.3477C62.6437 29.1111 62.8531 28.8291 63.0006 28.4686C63.2795 27.7867 63.7137 27.119 64.196 26.5295C64.2683 26.4412 64.3488 26.3642 64.4563 26.2614C64.4977 26.2219 64.543 26.1785 64.5934 26.1293C64.7498 25.9764 64.9562 25.7635 65.0922 25.4917L64.0159 24.9536C63.9771 25.0312 63.8999 25.1245 63.7523 25.2688C63.7266 25.2939 63.6972 25.322 63.6652 25.3525C63.5447 25.4674 63.3884 25.6164 63.2647 25.7676C62.7306 26.4204 62.2234 27.1904 61.8869 28.013C61.808 28.2058 61.6892 28.3761 61.5264 28.5669C61.454 28.6518 61.3785 28.7345 61.2942 28.8269L61.2566 28.8681C61.16 28.9742 61.0539 29.0916 60.95 29.2186C60.3342 29.9712 59.6827 30.7001 59.0112 31.415C58.167 30.6376 57.3031 29.8438 56.3514 29.1318C55.6071 28.5749 54.898 27.9703 54.1722 27.3516L54.0314 27.2315C53.2618 26.5758 52.4716 25.9082 51.6289 25.3014C50.6545 24.5998 49.7161 23.8875 48.7708 23.1699C48.0483 22.6214 47.3217 22.0697 46.5718 21.5175C46.1435 21.2021 45.727 20.8695 45.2997 20.5283L45.2629 20.4989C44.8259 20.15 44.3775 19.7927 43.9119 19.4535C43.8923 19.4392 43.8716 19.4239 43.8501 19.4079L43.8608 19.3349C43.8887 19.1454 43.9184 18.9538 43.9554 18.7691C44.0353 18.3692 44.1299 18.1138 44.221 17.9999ZM58.1845 32.2895C57.339 31.511 56.5231 30.763 55.6306 30.0953C54.8544 29.5145 54.1177 28.8864 53.3985 28.2732L53.2509 28.1474C52.4792 27.4898 51.7235 26.8523 50.9258 26.278C49.9534 25.5778 48.9812 24.8401 48.0162 24.1079C47.2919 23.5583 46.5716 23.0117 45.8583 22.4864C45.4107 22.1568 44.9778 21.8111 44.5556 21.474L44.512 21.4392C44.2286 21.2128 43.9495 20.9904 43.6688 20.7748C43.5822 22.0546 43.7579 23.3714 43.9313 24.6705L43.9448 24.7714C44.0584 25.6235 44.0557 26.4625 44.053 27.2766C44.0526 27.3985 44.0523 27.5198 44.0523 27.6406C44.0523 28.6849 44.1055 29.7324 44.1597 30.799L44.1599 30.8029C44.2138 31.8631 44.2687 32.9422 44.2687 34.0257C44.2687 36.3165 44.2416 38.6046 44.2145 40.888C44.1908 42.8908 44.1671 44.8902 44.1617 46.8894C44.9387 46.7849 45.5707 46.3597 46.28 45.6762C46.5165 45.4483 46.7509 45.2264 46.9822 45.0075C47.7943 44.2391 48.5686 43.5063 49.2655 42.67C49.6425 42.2176 50.0098 41.7619 50.381 41.3015C50.5632 41.0754 50.7465 40.848 50.9322 40.6196C51.6375 39.7514 52.3789 38.9177 53.11 38.0957L53.2029 37.9912C53.9672 37.1317 54.7189 36.2829 55.4265 35.3984C56.3012 34.3051 57.2423 33.2878 58.1845 32.2895ZM48.041 45.6625C48.6324 45.4246 49.2281 45.2147 49.8118 45.0105L49.9244 44.9711C51.049 44.578 52.127 44.2011 53.1353 43.676C53.6768 43.394 54.2255 43.0952 54.7794 42.7935C55.6144 42.3388 56.4613 41.8776 57.3137 41.4574C57.8795 41.1785 58.4001 40.8777 58.9395 40.5661C59.2866 40.3655 59.6419 40.1602 60.0218 39.9535C60.32 39.7912 60.627 39.6635 60.9021 39.5491L60.9069 39.5471C61.1925 39.4284 61.445 39.3231 61.6835 39.1947C62.2466 38.8915 62.8625 38.8441 63.3351 38.8078L63.4047 38.8024C63.5525 38.7909 63.687 38.7792 63.8105 38.7644C63.7983 38.7519 63.7892 38.7418 63.7835 38.7356L63.7822 38.7341C63.6739 38.6152 63.5273 38.4066 63.4532 38.2708C63.396 38.1658 63.3377 38.0673 63.2738 37.9591C63.2453 37.9109 63.2152 37.8601 63.184 37.8067C63.0881 37.6422 62.9851 37.4582 62.8965 37.259C62.8459 37.1451 62.756 37.0208 62.6194 36.8732C62.5276 36.7738 62.441 36.6903 62.3448 36.5975C62.2863 36.541 62.2241 36.481 62.1551 36.412C61.7197 35.9766 61.3247 35.4759 60.9568 35.0095C60.7919 34.8005 60.6322 34.598 60.477 34.4117C60.1852 34.0617 59.8461 33.7434 59.4751 33.4193C59.3519 33.3116 59.2212 33.2001 59.0874 33.0859C58.1399 34.0896 57.2193 35.0836 56.3661 36.1501C55.6362 37.0625 54.8645 37.9335 54.1021 38.7908L54.0151 38.8886C53.2794 39.7159 52.554 40.5316 51.866 41.3783C51.6867 41.599 51.5068 41.8222 51.3261 42.0464C50.9513 42.5113 50.5731 42.9805 50.1899 43.4403C49.5219 44.2419 48.7776 44.9639 48.041 45.6625ZM64.6676 37.9192C64.6541 37.9063 64.6268 37.883 64.5892 37.8597C64.5677 37.8464 64.5237 37.821 64.462 37.8015C64.4377 37.7937 64.4013 37.7839 64.3559 37.7784C64.2951 37.7709 64.2181 37.771 64.1321 37.7937C63.9568 37.84 63.8289 37.9575 63.7587 38.0889C63.7549 38.096 63.7513 38.103 63.7479 38.11C63.6984 38.2124 63.691 38.3029 63.6895 38.345C63.6887 38.3677 63.6894 38.3887 63.6909 38.4075L64.6676 37.9192ZM64.6703 37.9223C64.6749 37.9268 64.6771 37.9293 64.6768 37.9291C64.6767 37.9291 64.6764 37.9287 64.6758 37.9282C64.675 37.9273 64.6736 37.9259 64.6718 37.9239L64.6703 37.9223Z" fill="white"></path><path d="M44.5459 17.269L43.958 17.1411L43.958 17.1411L44.5459 17.269ZM44.221 17.9999L43.7512 17.6241L43.7512 17.6241L44.221 17.9999ZM44.6033 16.8914L44.6539 16.2919L44.0612 16.2419L44.0044 16.8339L44.6033 16.8914ZM54.1501 20.0682L53.883 20.6073L54.1501 20.0682ZM56.5849 21.1705L56.8235 20.6182L56.8233 20.6181L56.5849 21.1705ZM56.9374 21.3228L57.1765 20.7707L57.1761 20.7705L56.9374 21.3228ZM59.6266 22.5896L59.9125 22.0603L59.6266 22.5896ZM65.1364 25.4169L64.8771 25.9598L64.8771 25.9598L65.1364 25.4169ZM71.0208 29.1203L70.6697 29.6088L71.0208 29.1203ZM72.6736 30.7947L72.1355 31.0637V31.0637L72.6736 30.7947ZM72.8555 31.1481L73.3886 30.8691L73.3886 30.8691L72.8555 31.1481ZM73.2234 31.9927L73.8069 31.8457L73.8033 31.8327L73.2234 31.9927ZM73.2267 32.0058L73.8118 31.8657L73.8101 31.8588L73.2267 32.0058ZM73.2349 32.043L72.6459 32.1657L72.6459 32.1658L73.2349 32.043ZM73.2563 32.1591L73.8499 32.0607L73.8499 32.0607L73.2563 32.1591ZM73.2949 32.4648L73.8944 32.4146L73.8944 32.4146L73.2949 32.4648ZM73.3032 32.6798L73.7308 33.103L73.8985 32.9336L73.9046 32.6953L73.3032 32.6798ZM72.5323 33.3045L72.1846 32.8135L72.1846 32.8135L72.5323 33.3045ZM72.2159 33.5246L71.8743 33.0293L71.8743 33.0293L72.2159 33.5246ZM71.4761 34.056L71.1053 33.5822L71.1053 33.5822L71.4761 34.056ZM69.8834 35.1301L70.1972 35.6434L69.8834 35.1301ZM69.4773 35.3765L69.7886 35.8914L69.7886 35.8914L69.4773 35.3765ZM68.1704 36.1936L68.5041 36.6942L68.5041 36.6942L68.1704 36.1936ZM67.3897 36.7166L67.7251 37.2161H67.7251L67.3897 36.7166ZM64.8923 38.3512L64.2908 38.3644L64.3139 39.4186L65.2097 38.8623L64.8923 38.3512ZM64.8658 38.1781L65.4452 38.016L65.4452 38.0159L64.8658 38.1781ZM64.8304 38.0747L65.3893 37.8522L65.3893 37.8522L64.8304 38.0747ZM64.742 37.8819L65.2801 37.6129L65.011 37.0748L64.4729 37.3438L64.742 37.8819ZM64.5096 37.6946L63.9814 37.9827L63.9814 37.9827L64.5096 37.6946ZM64.2982 37.3275L64.8161 37.0213L64.8159 37.0209L64.2982 37.3275ZM64.2972 37.3257L63.7793 37.6319L63.7795 37.6323L64.2972 37.3257ZM64.2234 37.2004L64.7432 36.8973L64.7432 36.8973L64.2234 37.2004ZM63.9961 36.7703L63.4463 37.0147L63.4463 37.0147L63.9961 36.7703ZM63.5029 36.0563L63.0612 36.4647L63.0612 36.4647L63.5029 36.0563ZM63.1444 35.6964L63.5629 35.2642L63.5628 35.2641L63.1444 35.6964ZM63.0059 35.5611L63.4314 35.1357L63.4314 35.1357L63.0059 35.5611ZM61.9596 34.3364L62.4323 33.9642L61.9596 34.3364ZM61.4014 33.6414L60.9392 34.0266H60.9392L61.4014 33.6414ZM60.2668 32.5132L59.871 32.9663L59.871 32.9663L60.2668 32.5132ZM59.9151 32.2102L59.4763 31.7986L59.0449 32.2585L59.5245 32.6678L59.9151 32.2102ZM61.8812 29.9806L62.3469 30.3616L62.3469 30.3616L61.8812 29.9806ZM62.1459 29.6787L61.7015 29.2732L61.7012 29.2734L62.1459 29.6787ZM62.1819 29.6392L61.7376 29.2336L61.7375 29.2337L62.1819 29.6392ZM62.442 29.3477L62.8998 29.7381L62.8998 29.7381L62.442 29.3477ZM63.0006 28.4686L62.4437 28.2408L62.4437 28.2408L63.0006 28.4686ZM64.196 26.5295L63.7303 26.1485L63.7303 26.1485L64.196 26.5295ZM64.4563 26.2614L64.0406 25.8265L64.0406 25.8265L64.4563 26.2614ZM64.5934 26.1293L65.014 26.5595L65.014 26.5595L64.5934 26.1293ZM65.0922 25.4917L65.6303 25.7608L65.8993 25.2226L65.3612 24.9536L65.0922 25.4917ZM64.0159 24.9536L64.285 24.4155L63.7468 24.1464L63.4778 24.6845L64.0159 24.9536ZM63.7523 25.2688L63.3318 24.8386L63.3318 24.8386L63.7523 25.2688ZM63.6652 25.3525L64.0804 25.7879L64.0804 25.7879L63.6652 25.3525ZM63.2647 25.7676L63.7303 26.1485V26.1485L63.2647 25.7676ZM61.8869 28.013L62.4437 28.2408L61.8869 28.013ZM61.5264 28.5669L61.0686 28.1766L61.0686 28.1766L61.5264 28.5669ZM61.2942 28.8269L60.8498 28.4213L60.8497 28.4214L61.2942 28.8269ZM61.2566 28.8681L60.8121 28.4627L60.8119 28.4628L61.2566 28.8681ZM60.95 29.2186L61.4156 29.5996L61.4156 29.5996L60.95 29.2186ZM59.0112 31.415L58.6036 31.8576L59.0418 32.2611L59.4497 31.8269L59.0112 31.415ZM56.3514 29.1318L55.991 29.6135L55.991 29.6135L56.3514 29.1318ZM54.1722 27.3516L54.5625 26.8937L54.5625 26.8937L54.1722 27.3516ZM54.0314 27.2315L54.4216 26.7737L54.4216 26.7736L54.0314 27.2315ZM51.6289 25.3014L51.2774 25.7897L51.2774 25.7897L51.6289 25.3014ZM48.7708 23.1699L48.407 23.6491H48.407L48.7708 23.1699ZM46.5718 21.5175L46.9285 21.033H46.9285L46.5718 21.5175ZM45.2997 20.5283L45.6751 20.0581L45.6751 20.0581L45.2997 20.5283ZM45.2629 20.4989L45.6383 20.0287L45.6383 20.0287L45.2629 20.4989ZM43.9119 19.4535L43.5576 19.9397L43.5576 19.9397L43.9119 19.4535ZM43.8501 19.4079L43.2548 19.3209L43.2029 19.676L43.4908 19.8904L43.8501 19.4079ZM43.8608 19.3349L43.2656 19.2472L43.2655 19.2479L43.8608 19.3349ZM43.9554 18.7691L44.5453 18.8871V18.8871L43.9554 18.7691ZM58.1845 32.2895L58.622 32.7024L59.0401 32.2594L58.592 31.8469L58.1845 32.2895ZM55.6306 30.0953L55.991 29.6135H55.991L55.6306 30.0953ZM53.3985 28.2732L53.7888 27.8154L53.7888 27.8153L53.3985 28.2732ZM53.2509 28.1474L53.6412 27.6896L53.6411 27.6895L53.2509 28.1474ZM50.9258 26.278L50.5743 26.7662L50.9258 26.278ZM48.0162 24.1079L47.6525 24.5871L48.0162 24.1079ZM45.8583 22.4864L45.5015 22.9708H45.5015L45.8583 22.4864ZM44.5556 21.474L44.9311 21.0038L44.9311 21.0038L44.5556 21.474ZM44.512 21.4392L44.8875 20.969L44.8875 20.969L44.512 21.4392ZM43.6688 20.7748L44.0352 20.2976L43.1443 19.6135L43.0685 20.7342L43.6688 20.7748ZM43.9313 24.6705L44.5277 24.5909L44.5277 24.5909L43.9313 24.6705ZM43.9448 24.7714L44.5411 24.6919L44.5411 24.6918L43.9448 24.7714ZM44.053 27.2766L44.6547 27.2785V27.2785L44.053 27.2766ZM44.1597 30.799L44.7606 30.7685L44.7606 30.7684L44.1597 30.799ZM44.1599 30.8029L43.559 30.8334L43.559 30.8335L44.1599 30.8029ZM44.2145 40.888L43.6129 40.8809L44.2145 40.888ZM44.1617 46.8894L43.56 46.8877L43.5581 47.5776L44.2419 47.4856L44.1617 46.8894ZM46.28 45.6762L45.8625 45.2429H45.8625L46.28 45.6762ZM46.9822 45.0075L47.3958 45.4445H47.3958L46.9822 45.0075ZM49.2655 42.67L48.8033 42.2848H48.8033L49.2655 42.67ZM50.381 41.3015L50.8494 41.6791L50.8494 41.6791L50.381 41.3015ZM50.9322 40.6196L50.4652 40.2402L50.4652 40.2402L50.9322 40.6196ZM53.11 38.0957L53.5596 38.4955L53.5596 38.4955L53.11 38.0957ZM53.2029 37.9912L53.6525 38.391L53.6525 38.391L53.2029 37.9912ZM55.4265 35.3984L54.9567 35.0226L55.4265 35.3984ZM48.041 45.6625L47.627 45.226L48.2656 46.2207L48.041 45.6625ZM49.8118 45.0105L49.6132 44.4426L49.6132 44.4426L49.8118 45.0105ZM49.9244 44.9711L49.7259 44.4032L49.7259 44.4032L49.9244 44.9711ZM53.1353 43.676L52.8574 43.1424L53.1353 43.676ZM54.7794 42.7935L55.0672 43.3219H55.0672L54.7794 42.7935ZM57.3137 41.4574L57.5797 41.9971L57.3137 41.4574ZM58.9395 40.5661L58.6385 40.0451L58.6385 40.0451L58.9395 40.5661ZM60.0218 39.9535L60.3093 40.482L60.0218 39.9535ZM60.9021 39.5491L61.1331 40.1046L61.1333 40.1046L60.9021 39.5491ZM60.9069 39.5471L60.6759 38.9916L60.6757 38.9917L60.9069 39.5471ZM61.6835 39.1947L61.9687 39.7244H61.9687L61.6835 39.1947ZM63.3351 38.8078L63.3812 39.4077L63.3814 39.4077L63.3351 38.8078ZM63.4047 38.8024L63.4511 39.4023L63.4517 39.4022L63.4047 38.8024ZM63.8105 38.7644L63.882 39.3618L65.0948 39.2166L64.2406 38.3436L63.8105 38.7644ZM63.7835 38.7356L64.2286 38.3308L64.2284 38.3306L63.7835 38.7356ZM63.7822 38.7341L64.2271 38.3291L64.227 38.329L63.7822 38.7341ZM63.4532 38.2708L62.925 38.5588L62.925 38.5589L63.4532 38.2708ZM63.2738 37.9591L62.7559 38.2653L62.7559 38.2654L63.2738 37.9591ZM63.184 37.8067L62.6643 38.1098L62.6644 38.1098L63.184 37.8067ZM62.8965 37.259L62.3467 37.5034L62.3467 37.5034L62.8965 37.259ZM62.6194 36.8732L62.1777 37.2817L62.1777 37.2817L62.6194 36.8732ZM62.3448 36.5975L61.9271 37.0304L61.9271 37.0305L62.3448 36.5975ZM62.1551 36.412L61.7297 36.8374L61.7297 36.8374L62.1551 36.412ZM60.9568 35.0095L61.4292 34.6369L60.9568 35.0095ZM60.477 34.4117L60.0148 34.7969L60.477 34.4117ZM59.4751 33.4193L59.0793 33.8724L59.4751 33.4193ZM59.0874 33.0859L59.478 32.6283L59.0427 32.2568L58.6499 32.6729L59.0874 33.0859ZM56.3661 36.1501L55.8963 35.7742L56.3661 36.1501ZM54.1021 38.7908L54.5517 39.1906L54.5517 39.1906L54.1021 38.7908ZM54.0151 38.8886L54.4647 39.2885L54.4647 39.2885L54.0151 38.8886ZM51.866 41.3783L51.3991 40.9989L51.3991 40.9989L51.866 41.3783ZM51.3261 42.0464L50.8577 41.6688L50.8577 41.6688L51.3261 42.0464ZM50.1899 43.4403L50.6521 43.8255V43.8255L50.1899 43.4403ZM42.5467 19.9497L43.1421 20.036L43.198 19.6503L42.8688 19.4416L42.5467 19.9497ZM42.7295 24.7615L43.3258 24.6818L43.3258 24.6817L42.7295 24.7615ZM42.5168 19.9308L42.839 19.4227L42.8364 19.4211L42.5168 19.9308ZM41.9586 19.7027L41.3599 19.6428L41.3 20.2415L41.8987 20.3013L41.9586 19.7027ZM42.0783 18.5054L42.1382 17.9067L41.5395 17.8468L41.4796 18.4455L42.0783 18.5054ZM42.7457 18.6897L42.5006 19.2391L43.2017 19.5519L43.3378 18.7964L42.7457 18.6897ZM42.7754 18.5331L43.3654 18.6511L43.3654 18.6511L42.7754 18.5331ZM43.2814 17.2483L43.7512 17.6241L43.7512 17.6241L43.2814 17.2483ZM43.3702 17.0131L42.7823 16.8851V16.8851L43.3702 17.0131ZM43.4204 16.5107L44.0219 16.5247V16.5247L43.4204 16.5107ZM43.4095 15.9225L44.0106 15.8959L44.0105 15.8949L43.4095 15.9225ZM43.4045 15.8139L44.0055 15.7863L44.0055 15.7859L43.4045 15.8139ZM43.3901 15.3755V14.7738H42.7884V15.3755H43.3901ZM44.5934 15.3755H45.195V14.7738H44.5934V15.3755ZM44.6031 15.6843L44.0021 15.7118L44.0264 16.2427L44.5563 16.2841L44.6031 15.6843ZM54.6844 18.99L54.4173 19.5291L54.6844 18.99ZM57.0597 20.0648L57.2983 19.5125L57.2981 19.5124L57.0597 20.0648ZM57.4155 20.2186L57.6546 19.6665L57.6542 19.6663L57.4155 20.2186ZM60.1984 21.5309L60.4843 21.0015L60.1984 21.5309ZM65.655 24.3311L65.9143 23.7882L65.655 24.3311ZM71.7231 28.1432L72.0742 27.6546L71.7231 28.1432ZM73.7499 30.2565L73.2117 30.5256L73.2117 30.5256L73.7499 30.2565ZM73.8894 30.5264L74.422 30.2466V30.2466L73.8894 30.5264ZM74.3785 31.6558L73.8009 31.8242V31.8243L74.3785 31.6558ZM74.4939 32.3643L75.0935 32.314V32.314L74.4939 32.3643ZM74.5012 32.81L73.9012 32.7649V32.7649L74.5012 32.81ZM74.4606 33.0589L75.0411 33.2169V33.2169L74.4606 33.0589ZM74.2842 33.3931L73.837 32.9906V32.9906L74.2842 33.3931ZM73.2277 34.2865L72.88 33.7955L73.2277 34.2865ZM72.86 34.5424L73.2013 35.0378L72.86 34.5424ZM72.2177 35.0036L71.8469 34.5298L71.8469 34.5298L72.2177 35.0036ZM70.5109 36.1568L70.8247 36.6701L70.8247 36.6701L70.5109 36.1568ZM70.0831 36.4164L70.3945 36.9312L70.3945 36.9312L70.0831 36.4164ZM68.8378 37.1948L69.1716 37.6954L68.8378 37.1948ZM68.0732 37.7071L67.7377 37.2076L67.7377 37.2076L68.0732 37.7071ZM65.2155 39.565L65.5284 40.0789L65.2155 39.565ZM63.5197 40.0004L63.5665 40.6002L63.5665 40.6002L63.5197 40.0004ZM63.4986 40.002L63.4517 39.4022L63.4517 39.4022L63.4986 40.002ZM62.2539 40.2542L61.9687 39.7244L61.9687 39.7244L62.2539 40.2542ZM61.3882 40.6502L61.1571 40.0947L61.1571 40.0947L61.3882 40.6502ZM61.369 40.6581L61.138 40.1026L61.138 40.1026L61.369 40.6581ZM60.5969 41.0104L60.3093 40.482H60.3093L60.5969 41.0104ZM59.6021 41.5735L59.9025 42.0948H59.9025L59.6021 41.5735ZM57.8457 42.5367L57.5797 41.9971L57.8457 42.5367ZM55.3977 43.8272L55.1097 43.299L55.1097 43.299L55.3977 43.8272ZM53.6911 44.7432L53.4132 44.2096L53.4132 44.2096L53.6911 44.7432ZM50.3499 46.0971L50.1515 45.5291L50.1514 45.5291L50.3499 46.0971ZM50.2091 46.1463L50.0105 45.5784L50.0104 45.5784L50.2091 46.1463ZM46.928 47.5081L46.6373 46.9813H46.6373L46.928 47.5081ZM45.9479 47.9131L46.132 48.4859L46.132 48.4859L45.9479 47.9131ZM45.5565 48.034L45.3827 47.458L45.3827 47.458L45.5565 48.034ZM45.0541 48.1933L44.8577 47.6246H44.8577L45.0541 48.1933ZM44.5153 48.4701L44.198 47.9589H44.198L44.5153 48.4701ZM44.4129 48.5343L44.0924 48.0251H44.0924L44.4129 48.5343ZM43.8222 48.8751L43.559 48.334H43.559L43.8222 48.8751ZM43.2031 49.0732L43.3349 49.6602L43.3349 49.6602L43.2031 49.0732ZM43.192 49.0757L43.0602 48.4887L43.0602 48.4887L43.192 49.0757ZM42.8185 49.1771L42.585 48.6226H42.585L42.8185 49.1771ZM42.2267 49.3229L42.2303 48.7212H42.2303L42.2267 49.3229ZM41.7959 49.191L42.1408 48.6981L42.1408 48.6981L41.7959 49.191ZM41.5139 48.7712L40.9283 48.9091L40.9283 48.9091L41.5139 48.7712ZM41.5554 48.2214L40.9805 48.0441L40.9805 48.0441L41.5554 48.2214ZM41.705 47.8261L41.9364 47.2707L41.381 47.0393L41.1496 47.5947L41.705 47.8261ZM42.3185 48.0817L42.0871 48.6371L42.317 48.7328L42.5473 48.6382L42.3185 48.0817ZM42.3516 48.0681L42.5803 48.6246L42.585 48.6226L42.3516 48.0681ZM42.898 47.9084L43.0284 48.4957L43.0289 48.4956L42.898 47.9084ZM42.9393 47.8992L43.0701 48.4864L43.0712 48.4862L42.9393 47.8992ZM43.2958 47.793L43.559 48.3341L43.559 48.334L43.2958 47.793ZM43.4105 47.7337L43.6991 48.2616L43.4105 47.1321V47.7337ZM42.9572 47.7337H42.3556V48.3354H42.9572V47.7337ZM43.0113 40.8773L43.6129 40.8845L43.6129 40.8844L43.0113 40.8773ZM43.0113 40.8741L42.4097 40.8669L42.4097 40.867L43.0113 40.8741ZM42.958 30.8601L42.3571 30.8906L42.3571 30.8907L42.958 30.8601ZM42.9574 30.8491L43.5583 30.8185L43.5583 30.8185L42.9574 30.8491ZM42.8497 27.2664L42.248 27.2647L42.8497 27.2664ZM42.752 24.9304L43.3484 24.8509L43.3484 24.8507L42.752 24.9304ZM64.5892 37.8597L64.2724 38.3712L64.2725 38.3713L64.5892 37.8597ZM64.462 37.8015L64.28 38.3749L64.28 38.3749L64.462 37.8015ZM64.3559 37.7784L64.2825 38.3755L64.2825 38.3755L64.3559 37.7784ZM64.1321 37.7937L63.9785 37.212L63.9785 37.212L64.1321 37.7937ZM63.7587 38.0889L64.2894 38.3724L64.2894 38.3724L63.7587 38.0889ZM63.7479 38.11L64.2895 38.3721L64.2895 38.3721L63.7479 38.11ZM63.6895 38.345L63.0882 38.3244V38.3244L63.6895 38.345ZM63.6909 38.4075L63.091 38.4539L63.16 39.3456L63.9599 38.9456L63.6909 38.4075ZM64.6768 37.9291L64.9948 37.4184L64.9946 37.4183L64.6768 37.9291ZM64.6703 37.9223L65.0921 37.4932L64.2242 38.3259L64.6703 37.9223ZM64.6758 37.9282L64.2481 38.3513L64.2486 38.3519L64.6758 37.9282ZM64.6718 37.9239L64.2256 38.3275L64.2269 38.3289L64.6718 37.9239ZM43.958 17.1411C43.9167 17.331 43.8515 17.4987 43.7512 17.6241L44.6908 18.3758C44.9518 18.0495 45.0718 17.6818 45.1338 17.397L43.958 17.1411ZM44.0044 16.8339C43.994 16.9418 43.979 17.0449 43.958 17.1411L45.1338 17.397C45.1669 17.2449 45.1883 17.0933 45.2022 16.9488L44.0044 16.8339ZM54.4173 19.5291C51.3911 18.0297 48.0605 16.5794 44.6539 16.2919L44.5527 17.4909C47.714 17.7577 50.8677 19.1132 53.883 20.6073L54.4173 19.5291ZM56.8233 20.6181C56.0142 20.2688 55.2049 19.9193 54.4173 19.5291L53.883 20.6073C54.7037 21.0139 55.542 21.3756 56.3465 21.7228L56.8233 20.6181ZM57.1761 20.7705L56.8235 20.6182L56.3463 21.7228L56.6988 21.8751L57.1761 20.7705ZM59.9125 22.0603C59.0238 21.5803 58.102 21.1715 57.1765 20.7707L56.6983 21.8749C57.6225 22.2751 58.502 22.666 59.3407 23.119L59.9125 22.0603ZM65.3957 24.874C63.5411 23.9882 61.7205 23.0368 59.9125 22.0603L59.3407 23.119C61.1574 24.1002 62.9973 25.062 64.8771 25.9598L65.3957 24.874ZM71.372 28.6317C69.4681 27.2633 67.5169 25.8871 65.3957 24.874L64.8771 25.9598C66.8886 26.9205 68.7589 28.2354 70.6697 29.6088L71.372 28.6317ZM73.2117 30.5256C72.7958 29.6937 72.1193 29.1689 71.372 28.6317L70.6697 29.6088C71.4203 30.1483 71.8657 30.5242 72.1355 31.0637L73.2117 30.5256ZM73.3886 30.8691C73.3333 30.7636 73.2753 30.6528 73.2117 30.5256L72.1355 31.0637C72.2047 31.2022 72.2675 31.322 72.3225 31.4272L73.3886 30.8691ZM73.8009 31.8242C73.6887 31.4396 73.5462 31.1703 73.3886 30.8691L72.3225 31.4272C72.4823 31.7324 72.5711 31.9051 72.6458 32.1612L73.8009 31.8242ZM73.8033 31.8327C73.8031 31.8318 73.8027 31.8304 73.8022 31.8286C73.802 31.828 73.8014 31.826 73.8007 31.8234C73.8006 31.823 73.7993 31.8187 73.7977 31.8134C73.7972 31.8118 73.7963 31.809 73.7951 31.8055C73.7944 31.8032 73.7917 31.7949 73.7878 31.7843C73.7862 31.7799 73.7813 31.7669 73.7741 31.7505C73.7708 31.7429 73.7631 31.7259 73.7518 31.705C73.7505 31.7027 73.7125 31.6274 73.6375 31.5562C73.5806 31.5086 73.3879 31.4139 73.2484 31.3915C73.0547 31.4151 72.7751 31.5913 72.6951 31.7045C72.6643 31.7703 72.6326 31.8784 72.6263 31.918C72.6238 31.9424 72.6218 31.9834 72.6217 31.9998C72.6223 32.0506 72.6298 32.0911 72.6299 32.0915C72.633 32.1103 72.6364 32.125 72.6368 32.1265C72.6379 32.1313 72.6388 32.1351 72.6393 32.137C72.6402 32.1409 72.641 32.1439 72.6413 32.1451C72.6421 32.1478 72.6426 32.15 72.6429 32.1508C72.6434 32.1527 72.6438 32.1542 72.644 32.155C72.6445 32.1568 72.645 32.1583 72.6453 32.1595L73.8014 31.826C73.8018 31.8271 73.8022 31.8286 73.8027 31.8303C73.8029 31.831 73.8033 31.8325 73.8038 31.8345C73.804 31.8353 73.8046 31.8374 73.8053 31.8401C73.8056 31.8413 73.8064 31.8444 73.8074 31.8483C73.8079 31.8501 73.8088 31.8539 73.8099 31.8587C73.8102 31.8602 73.8137 31.8749 73.8168 31.8937C73.8169 31.8941 73.8243 31.9347 73.8249 31.9854C73.8249 32.0019 73.8229 32.0428 73.8203 32.0673C73.814 32.1068 73.7824 32.2149 73.7515 32.2807C73.6716 32.3939 73.392 32.5701 73.1983 32.5937C73.0588 32.5713 72.866 32.4767 72.8092 32.429C72.7342 32.3578 72.6961 32.2825 72.6949 32.2802C72.6835 32.2593 72.6759 32.2423 72.6726 32.2347C72.6654 32.2184 72.6605 32.2053 72.6589 32.201C72.655 32.1904 72.6523 32.182 72.6515 32.1798C72.6504 32.1763 72.6495 32.1734 72.649 32.1718C72.6473 32.1665 72.6461 32.1623 72.646 32.1618C72.6452 32.1593 72.6447 32.1573 72.6445 32.1567C72.644 32.1549 72.6436 32.1535 72.6434 32.1527L73.8033 31.8327ZM73.8101 31.8588L73.8068 31.8457L72.64 32.1397L72.6432 32.1528L73.8101 31.8588ZM73.8239 31.9202C73.8197 31.9002 73.8156 31.8819 73.8118 31.8657L72.6415 32.1458C72.6422 32.1484 72.6437 32.1549 72.6459 32.1657L73.8239 31.9202ZM73.8499 32.0607C73.8412 32.0081 73.8323 31.9605 73.8239 31.9202L72.6459 32.1658C72.6505 32.1876 72.6564 32.2188 72.6628 32.2575L73.8499 32.0607ZM73.8944 32.4146C73.884 32.2905 73.8673 32.1658 73.8499 32.0607L72.6628 32.2575C72.6758 32.336 72.688 32.4282 72.6953 32.5151L73.8944 32.4146ZM73.9046 32.6953C73.9068 32.6116 73.9029 32.5154 73.8944 32.4146L72.6953 32.5151C72.7014 32.587 72.7024 32.6372 72.7017 32.6644L73.9046 32.6953ZM72.88 33.7955C73.1893 33.5765 73.4866 33.3498 73.7308 33.103L72.8755 32.2566C72.7075 32.4265 72.4801 32.6043 72.1846 32.8135L72.88 33.7955ZM72.5575 34.0199C72.6667 33.9446 72.7768 33.8686 72.88 33.7955L72.1846 32.8135C72.0886 32.8815 71.9849 32.9531 71.8743 33.0293L72.5575 34.0199ZM71.8469 34.5298C72.0581 34.3645 72.3058 34.1934 72.5575 34.0199L71.8743 33.0293C71.6294 33.1982 71.3504 33.3904 71.1053 33.5822L71.8469 34.5298ZM70.1972 35.6434C70.762 35.2982 71.3196 34.9425 71.8469 34.5298L71.1053 33.5822C70.6347 33.9506 70.1254 34.277 69.5696 34.6167L70.1972 35.6434ZM69.7886 35.8914C69.9255 35.8086 70.0624 35.7258 70.1972 35.6434L69.5696 34.6167C69.4377 34.6974 69.3033 34.7787 69.166 34.8617L69.7886 35.8914ZM68.5041 36.6942C68.9229 36.415 69.3564 36.1527 69.7886 35.8914L69.166 34.8617C68.7374 35.1209 68.2812 35.3967 67.8366 35.693L68.5041 36.6942ZM67.7251 37.2161C67.984 37.0422 68.2431 36.8682 68.5041 36.6942L67.8366 35.693C67.5737 35.8683 67.313 36.0434 67.0543 36.2171L67.7251 37.2161ZM65.2097 38.8623C66.0624 38.3327 66.8933 37.7746 67.7251 37.2161L67.0543 36.2171C66.2195 36.7777 65.4064 37.3237 64.5749 37.8401L65.2097 38.8623ZM64.2865 38.3402C64.2875 38.3441 64.2879 38.3455 64.2882 38.3469C64.2886 38.3484 64.289 38.3502 64.2894 38.3523C64.2903 38.357 64.2907 38.3613 64.2908 38.3644L65.4938 38.338C65.4903 38.1785 65.4564 38.0558 65.4452 38.016L64.2865 38.3402ZM64.2714 38.2973C64.2783 38.3146 64.2833 38.3289 64.2865 38.3403L65.4452 38.0159C65.4265 37.949 65.4051 37.8918 65.3893 37.8522L64.2714 38.2973ZM64.2038 38.151C64.2355 38.2143 64.2575 38.2623 64.2714 38.2973L65.3893 37.8522C65.3574 37.7719 65.3185 37.6897 65.2801 37.6129L64.2038 38.151ZM64.9366 38.4573L65.011 38.4201L64.4729 37.3438L64.3985 37.381L64.9366 38.4573ZM63.9814 37.9827C64.0337 38.0786 64.1462 38.237 64.215 38.3156L65.1201 37.5227C65.1231 37.5261 65.1195 37.5221 65.1086 37.5078C65.099 37.4952 65.0876 37.4795 65.0758 37.4628C65.064 37.446 65.0533 37.4303 65.0451 37.4177C65.0354 37.4028 65.0342 37.3999 65.0377 37.4065L63.9814 37.9827ZM63.7803 37.6337C63.8497 37.751 63.9194 37.8691 63.9814 37.9827L65.0377 37.4065C64.9642 37.2716 64.8837 37.1355 64.8161 37.0213L63.7803 37.6337ZM63.7795 37.6323L63.7806 37.634L64.8159 37.0209L64.8149 37.0192L63.7795 37.6323ZM63.7037 37.5035C63.7279 37.545 63.7537 37.5886 63.7793 37.6319L64.8151 37.0196C64.7891 36.9756 64.7652 36.9352 64.7432 36.8973L63.7037 37.5035ZM63.4463 37.0147C63.5211 37.1831 63.6108 37.3442 63.7037 37.5035L64.7432 36.8973C64.656 36.7479 64.5932 36.6325 64.5459 36.526L63.4463 37.0147ZM63.0612 36.4647C63.2169 36.6332 63.357 36.8138 63.4463 37.0147L64.5459 36.526C64.3794 36.1514 64.1394 35.8584 63.9446 35.6478L63.0612 36.4647ZM62.7258 36.1286C62.8412 36.2403 62.9623 36.3578 63.0612 36.4647L63.9446 35.6478C63.8191 35.512 63.673 35.3708 63.5629 35.2642L62.7258 36.1286ZM62.5805 35.9866C62.6236 36.0297 62.6751 36.0795 62.7259 36.1286L63.5628 35.2641C63.5098 35.2128 63.4661 35.1705 63.4314 35.1357L62.5805 35.9866ZM61.4869 34.7086C61.826 35.1393 62.1654 35.5715 62.5805 35.9866L63.4314 35.1357C63.0747 34.779 62.7778 34.403 62.4323 33.9642L61.4869 34.7086ZM60.9392 34.0266C61.1337 34.26 61.3107 34.4848 61.4869 34.7086L62.4323 33.9642C62.2573 33.7419 62.0704 33.5045 61.8635 33.2562L60.9392 34.0266ZM59.871 32.9663C60.2498 33.2972 60.617 33.6399 60.9392 34.0266L61.8635 33.2562C61.4805 32.7966 61.0573 32.4049 60.6627 32.0601L59.871 32.9663ZM59.5245 32.6678C59.6385 32.7651 59.7533 32.8634 59.871 32.9663L60.6627 32.0601C60.5396 31.9526 60.4206 31.8506 60.3057 31.7526L59.5245 32.6678ZM61.4156 29.5996C60.7972 30.3554 60.1451 31.0856 59.4763 31.7986L60.3539 32.6218C61.0358 31.8949 61.7069 31.1438 62.3469 30.3616L61.4156 29.5996ZM61.7012 29.2734C61.6052 29.3788 61.5085 29.486 61.4156 29.5996L62.3469 30.3616C62.4177 30.275 62.4954 30.1884 62.5905 30.084L61.7012 29.2734ZM61.7375 29.2337L61.7015 29.2732L62.5903 30.0843L62.6263 30.0448L61.7375 29.2337ZM61.9842 28.9573C61.9053 29.0499 61.8217 29.1414 61.7376 29.2336L62.6262 30.0449C62.7083 29.955 62.8055 29.8486 62.8998 29.7381L61.9842 28.9573ZM62.4437 28.2408C62.3305 28.5175 62.1664 28.7437 61.9842 28.9573L62.8998 29.7381C63.1211 29.4785 63.3756 29.1407 63.5574 28.6964L62.4437 28.2408ZM63.7303 26.1485C63.2221 26.7697 62.7515 27.4886 62.4437 28.2408L63.5574 28.6964C63.8076 28.0849 64.2052 27.4683 64.6616 26.9105L63.7303 26.1485ZM64.0406 25.8265C63.9391 25.9235 63.8303 26.0264 63.7303 26.1485L64.6616 26.9105C64.7063 26.8559 64.7584 26.805 64.872 26.6963L64.0406 25.8265ZM64.1729 25.699C64.1252 25.7456 64.0821 25.7868 64.0406 25.8265L64.872 26.6963C64.9132 26.657 64.9609 26.6114 65.014 26.5595L64.1729 25.699ZM64.554 25.2226C64.4665 25.3978 64.3241 25.5512 64.1729 25.699L65.014 26.5595C65.1756 26.4016 65.446 26.1293 65.6303 25.7608L64.554 25.2226ZM63.7468 25.4917L64.8231 26.0298L65.3612 24.9536L64.285 24.4155L63.7468 25.4917ZM64.1729 25.699C64.3233 25.552 64.4662 25.3982 64.554 25.2226L63.4778 24.6845C63.486 24.6681 63.4874 24.6715 63.4629 24.7008C63.4385 24.73 63.3982 24.7736 63.3318 24.8386L64.1729 25.699ZM64.0804 25.7879C64.1116 25.7582 64.144 25.7273 64.1729 25.699L63.3318 24.8386C63.3093 24.8605 63.2828 24.8858 63.2501 24.917L64.0804 25.7879ZM63.7303 26.1485C63.8264 26.0311 63.9549 25.9076 64.0804 25.7879L63.2501 24.917C63.1345 25.0272 62.9504 25.2016 62.7991 25.3866L63.7303 26.1485ZM62.4437 28.2408C62.7515 27.4886 63.2221 26.7697 63.7303 26.1485L62.7991 25.3866C62.239 26.0711 61.6954 26.8922 61.33 27.7852L62.4437 28.2408ZM61.9842 28.9573C62.1663 28.7437 62.3305 28.5176 62.4437 28.2408L61.33 27.7852C61.2855 27.894 61.212 28.0084 61.0686 28.1766L61.9842 28.9573ZM61.7386 29.2325C61.8215 29.1416 61.9041 29.0513 61.9842 28.9573L61.0686 28.1766C61.0039 28.2524 60.9355 28.3275 60.8498 28.4213L61.7386 29.2325ZM61.7011 29.2736L61.7387 29.2323L60.8497 28.4214L60.8121 28.4627L61.7011 29.2736ZM61.4156 29.5996C61.5085 29.486 61.6051 29.3789 61.7012 29.2734L60.8119 28.4628C60.7148 28.5695 60.5993 28.6971 60.4843 28.8376L61.4156 29.5996ZM59.4497 31.8269C60.1277 31.105 60.7889 30.3655 61.4156 29.5996L60.4843 28.8376C59.8796 29.5768 59.2376 30.2952 58.5727 31.0031L59.4497 31.8269ZM55.991 29.6135C56.9144 30.3043 57.7565 31.0774 58.6036 31.8576L59.4187 30.9724C58.5776 30.1978 57.6919 29.3833 56.7119 28.65L55.991 29.6135ZM53.7818 27.8094C54.5051 28.426 55.2287 29.0432 55.991 29.6135L56.7119 28.65C55.9854 28.1066 55.2908 27.5147 54.5625 26.8937L53.7818 27.8094ZM53.6411 27.6894L53.7819 27.8095L54.5625 26.8937L54.4216 26.7737L53.6411 27.6894ZM51.2774 25.7897C52.0976 26.3802 52.8705 27.0329 53.6411 27.6895L54.4216 26.7736C53.6531 26.1188 52.8456 25.4361 51.9805 24.8132L51.2774 25.7897ZM48.407 23.6491C49.3514 24.366 50.2957 25.0829 51.2774 25.7897L51.9805 24.8132C51.0132 24.1168 50.0808 23.409 49.1346 22.6907L48.407 23.6491ZM46.215 22.0019C46.9608 22.5512 47.684 23.1002 48.407 23.6491L49.1346 22.6907C48.4126 22.1426 47.6825 21.5883 46.9285 21.033L46.215 22.0019ZM44.9243 20.9984C45.35 21.3383 45.7757 21.6784 46.215 22.0019L46.9285 21.033C46.5114 20.7258 46.104 20.4006 45.6751 20.0581L44.9243 20.9984ZM44.8874 20.969L44.9243 20.9984L45.6751 20.0581L45.6383 20.0287L44.8874 20.969ZM43.5576 19.9397C44.0109 20.27 44.4494 20.6192 44.8875 20.969L45.6383 20.0287C45.2024 19.6807 44.7441 19.3154 44.2661 18.9672L43.5576 19.9397ZM43.4908 19.8904C43.5134 19.9073 43.5358 19.9238 43.5576 19.9397L44.2661 18.9672C44.2487 18.9545 44.2299 18.9406 44.2094 18.9254L43.4908 19.8904ZM43.2655 19.2479L43.2548 19.3209L44.4454 19.495L44.4561 19.4219L43.2655 19.2479ZM43.3654 18.6511C43.3253 18.8518 43.2937 19.0561 43.2656 19.2472L44.456 19.4226C44.4837 19.2346 44.5116 19.0558 44.5453 18.8871L43.3654 18.6511ZM43.7512 17.6241C43.6433 17.759 43.5699 17.9257 43.5165 18.0777C43.4594 18.2399 43.4091 18.4326 43.3654 18.6511L44.5453 18.8871C44.5816 18.7057 44.6186 18.5707 44.6516 18.4768C44.6882 18.3727 44.7077 18.3547 44.6908 18.3758L43.7512 17.6241ZM58.592 31.8469C57.7495 31.0712 56.9118 30.3024 55.991 29.6135L55.2702 30.577C56.1343 31.2235 56.9286 31.9509 57.777 32.7321L58.592 31.8469ZM55.991 29.6135C55.2326 29.0461 54.5104 28.4306 53.7888 27.8154L53.0081 28.731C53.725 29.3423 54.4761 29.9829 55.2702 30.577L55.991 29.6135ZM53.7888 27.8153L53.6412 27.6896L52.8606 28.6053L53.0082 28.731L53.7888 27.8153ZM53.6411 27.6895C52.8705 27.0329 52.0976 26.3802 51.2774 25.7897L50.5743 26.7662C51.3495 27.3243 52.0878 27.9468 52.8607 28.6054L53.6411 27.6895ZM51.2774 25.7897C50.3121 25.0947 49.346 24.3617 48.3799 23.6286L47.6525 24.5871C48.6165 25.3186 49.5947 26.0609 50.5743 26.7662L51.2774 25.7897ZM48.3799 23.6286C47.6562 23.0795 46.9324 22.5303 46.215 22.0019L45.5015 22.9708C46.2108 23.4932 46.9276 24.0371 47.6525 24.5871L48.3799 23.6286ZM46.215 22.0019C45.7785 21.6804 45.3547 21.3421 44.9311 21.0038L44.1802 21.9441C44.6009 22.2801 45.0429 22.6331 45.5015 22.9708L46.215 22.0019ZM44.9311 21.0038L44.8875 20.969L44.1366 21.9093L44.1802 21.9441L44.9311 21.0038ZM44.8875 20.969C44.6043 20.7429 44.3211 20.5172 44.0352 20.2976L43.3023 21.252C43.578 21.4637 43.8528 21.6827 44.1366 21.9093L44.8875 20.969ZM43.0685 20.7342C42.9771 22.0848 43.1631 23.4627 43.335 24.7501L44.5277 24.5909C44.3527 23.2802 44.1872 22.0244 44.269 20.8154L43.0685 20.7342ZM43.3349 24.7501L43.3484 24.8509L44.5411 24.6918L44.5277 24.5909L43.3349 24.7501ZM43.3484 24.8509C43.4558 25.6561 43.4541 26.4547 43.4514 27.2747L44.6547 27.2785C44.6573 26.4702 44.661 25.591 44.5411 24.6919L43.3484 24.8509ZM43.4514 27.2747C43.451 27.3964 43.4506 27.5187 43.4506 27.6406H44.6539C44.6539 27.521 44.6543 27.4006 44.6547 27.2785L43.4514 27.2747ZM43.4506 27.6406C43.4506 28.7028 43.5047 29.7656 43.5588 30.8295L44.7606 30.7684C44.7062 29.6992 44.6539 28.6671 44.6539 27.6406H43.4506ZM43.5588 30.8295L43.559 30.8334L44.7608 30.7724L44.7606 30.7685L43.5588 30.8295ZM43.559 30.8335C43.6131 31.8961 43.6671 32.96 43.6671 34.0257H44.8703C44.8703 32.9244 44.8146 31.8301 44.7608 30.7723L43.559 30.8335ZM43.6671 34.0257C43.6671 36.3123 43.64 38.5969 43.6129 40.8809L44.8161 40.8951C44.8432 38.6123 44.8703 36.3207 44.8703 34.0257H43.6671ZM43.6129 40.8809C43.5892 42.8832 43.5655 44.8854 43.56 46.8877L44.7633 46.891C44.7688 44.8951 44.7924 42.8983 44.8161 40.8951L43.6129 40.8809ZM44.2419 47.4856C45.2088 47.3556 45.9557 46.8242 46.6975 46.1094L45.8625 45.2429C45.1856 45.8952 44.6686 46.2141 44.0815 46.2931L44.2419 47.4856ZM46.6975 46.1094C46.9317 45.8837 47.1642 45.6637 47.3958 45.4445L46.5687 44.5705C46.3377 44.7892 46.1013 45.0128 45.8625 45.2429L46.6975 46.1094ZM47.3958 45.4445C48.2035 44.6801 49.0042 43.9233 49.7277 43.0551L48.8033 42.2848C48.133 43.0892 47.385 43.798 46.5687 44.5705L47.3958 45.4445ZM49.7277 43.0552C50.1083 42.5984 50.4788 42.1388 50.8494 41.6791L49.9126 40.9239C49.5409 41.3849 49.1766 41.8368 48.8033 42.2848L49.7277 43.0552ZM50.8494 41.6791C51.0317 41.4529 51.2143 41.2264 51.3991 40.9989L50.4652 40.2402C50.2787 40.4697 50.0947 40.698 49.9126 40.9239L50.8494 41.6791ZM51.3991 40.9989C52.0946 40.1429 52.8271 39.3192 53.5596 38.4955L52.6604 37.6959C51.9308 38.5163 51.1805 39.3599 50.4652 40.2402L51.3991 40.9989ZM53.5596 38.4955L53.6525 38.391L52.7534 37.5914L52.6604 37.6959L53.5596 38.4955ZM53.6525 38.391C54.4158 37.5326 55.1775 36.6727 55.8963 35.7742L54.9567 35.0226C54.2603 35.8931 53.5186 36.7308 52.7533 37.5914L53.6525 38.391ZM55.8963 35.7742C56.7545 34.7015 57.6811 33.6994 58.622 32.7024L57.7469 31.8765C56.8035 32.8762 55.8478 33.9086 54.9567 35.0226L55.8963 35.7742ZM48.2656 46.2207C48.8425 45.9886 49.426 45.7828 50.0104 45.5784L49.6132 44.4426C49.0301 44.6465 48.4223 44.8606 47.8165 45.1044L48.2656 46.2207ZM50.0104 45.5784L50.123 45.5391L49.7259 44.4032L49.6132 44.4426L50.0104 45.5784ZM50.123 45.5391C51.24 45.1486 52.3599 44.7582 53.4132 44.2096L52.8574 43.1424C51.8942 43.6441 50.8579 44.0074 49.7259 44.4032L50.123 45.5391ZM53.4132 44.2096C53.9605 43.9246 54.5141 43.6231 55.0672 43.3219L54.4917 42.2651C53.9368 42.5673 53.3931 42.8634 52.8574 43.1424L53.4132 44.2096ZM55.0672 43.3219C55.904 42.8662 56.7402 42.4109 57.5797 41.9971L57.0477 40.9178C56.1825 41.3443 55.3248 41.8115 54.4917 42.2651L55.0672 43.3219ZM57.5797 41.9971C58.1661 41.708 58.7035 41.3973 59.2405 41.087L58.6385 40.0451C58.0967 40.3582 57.5929 40.649 57.0477 40.9178L57.5797 41.9971ZM59.2405 41.087C59.5885 40.8859 59.9372 40.6845 60.3093 40.482L59.7342 39.425C59.3465 39.636 58.9848 39.845 58.6385 40.0451L59.2405 41.087ZM60.3093 40.482C60.5758 40.337 60.8544 40.2206 61.1331 40.1046L60.6711 38.9936C60.3996 39.1065 60.0642 39.2455 59.7342 39.425L60.3093 40.482ZM61.1333 40.1046L61.1381 40.1026L60.6757 38.9917L60.6709 38.9937L61.1333 40.1046ZM61.138 40.1026C61.4182 39.9861 61.6992 39.8695 61.9687 39.7244L61.3982 38.665C61.1909 38.7766 60.9668 38.8706 60.6759 38.9916L61.138 40.1026ZM61.9687 39.7244C62.4044 39.4898 62.8961 39.445 63.3812 39.4077L63.289 38.2079C62.829 38.2433 62.0889 38.2931 61.3982 38.665L61.9687 39.7244ZM63.3814 39.4077L63.4511 39.4023L63.3583 38.2026L63.2887 38.208L63.3814 39.4077ZM63.4517 39.4022C63.6013 39.3905 63.7458 39.3781 63.882 39.3618L63.739 38.167C63.6282 38.1803 63.5037 38.1912 63.3578 38.2026L63.4517 39.4022ZM64.2406 38.3436C64.2364 38.3393 64.2333 38.336 64.2286 38.3308L63.3384 39.1404C63.3451 39.1477 63.3603 39.1645 63.3805 39.1851L64.2406 38.3436ZM64.2284 38.3306L64.2271 38.3291L63.3373 39.1392L63.3386 39.1406L64.2284 38.3306ZM64.227 38.329C64.1528 38.2475 64.0337 38.0786 63.9814 37.9827L62.925 38.5589C63.0209 38.7346 63.195 38.9829 63.3374 39.1393L64.227 38.329ZM63.9814 37.9827C63.9183 37.8671 63.8547 37.7596 63.7917 37.6529L62.7559 38.2654C62.8207 38.3749 62.8736 38.4645 62.925 38.5588L63.9814 37.9827ZM63.7917 37.653C63.763 37.6045 63.7339 37.5552 63.7037 37.5035L62.6644 38.1098C62.6966 38.165 62.7275 38.2173 62.7559 38.2653L63.7917 37.653ZM63.7038 37.5036C63.6108 37.3442 63.5211 37.1831 63.4463 37.0147L62.3467 37.5034C62.449 37.7334 62.5654 37.9401 62.6643 38.1098L63.7038 37.5036ZM63.4463 37.0147C63.357 36.8137 63.2168 36.633 63.0612 36.4647L62.1777 37.2817C62.2952 37.4087 62.3348 37.4766 62.3467 37.5034L63.4463 37.0147ZM63.0612 36.4647C62.956 36.3509 62.8575 36.2561 62.7626 36.1646L61.9271 37.0305C62.0245 37.1245 62.0991 37.1967 62.1777 37.2817L63.0612 36.4647ZM62.7626 36.1646C62.7039 36.1079 62.6452 36.0513 62.5805 35.9866L61.7297 36.8374C61.8029 36.9107 61.8688 36.9742 61.9271 37.0304L62.7626 36.1646ZM62.5805 35.9866C62.1744 35.5804 61.801 35.1082 61.4292 34.6369L60.4845 35.3822C60.8485 35.8436 61.265 36.3727 61.7297 36.8374L62.5805 35.9866ZM61.4292 34.6369C61.2654 34.4293 61.1005 34.2202 60.9392 34.0266L60.0148 34.7969C60.1639 34.9758 60.3185 35.1717 60.4845 35.3822L61.4292 34.6369ZM60.9392 34.0266C60.617 33.6399 60.2498 33.2972 59.871 32.9663L59.0793 33.8724C59.4425 34.1897 59.7535 34.4834 60.0148 34.7969L60.9392 34.0266ZM59.871 32.9663C59.7446 32.8559 59.6112 32.742 59.478 32.6283L58.6969 33.5436C58.8311 33.6581 58.9591 33.7674 59.0793 33.8724L59.871 32.9663ZM58.6499 32.6729C57.7014 33.6776 56.7661 34.6869 55.8963 35.7742L56.8359 36.5259C57.6725 35.4802 58.5783 34.5016 59.5249 33.4989L58.6499 32.6729ZM55.8963 35.7742C55.1775 36.6727 54.4158 37.5326 53.6525 38.391L54.5517 39.1906C55.3131 38.3344 56.0948 37.4523 56.8359 36.5259L55.8963 35.7742ZM53.6526 38.391L53.5655 38.4888L54.4647 39.2885L54.5517 39.1906L53.6526 38.391ZM53.5655 38.4888C52.8314 39.3144 52.097 40.14 51.3991 40.9989L52.333 41.7577C53.0111 40.9231 53.7275 40.1174 54.4647 39.2885L53.5655 38.4888ZM51.3991 40.9989C51.2189 41.2207 51.0383 41.4448 50.8577 41.6688L51.7945 42.424C51.9753 42.1996 52.1545 41.9774 52.333 41.7577L51.3991 40.9989ZM50.8577 41.6688C50.4824 42.1344 50.1072 42.5997 49.7277 43.0552L50.6521 43.8255C51.0389 43.3613 51.4202 42.8883 51.7945 42.424L50.8577 41.6688ZM49.7277 43.0552C49.0843 43.8272 48.3628 44.5281 47.627 45.226L48.4551 46.099C49.1923 45.3998 49.9594 44.6567 50.6521 43.8255L49.7277 43.0552ZM41.9512 19.8635C41.6976 21.6143 41.9381 23.3839 42.1331 24.8413L43.3258 24.6817C43.1273 23.1984 42.9164 21.5942 43.1421 20.036L41.9512 19.8635ZM42.1947 20.4389L42.2245 20.4579L42.8688 19.4416L42.839 19.4227L42.1947 20.4389ZM41.8987 20.3013C41.9205 20.3035 42.0082 20.322 42.1972 20.4405L42.8364 19.4211C42.5801 19.2603 42.3072 19.1329 42.0184 19.104L41.8987 20.3013ZM41.4796 18.4455L41.3599 19.6428L42.5572 19.7625L42.6769 18.5652L41.4796 18.4455ZM42.9909 18.1403C42.7452 18.0307 42.4586 17.9388 42.1382 17.9067L42.0184 19.104C42.1826 19.1204 42.3432 19.1689 42.5006 19.2391L42.9909 18.1403ZM42.1855 18.415C42.1742 18.4716 42.1636 18.5277 42.1536 18.583L43.3378 18.7964C43.3466 18.7477 43.3558 18.6992 43.3654 18.6511L42.1855 18.415ZM42.8116 16.8724C42.4217 17.3598 42.2667 18.0092 42.1855 18.415L43.3654 18.6511C43.4454 18.251 43.56 17.8631 43.7512 17.6241L42.8116 16.8724ZM42.7823 16.8851C42.7732 16.9268 42.7661 16.9438 42.7665 16.9429C42.7667 16.9423 42.7694 16.9358 42.7756 16.9249C42.7787 16.9194 42.783 16.9122 42.7887 16.9038C42.7942 16.8954 42.8018 16.8847 42.8116 16.8724L43.7512 17.6241C43.8516 17.4987 43.9167 17.3309 43.958 17.1411L42.7823 16.8851ZM42.8189 16.4967C42.8149 16.6717 42.8009 16.7995 42.7823 16.8851L43.958 17.1411C43.9994 16.951 44.0169 16.7388 44.0219 16.5247L42.8189 16.4967ZM42.8085 15.9492C42.817 16.1427 42.8229 16.3252 42.8189 16.4967L44.0219 16.5247C44.0269 16.3104 44.0193 16.0941 44.0105 15.8959L42.8085 15.9492ZM42.8035 15.8415L42.8085 15.9501L44.0105 15.8949L44.0055 15.7863L42.8035 15.8415ZM42.7884 15.3755C42.7884 15.5212 42.7966 15.6932 42.8035 15.842L44.0055 15.7859C43.9982 15.6286 43.9917 15.4873 43.9917 15.3755H42.7884ZM44.5934 14.7738H43.3901V15.9771H44.5934V14.7738ZM45.2041 15.6568C45.1984 15.532 45.195 15.4446 45.195 15.3755H43.9917C43.9917 15.4765 43.9966 15.5909 44.0021 15.7118L45.2041 15.6568ZM54.9515 18.4509C51.8945 16.9362 48.3494 15.3731 44.6499 15.0845L44.5563 16.2841C48.006 16.5533 51.3708 18.0196 54.4173 19.5291L54.9515 18.4509ZM57.2981 19.5124C56.4864 19.162 55.7086 18.826 54.9515 18.4509L54.4173 19.5291C55.2074 19.9206 56.0144 20.2689 56.8212 20.6171L57.2981 19.5124ZM57.6542 19.6663L57.2983 19.5125L56.821 20.6171L57.1769 20.7709L57.6542 19.6663ZM60.4843 21.0015C59.5456 20.4945 58.5817 20.0679 57.6546 19.6665L57.1765 20.7707C58.102 21.1715 59.0238 21.5803 59.9125 22.0603L60.4843 21.0015ZM65.9143 23.7882C64.0848 22.9144 62.2836 21.9733 60.4843 21.0015L59.9125 22.0603C61.7205 23.0368 63.5411 23.9882 65.3957 24.874L65.9143 23.7882ZM72.0742 27.6546C70.177 26.291 68.1451 24.8537 65.9143 23.7882L65.3957 24.874C67.5169 25.8871 69.4681 27.2633 71.372 28.6317L72.0742 27.6546ZM74.288 29.9875C73.7265 28.8646 72.8212 28.1915 72.0742 27.6546L71.372 28.6317C72.1195 29.169 72.7958 29.6938 73.2117 30.5256L74.288 29.9875ZM74.422 30.2466C74.3734 30.1541 74.3292 30.07 74.288 29.9875L73.2117 30.5256C73.2593 30.6208 73.3092 30.7157 73.3568 30.8062L74.422 30.2466ZM74.9561 31.4873C74.8071 30.9767 74.5935 30.5731 74.422 30.2466L73.3568 30.8062C73.5305 31.137 73.6898 31.4432 73.8009 31.8242L74.9561 31.4873ZM75.0935 32.314C75.0688 32.02 75.0132 31.6832 74.9561 31.4873L73.8009 31.8243C73.8277 31.9159 73.8736 32.1664 73.8944 32.4146L75.0935 32.314ZM75.1011 32.855C75.1156 32.6624 75.1064 32.4681 75.0935 32.314L73.8944 32.4146C73.9048 32.5386 73.9089 32.6621 73.9012 32.7649L75.1011 32.855ZM75.0411 33.2169C75.0786 33.0792 75.0939 32.9511 75.1011 32.855L73.9012 32.7649C73.8974 32.8161 73.8906 32.8624 73.8801 32.9009L75.0411 33.2169ZM74.7314 33.7956C74.9303 33.5746 75.0083 33.3374 75.0411 33.2169L73.8801 32.9009C73.8697 32.939 73.8556 32.9699 73.837 32.9906L74.7314 33.7956ZM73.5754 34.7775C73.9408 34.5188 74.373 34.1938 74.7314 33.7956L73.837 32.9906C73.5727 33.2843 73.2326 33.5459 72.88 33.7955L73.5754 34.7775ZM73.2013 35.0378C73.3183 34.9572 73.4436 34.8709 73.5754 34.7775L72.88 33.7955C72.7554 33.8838 72.6362 33.9659 72.5186 34.047L73.2013 35.0378ZM72.5885 35.4774C72.7711 35.3345 72.9673 35.199 73.2013 35.0378L72.5186 34.047C72.2906 34.2041 72.0634 34.3604 71.8469 34.5298L72.5885 35.4774ZM70.8247 36.6701C71.3987 36.3193 72.0047 35.9343 72.5885 35.4774L71.8469 34.5298C71.3196 34.9425 70.762 35.2982 70.1972 35.6434L70.8247 36.6701ZM70.3945 36.9312C70.5355 36.846 70.6792 36.759 70.8247 36.6701L70.1972 35.6434C70.0544 35.7307 69.9131 35.8161 69.7718 35.9016L70.3945 36.9312ZM69.1716 37.6954C69.5663 37.4322 69.9677 37.1893 70.3945 36.9312L69.7718 35.9016C69.3487 36.1575 68.9245 36.4139 68.5041 36.6942L69.1716 37.6954ZM68.4086 38.2066C68.6644 38.0348 68.9183 37.8642 69.1716 37.6954L68.5041 36.6942C68.2489 36.8644 67.9932 37.036 67.7377 37.2076L68.4086 38.2066ZM65.5284 40.0789C66.5155 39.478 67.4743 38.834 68.4086 38.2066L67.7377 37.2076C66.7998 37.8375 65.8632 38.4664 64.9027 39.051L65.5284 40.0789ZM63.5665 40.6002C64.0392 40.5633 64.8182 40.5111 65.5284 40.0789L64.9027 39.051C64.471 39.3138 63.9731 39.3615 63.4728 39.4006L63.5665 40.6002ZM63.5454 40.6018L63.5665 40.6002L63.4728 39.4006L63.4517 39.4022L63.5454 40.6018ZM62.5392 40.7839C62.7337 40.6791 62.9759 40.6464 63.5455 40.6018L63.4517 39.4022C62.9459 39.4418 62.429 39.4766 61.9687 39.7244L62.5392 40.7839ZM61.6192 41.2057C61.8862 41.0947 62.2152 40.9583 62.5392 40.7839L61.9687 39.7244C61.7057 39.866 61.4312 39.9807 61.1571 40.0947L61.6192 41.2057ZM61.6 41.2137L61.6192 41.2057L61.1571 40.0947L61.138 40.1026L61.6 41.2137ZM60.8844 41.5389C61.0885 41.4279 61.3109 41.3339 61.6001 41.2136L61.138 40.1026C60.8577 40.2192 60.5774 40.3361 60.3093 40.482L60.8844 41.5389ZM59.9025 42.0948C60.2446 41.8976 60.5714 41.7092 60.8844 41.5389L60.3093 40.482C59.9809 40.6606 59.641 40.8566 59.3016 41.0523L59.9025 42.0948ZM58.1118 43.0763C58.7221 42.7755 59.333 42.4231 59.9025 42.0948L59.3016 41.0523C58.7256 41.3843 58.1489 41.7165 57.5797 41.9971L58.1118 43.0763ZM55.6857 44.3555C56.4964 43.9135 57.2818 43.4855 58.1118 43.0763L57.5797 41.9971C56.7241 42.4189 55.9174 42.8587 55.1097 43.299L55.6857 44.3555ZM53.969 45.2768C54.5628 44.9675 55.1302 44.6583 55.6857 44.3555L55.1097 43.299C54.5529 43.6025 53.9953 43.9064 53.4132 44.2096L53.969 45.2768ZM50.5484 46.665C51.6445 46.282 52.8373 45.8663 53.969 45.2768L53.4132 44.2096C52.3709 44.7525 51.2602 45.1417 50.1515 45.5291L50.5484 46.665ZM50.4076 46.7143L50.5485 46.665L50.1514 45.5291L50.0105 45.5784L50.4076 46.7143ZM47.2186 48.0348C48.1852 47.5016 49.2426 47.1217 50.4077 46.7142L50.0104 45.5784C48.8555 45.9824 47.7053 46.3921 46.6373 46.9813L47.2186 48.0348ZM46.132 48.4859C46.46 48.3804 46.8405 48.2435 47.2186 48.0348L46.6373 46.9813C46.3594 47.1346 46.0642 47.2437 45.7637 47.3403L46.132 48.4859ZM45.7303 48.61C45.8514 48.5735 45.9833 48.5337 46.132 48.4859L45.7637 47.3403C45.6266 47.3844 45.5044 47.4213 45.3827 47.458L45.7303 48.61ZM45.2506 48.7619C45.4126 48.706 45.56 48.6614 45.7303 48.61L45.3827 47.458C45.2146 47.5088 45.0453 47.5598 44.8577 47.6246L45.2506 48.7619ZM44.8325 48.9814C45.0274 48.8604 45.1441 48.7987 45.2506 48.7619L44.8577 47.6246C44.6173 47.7077 44.4056 47.8301 44.198 47.9589L44.8325 48.9814ZM44.7334 49.0435C44.7694 49.0208 44.8019 49.0003 44.8325 48.9814L44.198 47.9589C44.1636 47.9803 44.1277 48.0029 44.0924 48.0251L44.7334 49.0435ZM44.0854 49.4161C44.3364 49.294 44.5671 49.1482 44.7334 49.0435L44.0924 48.0251C43.9192 48.1341 43.742 48.245 43.559 48.334L44.0854 49.4161ZM43.3349 49.6602C43.4954 49.6242 43.7912 49.5592 44.0854 49.4161L43.559 48.334C43.4059 48.4086 43.2374 48.4488 43.0712 48.4862L43.3349 49.6602ZM43.3238 49.6627L43.3349 49.6602L43.0713 48.4862L43.0602 48.4887L43.3238 49.6627ZM43.052 49.7316C43.0805 49.7196 43.1232 49.7078 43.3239 49.6627L43.0602 48.4887C42.9008 48.5245 42.7351 48.5594 42.585 48.6226L43.052 49.7316ZM42.2232 49.9245C42.5601 49.9265 42.8664 49.8098 43.052 49.7316L42.585 48.6226C42.424 48.6905 42.3085 48.7217 42.2303 48.7212L42.2232 49.9245ZM41.4509 49.6839C41.7382 49.885 42.0348 49.9234 42.2232 49.9245L42.2303 48.7212C42.1908 48.721 42.1617 48.7127 42.1408 48.6981L41.4509 49.6839ZM40.9283 48.9091C40.9885 49.1646 41.141 49.4671 41.4509 49.6839L42.1408 48.6981C42.1288 48.6897 42.1212 48.6809 42.1151 48.6712C42.1082 48.6603 42.1028 48.6469 42.0995 48.6332L40.9283 48.9091ZM40.9805 48.0441C40.9484 48.1481 40.8339 48.5081 40.9283 48.9091L42.0995 48.6332C42.0944 48.6114 42.0924 48.5772 42.0989 48.5298C42.1054 48.4831 42.1174 48.4407 42.1304 48.3986L40.9805 48.0441ZM41.1496 47.5947C41.0986 47.7171 41.0301 47.8833 40.9805 48.0441L42.1304 48.3986C42.1607 48.3003 42.2076 48.1842 42.2604 48.0575L41.1496 47.5947ZM42.5499 47.5264L41.9364 47.2707L41.4736 48.3814L42.0871 48.6371L42.5499 47.5264ZM42.1228 47.5117L42.0898 47.5253L42.5473 48.6382L42.5803 48.6246L42.1228 47.5117ZM42.7677 47.321C42.6259 47.3525 42.3685 47.4082 42.1181 47.5137L42.585 48.6226C42.7211 48.5653 42.876 48.5295 43.0284 48.4957L42.7677 47.321ZM42.8085 47.3119L42.7672 47.3211L43.0289 48.4956L43.0701 48.4864L42.8085 47.3119ZM43.0326 47.252C43.0225 47.2569 42.9851 47.2723 42.8074 47.3122L43.0712 48.4862C43.2364 48.4491 43.4055 48.4087 43.559 48.3341L43.0326 47.252ZM43.1219 47.2058C43.0916 47.2224 43.0621 47.2377 43.0326 47.252L43.559 48.334C43.6075 48.3105 43.654 48.2863 43.6991 48.2616L43.1219 47.2058ZM42.9572 48.3354H43.4105V47.1321H42.9572V48.3354ZM42.4097 40.8702C42.3827 43.1521 42.3556 45.4417 42.3556 47.7337H43.5588C43.5588 45.45 43.5859 43.1675 43.6129 40.8845L42.4097 40.8702ZM42.4097 40.867L42.4097 40.8702L43.6129 40.8844L43.6129 40.8812L42.4097 40.867ZM42.4638 34.0257C42.4638 36.3041 42.4368 38.5816 42.4097 40.8669L43.6129 40.8812C43.64 38.5971 43.6671 36.3124 43.6671 34.0257H42.4638ZM42.3571 30.8907C42.4115 31.9596 42.4638 32.9943 42.4638 34.0257H43.6671C43.6671 32.9587 43.6129 31.8935 43.5588 30.8295L42.3571 30.8907ZM42.3565 30.8796L42.3571 30.8906L43.5588 30.8295L43.5583 30.8185L42.3565 30.8796ZM42.2473 27.6406C42.2473 28.7347 42.3029 29.8243 42.3565 30.8796L43.5583 30.8185C43.5043 29.7582 43.4506 28.6991 43.4506 27.6406H42.2473ZM42.248 27.2647C42.2477 27.3877 42.2473 27.5131 42.2473 27.6406H43.4506C43.4506 27.5151 43.451 27.3913 43.4513 27.2681L42.248 27.2647ZM42.1557 25.0099C42.2514 25.7277 42.2503 26.4375 42.248 27.2647L43.4513 27.2681C43.4536 26.4548 43.4567 25.6631 43.3484 24.8509L42.1557 25.0099ZM42.1331 24.8412L42.1557 25.0101L43.3484 24.8507L43.3258 24.6818L42.1331 24.8412ZM64.2725 38.3713C64.2704 38.3699 64.2685 38.3686 64.2663 38.3669C64.2645 38.3654 64.2599 38.3618 64.2523 38.3545L65.0828 37.4838C65.0432 37.4461 64.9833 37.3961 64.9059 37.3482L64.2725 38.3713ZM64.28 38.3749C64.2789 38.3746 64.2778 38.3741 64.2767 38.3736C64.2752 38.3728 64.2735 38.3719 64.2724 38.3712L64.906 37.3482C64.8599 37.3197 64.7693 37.2678 64.644 37.228L64.28 38.3749ZM64.2825 38.3755C64.282 38.3755 64.2812 38.3753 64.28 38.3749L64.6441 37.228C64.5942 37.2122 64.5206 37.1924 64.4293 37.1812L64.2825 38.3755ZM64.2857 38.3754C64.2858 38.3754 64.2851 38.3755 64.2842 38.3756C64.2834 38.3756 64.2828 38.3756 64.2825 38.3755L64.4294 37.1812C64.3068 37.1662 64.1512 37.1664 63.9785 37.212L64.2857 38.3754ZM64.2894 38.3724C64.289 38.373 64.2888 38.3733 64.2887 38.3735C64.2886 38.3736 64.2886 38.3736 64.2886 38.3736C64.2886 38.3737 64.2886 38.3737 64.2886 38.3737C64.2886 38.3737 64.2886 38.3737 64.2886 38.3737C64.2886 38.3737 64.2886 38.3737 64.2886 38.3737C64.2886 38.3737 64.2886 38.3737 64.2886 38.3737C64.2886 38.3737 64.2886 38.3737 64.2886 38.3737C64.2886 38.3737 64.2886 38.3737 64.2886 38.3737C64.2886 38.3737 64.2886 38.3737 64.2886 38.3737C64.2886 38.3737 64.2885 38.3737 64.2884 38.3738C64.2881 38.3741 64.2875 38.3745 64.2867 38.3749C64.2859 38.3754 64.2854 38.3755 64.2857 38.3754L63.9785 37.212C63.6252 37.3053 63.3687 37.542 63.228 37.8054L64.2894 38.3724ZM64.2895 38.3721L64.2894 38.3724L63.228 37.8054C63.2204 37.8196 63.2132 37.8337 63.2064 37.8479L64.2895 38.3721ZM64.2908 38.3657C64.2908 38.3656 64.2908 38.3658 64.2908 38.3662C64.2907 38.3666 64.2907 38.3671 64.2907 38.3675C64.2906 38.3683 64.2905 38.3689 64.2904 38.3694C64.2902 38.3703 64.2899 38.3712 64.2895 38.3721L63.2064 37.8479C63.1065 38.0543 63.0912 38.2373 63.0882 38.3244L64.2908 38.3657ZM64.2907 38.3611C64.2908 38.3623 64.2909 38.3638 64.2908 38.3657L63.0882 38.3244C63.0866 38.3716 63.088 38.4151 63.091 38.4539L64.2907 38.3611ZM64.3985 37.381L63.4218 37.8694L63.9599 38.9456L64.9366 38.4573L64.3985 37.381ZM64.3588 38.4399C64.3664 38.4446 64.4358 38.4899 64.5359 38.514C64.5812 38.5249 64.7231 38.555 64.89 38.4917C65.1095 38.4086 65.2305 38.2226 65.266 38.0511C65.2934 37.9187 65.2684 37.8134 65.2592 37.7782C65.2472 37.7318 65.2322 37.6968 65.2239 37.6787C65.207 37.6419 65.1901 37.6151 65.1838 37.6051C65.1691 37.5822 65.156 37.5653 65.1521 37.5602C65.1463 37.5527 65.1414 37.5468 65.1384 37.5432C65.128 37.5308 65.1192 37.5212 65.1162 37.518C65.1076 37.5087 65.0993 37.5003 65.0921 37.4932L64.2486 38.3514C64.246 38.3488 64.2411 38.3439 64.2346 38.337C64.2327 38.3349 64.2247 38.3262 64.2147 38.3144C64.2119 38.3109 64.2071 38.3051 64.2013 38.2977C64.1975 38.2927 64.1845 38.2759 64.1698 38.253C64.1635 38.2431 64.1466 38.2163 64.1298 38.1795C64.1215 38.1614 64.1064 38.1264 64.0944 38.0801C64.0853 38.0448 64.0603 37.9396 64.0877 37.8071C64.1232 37.6357 64.2442 37.4497 64.4636 37.3665C64.6306 37.3033 64.7724 37.3333 64.8177 37.3442C64.9178 37.3683 64.9872 37.4136 64.9948 37.4184L64.3588 38.4399ZM64.2486 38.3519C64.2514 38.3546 64.2572 38.3604 64.2647 38.3675C64.2682 38.3708 64.2753 38.3774 64.2846 38.3853C64.2862 38.3867 64.3164 38.4135 64.359 38.4399L64.9946 37.4183C65.0205 37.4344 65.0395 37.449 65.0471 37.4549C65.0567 37.4624 65.0642 37.4688 65.0688 37.4727C65.0779 37.4806 65.0849 37.487 65.0883 37.4902C65.0954 37.4969 65.1008 37.5023 65.103 37.5045L64.2486 38.3519ZM64.2269 38.3289C64.232 38.3345 64.2393 38.3424 64.2481 38.3513L65.1036 37.5051C65.1075 37.5091 65.1105 37.5123 65.1123 37.5141C65.1142 37.5161 65.1156 37.5177 65.1166 37.5188L64.2269 38.3289ZM64.2242 38.3259L64.2256 38.3275L65.1179 37.5203L65.1165 37.5187L64.2242 38.3259Z" fill="white" mask="url(#path-2-outside-1_2142_93916)"></path><path d="M94.9571 18.6294C94.8443 18.2842 94.6956 17.9748 94.511 17.7013C94.3299 17.4245 94.1128 17.1886 93.8598 16.9937C93.6103 16.7989 93.3266 16.6502 93.0087 16.5476C92.6907 16.4451 92.3421 16.3938 91.9626 16.3938C91.3405 16.3938 90.7747 16.5545 90.2654 16.8758C89.756 17.1971 89.351 17.6706 89.0501 18.2961C88.7493 18.9217 88.5989 19.6891 88.5989 20.5984C88.5989 21.5077 88.751 22.2752 89.0553 22.9007C89.3595 23.5263 89.7714 23.9998 90.291 24.3211C90.8106 24.6424 91.3952 24.8031 92.0447 24.8031C92.6463 24.8031 93.1762 24.6749 93.6342 24.4185C94.0957 24.1587 94.4546 23.7929 94.711 23.3212C94.9708 22.846 95.1007 22.2871 95.1007 21.6445L95.4904 21.7265H92.3318V20.5984H96.3313V21.7265C96.3313 22.5914 96.1468 23.3434 95.7776 23.9827C95.4118 24.6219 94.9059 25.1176 94.2598 25.4697C93.6171 25.8184 92.8788 25.9927 92.0447 25.9927C91.1149 25.9927 90.2979 25.7739 89.5937 25.3364C88.8929 24.8988 88.3459 24.2767 87.9528 23.4699C87.5631 22.6632 87.3683 21.706 87.3683 20.5984C87.3683 19.7678 87.4794 19.0208 87.7016 18.3577C87.9272 17.6911 88.2451 17.1236 88.6553 16.6553C89.0655 16.187 89.5509 15.8281 90.1115 15.5785C90.6722 15.329 91.2892 15.2042 91.9626 15.2042C92.5164 15.2042 93.0326 15.2879 93.5112 15.4554C93.9932 15.6195 94.4222 15.8537 94.7982 16.1579C95.1776 16.4587 95.4938 16.8194 95.7468 17.2399C95.9998 17.6569 96.1741 18.1201 96.2698 18.6294H94.9571ZM98.5093 25.8491V15.3478H104.847V16.4758H99.7809V20.0242H104.519V21.1522H99.7809V24.721H104.929V25.8491H98.5093ZM106.565 16.4758V15.3478H114.441V16.4758H111.139V25.8491H109.867V16.4758H106.565ZM121.736 15.3478V25.8491H120.464V15.3478H121.736ZM123.712 16.4758V15.3478H131.588V16.4758H128.285V25.8491H127.014V16.4758H123.712ZM146.472 20.5984C146.472 21.706 146.272 22.6632 145.872 23.4699C145.472 24.2767 144.923 24.8988 144.226 25.3364C143.528 25.7739 142.732 25.9927 141.836 25.9927C140.941 25.9927 140.144 25.7739 139.447 25.3364C138.75 24.8988 138.201 24.2767 137.801 23.4699C137.401 22.6632 137.201 21.706 137.201 20.5984C137.201 19.4909 137.401 18.5337 137.801 17.727C138.201 16.9202 138.75 16.2981 139.447 15.8605C140.144 15.423 140.941 15.2042 141.836 15.2042C142.732 15.2042 143.528 15.423 144.226 15.8605C144.923 16.2981 145.472 16.9202 145.872 17.727C146.272 18.5337 146.472 19.4909 146.472 20.5984ZM145.241 20.5984C145.241 19.6891 145.089 18.9217 144.785 18.2961C144.484 17.6706 144.075 17.1971 143.559 16.8758C143.046 16.5545 142.472 16.3938 141.836 16.3938C141.201 16.3938 140.625 16.5545 140.108 16.8758C139.596 17.1971 139.187 17.6706 138.883 18.2961C138.582 18.9217 138.432 19.6891 138.432 20.5984C138.432 21.5077 138.582 22.2752 138.883 22.9007C139.187 23.5263 139.596 23.9998 140.108 24.3211C140.625 24.6424 141.201 24.8031 141.836 24.8031C142.472 24.8031 143.046 24.6424 143.559 24.3211C144.075 23.9998 144.484 23.5263 144.785 22.9007C145.089 22.2752 145.241 21.5077 145.241 20.5984ZM156.937 15.3478V25.8491H155.707L149.984 17.6039H149.882V25.8491H148.61V15.3478H149.841L155.583 23.6135H155.686V15.3478H156.937ZM97.0082 40.3733C96.9125 40.0406 96.778 39.7466 96.6048 39.4913C96.4316 39.2315 96.2197 39.0128 95.969 38.835C95.7229 38.6527 95.4403 38.5137 95.1212 38.418C94.8067 38.3222 94.4581 38.2744 94.0752 38.2744C93.3596 38.2744 92.7306 38.4521 92.1882 38.8077C91.6504 39.1632 91.2311 39.6805 90.9303 40.3596C90.6294 41.0342 90.479 41.8592 90.479 42.8345C90.479 43.8099 90.6272 44.6395 90.9234 45.3231C91.2197 46.0068 91.639 46.5287 92.1814 46.8888C92.7238 47.2443 93.3642 47.4221 94.1025 47.4221C94.7725 47.4221 95.3446 47.3035 95.8186 47.0665C96.2972 46.825 96.6618 46.4854 96.9125 46.0478C97.1677 45.6103 97.2953 45.093 97.2953 44.4959L97.897 44.5848H94.2871V42.356H100.146V44.1199C100.146 45.3505 99.8865 46.4079 99.3669 47.2922C98.8473 48.1718 98.1317 48.8509 97.2201 49.3295C96.3086 49.8035 95.2648 50.0406 94.0889 50.0406C92.7762 50.0406 91.6231 49.7511 90.6294 49.1723C89.6358 48.5889 88.861 47.7616 88.3049 46.6905C87.7534 45.6149 87.4777 44.3386 87.4777 42.8619C87.4777 41.727 87.6417 40.7151 87.9699 39.8263C88.3026 38.933 88.7675 38.1764 89.3646 37.5565C89.9617 36.9366 90.6568 36.4649 91.4499 36.1413C92.2429 35.8177 93.1021 35.6559 94.0273 35.6559C94.8204 35.6559 95.5588 35.7721 96.2425 36.0046C96.9261 36.2325 97.5323 36.5561 98.0611 36.9754C98.5943 37.3947 99.0296 37.8938 99.3669 38.4727C99.7042 39.0469 99.9207 39.6805 100.016 40.3733H97.0082ZM107.06 50.0542C105.998 50.0542 105.08 49.8286 104.305 49.3774C103.535 48.9216 102.94 48.288 102.52 47.4767C102.101 46.6609 101.891 45.7151 101.891 44.6395C101.891 43.5547 102.101 42.6067 102.52 41.7953C102.94 40.9795 103.535 40.3459 104.305 39.8947C105.08 39.4389 105.998 39.211 107.06 39.211C108.122 39.211 109.038 39.4389 109.808 39.8947C110.583 40.3459 111.18 40.9795 111.6 41.7953C112.019 42.6067 112.229 43.5547 112.229 44.6395C112.229 45.7151 112.019 46.6609 111.6 47.4767C111.18 48.288 110.583 48.9216 109.808 49.3774C109.038 49.8286 108.122 50.0542 107.06 50.0542ZM107.074 47.7981C107.557 47.7981 107.96 47.6613 108.284 47.3879C108.607 47.1098 108.851 46.7315 109.015 46.253C109.184 45.7744 109.268 45.2297 109.268 44.619C109.268 44.0082 109.184 43.4635 109.015 42.985C108.851 42.5064 108.607 42.1281 108.284 41.85C107.96 41.572 107.557 41.433 107.074 41.433C106.586 41.433 106.176 41.572 105.843 41.85C105.515 42.1281 105.266 42.5064 105.098 42.985C104.934 43.4635 104.852 44.0082 104.852 44.619C104.852 45.2297 104.934 45.7744 105.098 46.253C105.266 46.7315 105.515 47.1098 105.843 47.3879C106.176 47.6613 106.586 47.7981 107.074 47.7981ZM118.867 50.0542C117.805 50.0542 116.887 49.8286 116.112 49.3774C115.342 48.9216 114.747 48.288 114.328 47.4767C113.908 46.6609 113.699 45.7151 113.699 44.6395C113.699 43.5547 113.908 42.6067 114.328 41.7953C114.747 40.9795 115.342 40.3459 116.112 39.8947C116.887 39.4389 117.805 39.211 118.867 39.211C119.929 39.211 120.845 39.4389 121.616 39.8947C122.39 40.3459 122.988 40.9795 123.407 41.7953C123.826 42.6067 124.036 43.5547 124.036 44.6395C124.036 45.7151 123.826 46.6609 123.407 47.4767C122.988 48.288 122.39 48.9216 121.616 49.3774C120.845 49.8286 119.929 50.0542 118.867 50.0542ZM118.881 47.7981C119.364 47.7981 119.767 47.6613 120.091 47.3879C120.415 47.1098 120.658 46.7315 120.823 46.253C120.991 45.7744 121.076 45.2297 121.076 44.619C121.076 44.0082 120.991 43.4635 120.823 42.985C120.658 42.5064 120.415 42.1281 120.091 41.85C119.767 41.572 119.364 41.433 118.881 41.433C118.393 41.433 117.983 41.572 117.65 41.85C117.322 42.1281 117.074 42.5064 116.905 42.985C116.741 43.4635 116.659 44.0082 116.659 44.619C116.659 45.2297 116.741 45.7744 116.905 46.253C117.074 46.7315 117.322 47.1098 117.65 47.3879C117.983 47.6613 118.393 47.7981 118.881 47.7981ZM130.661 54.0059C129.717 54.0059 128.908 53.876 128.234 53.6162C127.564 53.361 127.03 53.0123 126.634 52.5702C126.237 52.1281 125.98 51.6313 125.861 51.0797L128.555 50.7174C128.637 50.9271 128.767 51.123 128.945 51.3054C129.122 51.4877 129.357 51.6335 129.649 51.7429C129.945 51.8569 130.305 51.9138 130.729 51.9138C131.363 51.9138 131.885 51.7589 132.295 51.4489C132.709 51.1436 132.917 50.6308 132.917 49.9107V47.9895H132.794C132.666 48.2812 132.475 48.557 132.22 48.8168C131.964 49.0766 131.636 49.2885 131.235 49.4526C130.834 49.6167 130.355 49.6987 129.799 49.6987C129.011 49.6987 128.293 49.5164 127.646 49.1518C127.003 48.7826 126.49 48.2197 126.107 47.4631C125.729 46.7019 125.54 45.7402 125.54 44.5779C125.54 43.3883 125.734 42.3947 126.121 41.5971C126.508 40.7995 127.024 40.2024 127.666 39.8058C128.313 39.4093 129.022 39.211 129.792 39.211C130.38 39.211 130.873 39.3113 131.269 39.5119C131.666 39.7078 131.985 39.954 132.226 40.2502C132.472 40.5419 132.662 40.8291 132.794 41.1117H132.903V39.3478H135.795V49.9517C135.795 50.845 135.576 51.5925 135.139 52.1942C134.701 52.7958 134.095 53.247 133.32 53.5478C132.55 53.8532 131.663 54.0059 130.661 54.0059ZM130.722 47.5109C131.192 47.5109 131.588 47.3947 131.912 47.1623C132.24 46.9252 132.491 46.588 132.664 46.1504C132.842 45.7083 132.931 45.1796 132.931 44.5643C132.931 43.9489 132.844 43.4157 132.671 42.9644C132.498 42.5087 132.247 42.1554 131.919 41.9047C131.591 41.6541 131.192 41.5287 130.722 41.5287C130.244 41.5287 129.84 41.6586 129.512 41.9184C129.184 42.1737 128.936 42.5292 128.767 42.985C128.598 43.4407 128.514 43.9672 128.514 44.5643C128.514 45.1705 128.598 45.6946 128.767 46.1367C128.94 46.5743 129.189 46.9138 129.512 47.1554C129.84 47.3924 130.244 47.5109 130.722 47.5109ZM141.025 35.8473V49.8491H138.113V35.8473H141.025ZM148.144 50.0542C147.064 50.0542 146.134 49.8354 145.355 49.3979C144.58 48.9558 143.983 48.3313 143.564 47.5246C143.144 46.7133 142.935 45.7539 142.935 44.6463C142.935 43.5661 143.144 42.618 143.564 41.8022C143.983 40.9863 144.573 40.3505 145.334 39.8947C146.1 39.4389 146.998 39.211 148.028 39.211C148.721 39.211 149.366 39.3227 149.963 39.546C150.564 39.7648 151.089 40.0953 151.535 40.5374C151.986 40.9795 152.337 41.5355 152.588 42.2056C152.839 42.871 152.964 43.6504 152.964 44.5437V45.3437H144.097V43.5387H150.223C150.223 43.1194 150.131 42.7479 149.949 42.4243C149.767 42.1007 149.514 41.8478 149.19 41.6654C148.871 41.4786 148.5 41.3851 148.076 41.3851C147.634 41.3851 147.242 41.4877 146.9 41.6928C146.563 41.8933 146.298 42.1645 146.107 42.5064C145.915 42.8437 145.817 43.2197 145.813 43.6345V45.3505C145.813 45.8701 145.909 46.319 146.1 46.6973C146.296 47.0757 146.572 47.3674 146.927 47.5725C147.283 47.7776 147.704 47.8801 148.192 47.8801C148.516 47.8801 148.812 47.8345 149.081 47.7434C149.35 47.6522 149.58 47.5155 149.771 47.3332C149.963 47.1509 150.109 46.9275 150.209 46.6632L152.903 46.8409C152.766 47.4881 152.486 48.0533 152.062 48.5365C151.642 49.015 151.1 49.3888 150.435 49.6577C149.774 49.922 149.01 50.0542 148.144 50.0542ZM159.375 49.8491V35.8473H164.9C165.961 35.8473 166.866 36.0501 167.614 36.4558C168.361 36.8569 168.931 37.4152 169.323 38.1308C169.719 38.8418 169.918 39.6623 169.918 40.5921C169.918 41.5219 169.717 42.3423 169.316 43.0533C168.915 43.7644 168.334 44.3181 167.573 44.7147C166.816 45.1112 165.9 45.3095 164.824 45.3095H161.303V42.9371H164.346C164.915 42.9371 165.385 42.8391 165.754 42.6431C166.128 42.4426 166.406 42.1668 166.588 41.8159C166.775 41.4603 166.869 41.0524 166.869 40.5921C166.869 40.1272 166.775 39.7215 166.588 39.3751C166.406 39.0242 166.128 38.753 165.754 38.5615C165.38 38.3655 164.906 38.2676 164.332 38.2676H162.336V49.8491H159.375ZM174.698 35.8473V49.8491H171.786V35.8473H174.698ZM180.026 50.0474C179.356 50.0474 178.759 49.9312 178.235 49.6987C177.711 49.4617 177.296 49.113 176.99 48.6527C176.69 48.1878 176.539 47.6089 176.539 46.9161C176.539 46.3327 176.646 45.8427 176.861 45.4462C177.075 45.0497 177.366 44.7306 177.736 44.4891C178.105 44.2475 178.524 44.0652 178.994 43.9421C179.468 43.819 179.964 43.7324 180.484 43.6823C181.095 43.6185 181.587 43.5592 181.961 43.5046C182.335 43.4453 182.606 43.3587 182.774 43.2448C182.943 43.1308 183.027 42.9622 183.027 42.7388V42.6978C183.027 42.2648 182.891 41.9298 182.617 41.6928C182.348 41.4558 181.965 41.3373 181.469 41.3373C180.944 41.3373 180.527 41.4535 180.217 41.686C179.907 41.9139 179.702 42.201 179.602 42.5474L176.908 42.3286C177.045 41.6905 177.314 41.139 177.715 40.6741C178.116 40.2046 178.634 39.8446 179.267 39.5939C179.905 39.3387 180.644 39.211 181.482 39.211C182.066 39.211 182.624 39.2794 183.157 39.4161C183.695 39.5529 184.171 39.7648 184.586 40.052C185.005 40.3391 185.336 40.7083 185.577 41.1595C185.819 41.6062 185.94 42.1417 185.94 42.7662V49.8491H183.178V48.3929H183.096C182.927 48.721 182.701 49.0105 182.419 49.2612C182.136 49.5073 181.797 49.701 181.4 49.8423C181.004 49.979 180.546 50.0474 180.026 50.0474ZM180.86 48.0374C181.289 48.0374 181.667 47.953 181.995 47.7844C182.323 47.6112 182.581 47.3788 182.768 47.087C182.954 46.7953 183.048 46.4649 183.048 46.0957V44.9813C182.957 45.0406 182.831 45.0953 182.672 45.1454C182.517 45.191 182.341 45.2343 182.145 45.2753C181.949 45.3118 181.753 45.3459 181.557 45.3778C181.361 45.4052 181.184 45.4303 181.024 45.453C180.682 45.5032 180.384 45.5829 180.129 45.6923C179.873 45.8017 179.675 45.9499 179.534 46.1367C179.392 46.319 179.322 46.5469 179.322 46.8204C179.322 47.2169 179.465 47.52 179.752 47.7297C180.044 47.9348 180.413 48.0374 180.86 48.0374ZM189.621 53.7871C189.252 53.7871 188.906 53.7575 188.582 53.6983C188.263 53.6436 187.999 53.5729 187.789 53.4863L188.446 51.3122C188.787 51.417 189.095 51.474 189.368 51.4831C189.647 51.4922 189.886 51.4284 190.086 51.2917C190.291 51.155 190.458 50.9225 190.585 50.5943L190.756 50.1499L186.989 39.3478H190.052L192.226 47.0597H192.336L194.53 39.3478H197.614L193.532 50.984C193.336 51.5492 193.069 52.0415 192.732 52.4608C192.399 52.8847 191.978 53.2106 191.467 53.4385C190.957 53.6709 190.342 53.7871 189.621 53.7871Z" fill="white"></path></svg>