<svg xmlns="http://www.w3.org/2000/svg" width="240" height="65" viewBox="0 0 240 65" fill="none"><rect y="0.349121" width="240" height="64" rx="12" fill="#FB6514"></rect><mask id="path-2-outside-1_2142_93921" maskUnits="userSpaceOnUse" x="24.0652" y="17.0234" width="31" height="31" fill="black"><rect fill="white" x="24.0652" y="17.0234" width="31" height="31"></rect><path fill-rule="evenodd" clip-rule="evenodd" d="M53.406 23.4753C53.4307 23.8587 53.4533 24.2116 53.486 24.5027C54.1154 29.0076 54.083 33.5803 53.3897 38.0757C53.1611 39.4475 52.8723 39.9168 51.1275 40.3981C48.6644 40.9517 46.1621 41.3137 43.6431 41.481C44.1469 42.6659 44.4205 43.936 44.4493 45.2232C44.4267 45.3995 44.3596 45.567 44.2544 45.7102C44.1491 45.8533 44.0092 45.9673 43.8477 46.0414C41.1822 46.806 40.588 46.7553 37.9045 46.526C37.5474 46.4955 37.1532 46.4618 36.7122 46.4265C35.889 46.463 35.0779 46.2167 34.414 45.7286C33.7322 44.9745 34.2565 43.7858 34.8449 42.4519C34.9419 42.2321 35.0406 42.0083 35.1359 41.7818C33.0543 41.7578 26.9175 41.6374 25.9429 39.8686C25.4444 37.9375 25.1739 35.9546 25.1367 33.9605C24.9607 30.5568 25.1098 27.1441 25.5819 23.7687C25.6541 23.0829 25.7383 22.4451 25.8226 21.8796C25.8443 21.7333 25.8541 21.5178 25.8652 21.2699C25.8972 20.5594 25.9412 19.583 26.3159 19.2083C26.3854 19.1562 26.4714 19.1309 26.5581 19.137C26.6448 19.1432 26.7263 19.1804 26.7877 19.2418C26.8492 19.3033 26.8864 19.3848 26.8926 19.4715C26.8987 19.5582 26.8734 19.6442 26.8213 19.7137C26.6314 20.4449 26.5304 21.1964 26.5205 21.9518C26.5015 22.0984 26.4812 22.2419 26.4613 22.3834C26.3929 22.8689 26.3279 23.3296 26.3279 23.8048C25.7985 28.0399 25.7985 32.3245 26.3279 36.5596C26.8121 36.513 27.2997 36.513 27.7839 36.5596C38.3487 35.6692 43.1859 35.7775 49.6234 36.4513C50.1409 36.4874 50.1048 37.2695 49.6234 37.2695C46.2886 37.1008 42.6319 37.1971 39.2354 37.2866C36.5778 37.3566 34.0795 37.4224 32.0195 37.3538C26.8977 37.4121 26.7683 37.3291 26.6417 37.3331C26.6115 37.334 26.5816 37.3399 26.4844 37.3538C26.5391 38.0387 26.6806 38.714 26.9055 39.3632C28.1569 41.5171 48.8293 40.362 51.8134 38.7135C52.1157 37.5725 52.2971 36.4029 52.3549 35.224C52.7018 31.7131 52.6695 28.1751 52.2586 24.6712C52.2361 24.4403 52.2182 24.1086 52.1978 23.731C52.131 22.4949 52.0377 20.7667 51.669 20.4717C50.1857 19.2794 46.7832 19.2225 43.9476 19.175C43.1489 19.1617 42.3951 19.1491 41.742 19.112C38.6981 18.912 35.5788 19.0011 32.5159 19.0886C31.3409 19.1222 30.1742 19.1555 29.0233 19.1722C28.9148 19.1722 28.8107 19.1291 28.734 19.0524C28.6573 18.9757 28.6142 18.8716 28.6142 18.7631C28.6142 18.6546 28.6573 18.5505 28.734 18.4738C28.8107 18.3971 28.9148 18.354 29.0233 18.354C30.2296 18.319 31.4573 18.2668 32.6954 18.2141C35.7179 18.0855 38.8024 17.9542 41.7901 18.0652C42.4718 18.0932 43.2359 18.0943 44.0387 18.0954C47.0336 18.0997 50.5691 18.1048 52.391 19.5091C53.1909 20.1281 53.3125 22.0208 53.406 23.4753ZM38.848 45.1999C40.247 45.2999 41.1918 45.3673 43.2701 44.9585V44.9946C43.3126 43.8275 43.187 42.6604 42.8971 41.5291C40.6951 41.6976 38.2885 41.7939 35.882 41.7939C35.26 43.8671 34.9556 44.6385 35.2057 44.9241C35.3911 45.1358 35.8812 45.0806 36.7724 45.0909C37.616 45.1119 38.2707 45.1587 38.848 45.1999ZM33.431 33.7632C33.3662 33.7092 33.3223 33.6343 33.307 33.5513C33.2806 32.3906 33.5686 31.2443 34.1405 30.2338C34.7125 29.2234 35.547 28.3865 36.5558 27.8117C35.9457 27.3799 35.4758 26.7783 35.2047 26.0817C34.9336 25.3851 34.8731 24.6242 35.0308 23.8936C35.1884 23.1629 35.5573 22.4946 36.0916 21.9718C36.6258 21.4491 37.3019 21.0948 38.0358 20.953C38.0853 20.9399 38.137 20.9375 38.1875 20.9459C38.238 20.9543 38.2861 20.9733 38.3286 21.0017C38.3712 21.0301 38.4072 21.0673 38.4343 21.1107C38.4615 21.1541 38.479 21.2027 38.4859 21.2535C38.4928 21.3042 38.4888 21.3558 38.4742 21.4048C38.4596 21.4539 38.4348 21.4992 38.4013 21.538C38.3679 21.5767 38.3266 21.6079 38.2802 21.6294C38.2337 21.6509 38.1833 21.6624 38.1321 21.6629C37.5118 21.8252 36.9662 22.1961 36.5871 22.7132C36.208 23.2304 36.0185 23.8622 36.0504 24.5027C36.5302 24.3316 37.0698 23.9708 37.6066 23.6118C38.8065 22.8096 39.9926 22.0165 40.4665 23.3716C40.4789 23.4103 40.4889 23.4487 40.4988 23.4869C40.5663 23.7455 40.6324 23.9987 41.4291 24.3342C41.5506 24.3869 41.6776 24.43 41.7981 24.4709C42.0355 24.5515 42.2478 24.6236 42.3436 24.7433C42.3679 24.7141 42.3881 24.6817 42.4038 24.6471C42.8249 23.7807 42.0428 23.0106 41.2727 22.433C40.9576 22.1527 40.5833 21.947 40.1777 21.8314C39.576 21.8314 39.3474 20.243 41.5133 21.5185C41.9974 21.7372 42.4305 22.0546 42.7848 22.4504C43.1392 22.8461 43.4069 23.3116 43.5709 23.8168C43.8838 25.2367 42.5241 26.8611 41.3208 27.6432C42.3159 28.1497 43.1333 28.9471 43.6642 29.9294C44.1951 30.9116 44.4144 32.0323 44.2929 33.1422C44.3031 33.201 44.3003 33.2613 44.2848 33.3188C44.2692 33.3764 44.2412 33.4299 44.2028 33.4755C44.1644 33.5212 44.1165 33.5579 44.0624 33.583C44.0084 33.6082 43.9494 33.6212 43.8898 33.6212C43.8302 33.6212 43.7712 33.6082 43.7172 33.583C43.6631 33.5579 43.6152 33.5212 43.5768 33.4755C43.5384 33.4299 43.5104 33.3764 43.4949 33.3188C43.4793 33.2613 43.4765 33.201 43.4867 33.1422C43.5511 32.0672 43.2193 31.0058 42.5542 30.1588C41.889 29.3119 40.9365 28.738 39.8769 28.5457C39.1609 28.4765 38.4383 28.5522 37.7523 28.7684C37.0662 28.9846 36.4308 29.3368 35.8838 29.804C35.3369 30.2712 34.8897 30.8438 34.5689 31.4877C34.2482 32.1315 34.0604 32.8333 34.0169 33.5513C34.0016 33.6343 33.9577 33.7092 33.8928 33.7632C33.828 33.8171 33.7463 33.8467 33.6619 33.8467C33.5776 33.8467 33.4959 33.8171 33.431 33.7632ZM39.6983 24.3243C39.6343 24.1105 39.6078 24.0221 39.0225 24.3342V24.3222C38.1406 24.8138 37.1796 25.1477 36.1828 25.3089C37.0853 27.8718 40.3702 27.4266 41.8984 25.3811C41.3541 25.3107 40.8206 25.1733 40.31 24.9719C39.8344 24.7784 39.7528 24.506 39.6983 24.3243Z"></path></mask><path fill-rule="evenodd" clip-rule="evenodd" d="M53.406 23.4753C53.4307 23.8587 53.4533 24.2116 53.486 24.5027C54.1154 29.0076 54.083 33.5803 53.3897 38.0757C53.1611 39.4475 52.8723 39.9168 51.1275 40.3981C48.6644 40.9517 46.1621 41.3137 43.6431 41.481C44.1469 42.6659 44.4205 43.936 44.4493 45.2232C44.4267 45.3995 44.3596 45.567 44.2544 45.7102C44.1491 45.8533 44.0092 45.9673 43.8477 46.0414C41.1822 46.806 40.588 46.7553 37.9045 46.526C37.5474 46.4955 37.1532 46.4618 36.7122 46.4265C35.889 46.463 35.0779 46.2167 34.414 45.7286C33.7322 44.9745 34.2565 43.7858 34.8449 42.4519C34.9419 42.2321 35.0406 42.0083 35.1359 41.7818C33.0543 41.7578 26.9175 41.6374 25.9429 39.8686C25.4444 37.9375 25.1739 35.9546 25.1367 33.9605C24.9607 30.5568 25.1098 27.1441 25.5819 23.7687C25.6541 23.0829 25.7383 22.4451 25.8226 21.8796C25.8443 21.7333 25.8541 21.5178 25.8652 21.2699C25.8972 20.5594 25.9412 19.583 26.3159 19.2083C26.3854 19.1562 26.4714 19.1309 26.5581 19.137C26.6448 19.1432 26.7263 19.1804 26.7877 19.2418C26.8492 19.3033 26.8864 19.3848 26.8926 19.4715C26.8987 19.5582 26.8734 19.6442 26.8213 19.7137C26.6314 20.4449 26.5304 21.1964 26.5205 21.9518C26.5015 22.0984 26.4812 22.2419 26.4613 22.3834C26.3929 22.8689 26.3279 23.3296 26.3279 23.8048C25.7985 28.0399 25.7985 32.3245 26.3279 36.5596C26.8121 36.513 27.2997 36.513 27.7839 36.5596C38.3487 35.6692 43.1859 35.7775 49.6234 36.4513C50.1409 36.4874 50.1048 37.2695 49.6234 37.2695C46.2886 37.1008 42.6319 37.1971 39.2354 37.2866C36.5778 37.3566 34.0795 37.4224 32.0195 37.3538C26.8977 37.4121 26.7683 37.3291 26.6417 37.3331C26.6115 37.334 26.5816 37.3399 26.4844 37.3538C26.5391 38.0387 26.6806 38.714 26.9055 39.3632C28.1569 41.5171 48.8293 40.362 51.8134 38.7135C52.1157 37.5725 52.2971 36.4029 52.3549 35.224C52.7018 31.7131 52.6695 28.1751 52.2586 24.6712C52.2361 24.4403 52.2182 24.1086 52.1978 23.731C52.131 22.4949 52.0377 20.7667 51.669 20.4717C50.1857 19.2794 46.7832 19.2225 43.9476 19.175C43.1489 19.1617 42.3951 19.1491 41.742 19.112C38.6981 18.912 35.5788 19.0011 32.5159 19.0886C31.3409 19.1222 30.1742 19.1555 29.0233 19.1722C28.9148 19.1722 28.8107 19.1291 28.734 19.0524C28.6573 18.9757 28.6142 18.8716 28.6142 18.7631C28.6142 18.6546 28.6573 18.5505 28.734 18.4738C28.8107 18.3971 28.9148 18.354 29.0233 18.354C30.2296 18.319 31.4573 18.2668 32.6954 18.2141C35.7179 18.0855 38.8024 17.9542 41.7901 18.0652C42.4718 18.0932 43.2359 18.0943 44.0387 18.0954C47.0336 18.0997 50.5691 18.1048 52.391 19.5091C53.1909 20.1281 53.3125 22.0208 53.406 23.4753ZM38.848 45.1999C40.247 45.2999 41.1918 45.3673 43.2701 44.9585V44.9946C43.3126 43.8275 43.187 42.6604 42.8971 41.5291C40.6951 41.6976 38.2885 41.7939 35.882 41.7939C35.26 43.8671 34.9556 44.6385 35.2057 44.9241C35.3911 45.1358 35.8812 45.0806 36.7724 45.0909C37.616 45.1119 38.2707 45.1587 38.848 45.1999ZM33.431 33.7632C33.3662 33.7092 33.3223 33.6343 33.307 33.5513C33.2806 32.3906 33.5686 31.2443 34.1405 30.2338C34.7125 29.2234 35.547 28.3865 36.5558 27.8117C35.9457 27.3799 35.4758 26.7783 35.2047 26.0817C34.9336 25.3851 34.8731 24.6242 35.0308 23.8936C35.1884 23.1629 35.5573 22.4946 36.0916 21.9718C36.6258 21.4491 37.3019 21.0948 38.0358 20.953C38.0853 20.9399 38.137 20.9375 38.1875 20.9459C38.238 20.9543 38.2861 20.9733 38.3286 21.0017C38.3712 21.0301 38.4072 21.0673 38.4343 21.1107C38.4615 21.1541 38.479 21.2027 38.4859 21.2535C38.4928 21.3042 38.4888 21.3558 38.4742 21.4048C38.4596 21.4539 38.4348 21.4992 38.4013 21.538C38.3679 21.5767 38.3266 21.6079 38.2802 21.6294C38.2337 21.6509 38.1833 21.6624 38.1321 21.6629C37.5118 21.8252 36.9662 22.1961 36.5871 22.7132C36.208 23.2304 36.0185 23.8622 36.0504 24.5027C36.5302 24.3316 37.0698 23.9708 37.6066 23.6118C38.8065 22.8096 39.9926 22.0165 40.4665 23.3716C40.4789 23.4103 40.4889 23.4487 40.4988 23.4869C40.5663 23.7455 40.6324 23.9987 41.4291 24.3342C41.5506 24.3869 41.6776 24.43 41.7981 24.4709C42.0355 24.5515 42.2478 24.6236 42.3436 24.7433C42.3679 24.7141 42.3881 24.6817 42.4038 24.6471C42.8249 23.7807 42.0428 23.0106 41.2727 22.433C40.9576 22.1527 40.5833 21.947 40.1777 21.8314C39.576 21.8314 39.3474 20.243 41.5133 21.5185C41.9974 21.7372 42.4305 22.0546 42.7848 22.4504C43.1392 22.8461 43.4069 23.3116 43.5709 23.8168C43.8838 25.2367 42.5241 26.8611 41.3208 27.6432C42.3159 28.1497 43.1333 28.9471 43.6642 29.9294C44.1951 30.9116 44.4144 32.0323 44.2929 33.1422C44.3031 33.201 44.3003 33.2613 44.2848 33.3188C44.2692 33.3764 44.2412 33.4299 44.2028 33.4755C44.1644 33.5212 44.1165 33.5579 44.0624 33.583C44.0084 33.6082 43.9494 33.6212 43.8898 33.6212C43.8302 33.6212 43.7712 33.6082 43.7172 33.583C43.6631 33.5579 43.6152 33.5212 43.5768 33.4755C43.5384 33.4299 43.5104 33.3764 43.4949 33.3188C43.4793 33.2613 43.4765 33.201 43.4867 33.1422C43.5511 32.0672 43.2193 31.0058 42.5542 30.1588C41.889 29.3119 40.9365 28.738 39.8769 28.5457C39.1609 28.4765 38.4383 28.5522 37.7523 28.7684C37.0662 28.9846 36.4308 29.3368 35.8838 29.804C35.3369 30.2712 34.8897 30.8438 34.5689 31.4877C34.2482 32.1315 34.0604 32.8333 34.0169 33.5513C34.0016 33.6343 33.9577 33.7092 33.8928 33.7632C33.828 33.8171 33.7463 33.8467 33.6619 33.8467C33.5776 33.8467 33.4959 33.8171 33.431 33.7632ZM39.6983 24.3243C39.6343 24.1105 39.6078 24.0221 39.0225 24.3342V24.3222C38.1406 24.8138 37.1796 25.1477 36.1828 25.3089C37.0853 27.8718 40.3702 27.4266 41.8984 25.3811C41.3541 25.3107 40.8206 25.1733 40.31 24.9719C39.8344 24.7784 39.7528 24.506 39.6983 24.3243Z" fill="white"></path><path d="M53.486 24.5027L52.8881 24.5697L52.889 24.5779L52.8901 24.586L53.486 24.5027ZM53.406 23.4753L54.0064 23.4367V23.4367L53.406 23.4753ZM53.3897 38.0757L53.9832 38.1747L53.9843 38.1674L53.3897 38.0757ZM51.1275 40.3981L51.2595 40.9851L51.2736 40.9819L51.2875 40.978L51.1275 40.3981ZM43.6431 41.481L43.6033 40.8807L42.758 40.9368L43.0895 41.7164L43.6431 41.481ZM44.4493 45.2232L45.0461 45.2998L45.0518 45.2549L45.0508 45.2098L44.4493 45.2232ZM43.8477 46.0414L44.0136 46.6198L44.0573 46.6072L44.0987 46.5882L43.8477 46.0414ZM37.9045 46.526L37.9557 45.9266H37.9557L37.9045 46.526ZM36.7122 46.4265L36.7603 45.8268L36.723 45.8238L36.6856 45.8254L36.7122 46.4265ZM34.414 45.7286L33.9677 46.1321L34.0085 46.1773L34.0576 46.2133L34.414 45.7286ZM34.8449 42.4519L35.3954 42.6947H35.3954L34.8449 42.4519ZM35.1359 41.7818L35.6904 42.0153L36.0377 41.1906L35.1429 41.1802L35.1359 41.7818ZM25.9429 39.8686L25.3603 40.019L25.3793 40.0925L25.4159 40.159L25.9429 39.8686ZM25.1367 33.9605L25.7382 33.9493L25.738 33.9394L25.7375 33.9294L25.1367 33.9605ZM25.5819 23.7687L26.1777 23.8521L26.1792 23.8419L26.1802 23.8317L25.5819 23.7687ZM25.8226 21.8796L25.2275 21.791V21.791L25.8226 21.8796ZM25.8652 21.2699L25.2642 21.2428L25.8652 21.2699ZM26.3159 19.2083L25.9549 18.727L25.9207 18.7526L25.8905 18.7829L26.3159 19.2083ZM26.5581 19.137L26.6007 18.5369L26.6007 18.5369L26.5581 19.137ZM26.7877 19.2418L27.2132 18.8164L27.2132 18.8164L26.7877 19.2418ZM26.8926 19.4715L27.4927 19.4288V19.4288L26.8926 19.4715ZM26.8213 19.7137L26.34 19.3527L26.2688 19.4476L26.239 19.5625L26.8213 19.7137ZM26.5205 21.9518L27.1171 22.0291L27.1216 21.9946L27.1221 21.9597L26.5205 21.9518ZM26.4613 22.3834L25.8655 22.2994L26.4613 22.3834ZM26.3279 23.8048L26.9249 23.8795L26.9296 23.8423V23.8048H26.3279ZM26.3279 36.5596L25.7309 36.6342L25.8035 37.2145L26.3855 37.1585L26.3279 36.5596ZM27.7839 36.5596L27.7263 37.1585L27.7803 37.1637L27.8344 37.1591L27.7839 36.5596ZM49.6234 36.4513L49.5608 37.0497L49.5712 37.0508L49.5816 37.0515L49.6234 36.4513ZM49.6234 37.2695L49.593 37.8704L49.6082 37.8712H49.6234V37.2695ZM39.2354 37.2866L39.2196 36.6852L39.2354 37.2866ZM32.0195 37.3538L32.0395 36.7525L32.0261 36.752L32.0126 36.7522L32.0195 37.3538ZM26.6417 37.3331L26.6605 37.9344H26.6605L26.6417 37.3331ZM26.4844 37.3538L26.3993 36.7582L25.8396 36.8381L25.8846 37.4016L26.4844 37.3538ZM26.9055 39.3632L26.337 39.5602L26.3561 39.6152L26.3853 39.6655L26.9055 39.3632ZM51.8134 38.7135L52.1043 39.2401L52.3292 39.1159L52.395 38.8675L51.8134 38.7135ZM52.3549 35.224L51.7562 35.1648L51.7547 35.1796L51.754 35.1945L52.3549 35.224ZM52.2586 24.6712L51.6597 24.7296L51.6611 24.7413L52.2586 24.6712ZM52.1978 23.731L51.597 23.7635V23.7635L52.1978 23.731ZM51.669 20.4717L51.2921 20.9407L51.2932 20.9415L51.669 20.4717ZM43.9476 19.175L43.9375 19.7766L43.9476 19.175ZM41.742 19.112L41.7025 19.7124L41.7079 19.7127L41.742 19.112ZM32.5159 19.0886L32.5331 19.69L32.5159 19.0886ZM29.0233 19.1722V19.7739L29.032 19.7738L29.0233 19.1722ZM28.734 19.0524L28.3086 19.4778L28.3086 19.4778L28.734 19.0524ZM28.734 18.4738L28.3086 18.0484V18.0484L28.734 18.4738ZM29.0233 18.354V18.9556H29.032L29.0407 18.9554L29.0233 18.354ZM32.6954 18.2141L32.721 18.8152L32.6954 18.2141ZM41.7901 18.0652L41.8148 17.464L41.8124 17.464L41.7901 18.0652ZM44.0387 18.0954L44.0379 18.697L44.0387 18.0954ZM52.391 19.5091L52.7592 19.0333L52.7583 19.0326L52.391 19.5091ZM43.2701 44.9585H43.8718V44.227L43.154 44.3682L43.2701 44.9585ZM38.848 45.1999L38.8909 44.5998L38.848 45.1999ZM43.2701 44.9946H42.6685L43.8714 45.0165L43.2701 44.9946ZM42.8971 41.5291L43.4799 41.3798L43.3546 40.8907L42.8512 40.9293L42.8971 41.5291ZM35.882 41.7939V41.1922H35.4343L35.3057 41.621L35.882 41.7939ZM35.2057 44.9241L34.7531 45.3205L34.7531 45.3205L35.2057 44.9241ZM36.7724 45.0909L36.7874 44.4893L36.7793 44.4893L36.7724 45.0909ZM33.307 33.5513L32.7055 33.565L32.7066 33.6133L32.7153 33.6607L33.307 33.5513ZM33.431 33.7632L33.0462 34.2257L33.0462 34.2257L33.431 33.7632ZM36.5558 27.8117L36.8537 28.3344L37.6748 27.8665L36.9034 27.3206L36.5558 27.8117ZM35.2047 26.0817L35.7654 25.8635H35.7654L35.2047 26.0817ZM35.0308 23.8936L34.4427 23.7666L35.0308 23.8936ZM38.0358 20.953L38.15 21.5437L38.17 21.5398L38.1898 21.5346L38.0358 20.953ZM38.1875 20.9459L38.2863 20.3524L38.2863 20.3524L38.1875 20.9459ZM38.3286 21.0017L37.9946 21.5021L37.9946 21.5021L38.3286 21.0017ZM38.4343 21.1107L38.9446 20.7919L38.9446 20.7919L38.4343 21.1107ZM38.4859 21.2535L39.0821 21.1726L39.0821 21.1726L38.4859 21.2535ZM38.4742 21.4048L37.8975 21.2334V21.2334L38.4742 21.4048ZM38.4013 21.538L38.8566 21.9313L38.8566 21.9313L38.4013 21.538ZM38.2802 21.6294L38.0269 21.0837L38.0269 21.0837L38.2802 21.6294ZM38.1321 21.6629L38.1256 21.0613L38.0515 21.0621L37.9799 21.0809L38.1321 21.6629ZM36.5871 22.7132L36.1019 22.3575L36.1019 22.3575L36.5871 22.7132ZM36.0504 24.5027L35.4495 24.5326L35.4899 25.3413L36.2525 25.0694L36.0504 24.5027ZM37.6066 23.6118L37.941 24.112L37.6066 23.6118ZM40.4665 23.3716L41.0395 23.1882L41.037 23.1806L41.0344 23.173L40.4665 23.3716ZM40.4988 23.4869L41.081 23.335V23.335L40.4988 23.4869ZM41.4291 24.3342L41.6683 23.7821L41.6626 23.7797L41.4291 24.3342ZM41.7981 24.4709L41.6047 25.0406L41.6047 25.0406L41.7981 24.4709ZM42.3436 24.7433L41.8738 25.1192L42.3345 25.6951L42.8062 25.128L42.3436 24.7433ZM42.4038 24.6471L41.8627 24.384L41.8588 24.3919L41.8552 24.3999L42.4038 24.6471ZM41.2727 22.433L40.8727 22.8825L40.8916 22.8992L40.9117 22.9143L41.2727 22.433ZM40.1777 21.8314L40.3426 21.2528L40.2618 21.2297H40.1777V21.8314ZM41.5133 21.5185L41.208 22.037L41.236 22.0534L41.2656 22.0668L41.5133 21.5185ZM42.7848 22.4504L42.3366 22.8517V22.8517L42.7848 22.4504ZM43.5709 23.8168L44.1585 23.6873L44.1522 23.6588L44.1432 23.631L43.5709 23.8168ZM41.3208 27.6432L40.9929 27.1388L40.1192 27.7067L41.0479 28.1794L41.3208 27.6432ZM43.6642 29.9294L44.1934 29.6433V29.6433L43.6642 29.9294ZM44.2929 33.1422L43.6948 33.0768L43.6856 33.1613L43.7001 33.245L44.2929 33.1422ZM44.2848 33.3188L44.8656 33.4758L44.8656 33.4758L44.2848 33.3188ZM44.0624 33.583L44.3163 34.1285L44.3163 34.1285L44.0624 33.583ZM43.7172 33.583L43.4633 34.1285L43.4633 34.1285L43.7172 33.583ZM43.4867 33.1422L44.0795 33.245L44.0853 33.2118L44.0873 33.1782L43.4867 33.1422ZM39.8769 28.5457L39.9843 27.9537L39.9597 27.9492L39.9348 27.9468L39.8769 28.5457ZM34.5689 31.4877L35.1075 31.7559V31.7559L34.5689 31.4877ZM34.0169 33.5513L34.6085 33.6607L34.6152 33.6245L34.6174 33.5877L34.0169 33.5513ZM33.8928 33.7632L34.2776 34.2257L34.2776 34.2257L33.8928 33.7632ZM39.0225 24.3342H38.4209V25.3369L39.3057 24.8651L39.0225 24.3342ZM39.6983 24.3243L39.122 24.497V24.497L39.6983 24.3243ZM39.0225 24.3222H39.6242V23.298L38.7296 23.7967L39.0225 24.3222ZM36.1828 25.3089L36.0868 24.7149L35.3763 24.8298L35.6153 25.5087L36.1828 25.3089ZM41.8984 25.3811L42.3804 25.7411L42.9965 24.9163L41.9755 24.7844L41.8984 25.3811ZM40.31 24.9719L40.0832 25.5292L40.0893 25.5316L40.31 24.9719ZM54.0839 24.4357C54.0532 24.1618 54.0314 23.8247 54.0064 23.4367L52.8056 23.5139C52.83 23.8926 52.8535 24.2614 52.8881 24.5697L54.0839 24.4357ZM53.9843 38.1674C54.6865 33.614 54.7194 28.9824 54.0818 24.4195L52.8901 24.586C53.5114 29.0328 53.4794 33.5465 52.7951 37.984L53.9843 38.1674ZM51.2875 40.978C52.1744 40.7334 52.8294 40.4603 53.2713 39.9767C53.7199 39.4858 53.8682 38.8646 53.9832 38.1746L52.7963 37.9768C52.6826 38.6586 52.5722 38.958 52.383 39.165C52.1872 39.3793 51.8254 39.5814 50.9675 39.8181L51.2875 40.978ZM43.683 42.0813C46.233 41.912 48.7661 41.5455 51.2595 40.9851L50.9956 39.8111C48.5628 40.3578 46.0913 40.7155 43.6033 40.8807L43.683 42.0813ZM45.0508 45.2098C45.0203 43.8462 44.7305 42.5008 44.1968 41.2456L43.0895 41.7164C43.5634 42.8311 43.8208 44.0258 43.8478 45.2367L45.0508 45.2098ZM44.7391 46.0666C44.9048 45.8412 45.0105 45.5773 45.0461 45.2998L43.8526 45.1467C43.843 45.2216 43.8144 45.2929 43.7697 45.3538L44.7391 46.0666ZM44.0987 46.5882C44.353 46.4715 44.5734 46.292 44.7391 46.0666L43.7697 45.3538C43.7249 45.4147 43.6654 45.4631 43.5967 45.4947L44.0987 46.5882ZM37.8533 47.1255C39.1808 47.2389 40.0504 47.3146 40.9227 47.2567C41.8056 47.1982 42.6704 47.0051 44.0136 46.6198L43.6818 45.4631C42.3595 45.8424 41.5944 46.0062 40.843 46.0561C40.081 46.1067 39.3117 46.0424 37.9557 45.9266L37.8533 47.1255ZM36.6642 47.0262C37.1034 47.0614 37.4961 47.095 37.8533 47.1255L37.9557 45.9266C37.5987 45.8961 37.2031 45.8623 36.7603 45.8268L36.6642 47.0262ZM34.0576 46.2133C34.8322 46.7828 35.7784 47.0702 36.7389 47.0275L36.6856 45.8254C35.9995 45.8559 35.3237 45.6507 34.7704 45.2439L34.0576 46.2133ZM34.2945 42.2091C34.0083 42.8578 33.6999 43.5504 33.5648 44.1818C33.427 44.8261 33.4399 45.5483 33.9677 46.1321L34.8603 45.3251C34.7063 45.1548 34.6405 44.9056 34.7415 44.4335C34.8452 43.9486 35.0931 43.3799 35.3954 42.6947L34.2945 42.2091ZM34.5815 41.5484C34.4884 41.7693 34.3918 41.9885 34.2945 42.2091L35.3954 42.6947C35.492 42.4756 35.5928 42.2472 35.6904 42.0153L34.5815 41.5484ZM25.4159 40.159C25.7743 40.8093 26.5316 41.21 27.2992 41.4783C28.1 41.7583 29.0695 41.9465 30.0452 42.0759C32.0006 42.3353 34.087 42.3714 35.129 42.3834L35.1429 41.1802C34.1032 41.1682 32.0805 41.1321 30.2034 40.8831C29.2629 40.7583 28.3854 40.5833 27.6963 40.3425C26.9741 40.09 26.5988 39.8124 26.4698 39.5783L25.4159 40.159ZM24.5352 33.9717C24.5732 36.0128 24.8502 38.0424 25.3603 40.019L26.5254 39.7183C26.0387 37.8326 25.7745 35.8964 25.7382 33.9493L24.5352 33.9717ZM24.9861 23.6854C24.5086 27.0987 24.3579 30.5497 24.5359 33.9916L25.7375 33.9294C25.5635 30.564 25.7109 27.1896 26.1777 23.8521L24.9861 23.6854ZM25.2275 21.791C25.1422 22.3638 25.0568 23.0101 24.9836 23.7058L26.1802 23.8317C26.2514 23.1556 26.3345 22.5265 26.4176 21.9682L25.2275 21.791ZM25.2642 21.2428C25.2524 21.5051 25.2436 21.6829 25.2275 21.791L26.4176 21.9682C26.4451 21.7837 26.4557 21.5305 26.4663 21.297L25.2642 21.2428ZM25.8905 18.7829C25.5559 19.1175 25.4311 19.6303 25.3683 20.0165C25.2998 20.4369 25.2799 20.8945 25.2642 21.2428L26.4663 21.297C26.4826 20.9348 26.5007 20.5489 26.5559 20.2099C26.6167 19.8366 26.7012 19.6738 26.7413 19.6337L25.8905 18.7829ZM26.6007 18.5369C26.3696 18.5205 26.1403 18.588 25.9549 18.727L26.6769 19.6896C26.6305 19.7244 26.5732 19.7412 26.5154 19.7371L26.6007 18.5369ZM27.2132 18.8164C27.0493 18.6526 26.8319 18.5533 26.6007 18.5369L26.5154 19.7371C26.4577 19.733 26.4033 19.7082 26.3623 19.6673L27.2132 18.8164ZM27.4927 19.4288C27.4763 19.1977 27.377 18.9803 27.2132 18.8164L26.3623 19.6673C26.3214 19.6263 26.2966 19.5719 26.2924 19.5141L27.4927 19.4288ZM27.3026 20.0747C27.4416 19.8893 27.5091 19.66 27.4927 19.4288L26.2924 19.5141C26.2883 19.4564 26.3052 19.399 26.34 19.3527L27.3026 20.0747ZM27.1221 21.9597C27.1314 21.2527 27.2259 20.5493 27.4036 19.8649L26.239 19.5625C26.0369 20.3405 25.9295 21.1401 25.9189 21.9439L27.1221 21.9597ZM27.057 22.4674C27.0769 22.3264 27.0976 22.1796 27.1171 22.0291L25.9238 21.8744C25.9053 22.0172 25.8855 22.1575 25.8655 22.2994L27.057 22.4674ZM26.9296 23.8048C26.9296 23.3788 26.9876 22.9598 27.057 22.4674L25.8655 22.2994C25.7981 22.7779 25.7263 23.2804 25.7263 23.8048H26.9296ZM26.9249 36.485C26.4017 32.2994 26.4017 28.065 26.9249 23.8795L25.7309 23.7302C25.1954 28.0149 25.1954 32.3496 25.7309 36.6342L26.9249 36.485ZM27.8415 35.9607C27.319 35.9105 26.7929 35.9105 26.2703 35.9607L26.3855 37.1585C26.8314 37.1156 27.2804 37.1156 27.7263 37.1585L27.8415 35.9607ZM49.6861 35.8529C43.2033 35.1744 38.3273 35.0672 27.7334 35.9601L27.8344 37.1591C38.3701 36.2711 43.1685 36.3806 49.5608 37.0497L49.6861 35.8529ZM49.6234 37.8712C49.9232 37.8712 50.1819 37.7426 50.3571 37.5371C50.522 37.3437 50.5945 37.1061 50.5994 36.8875C50.6044 36.6682 50.5422 36.4251 50.3817 36.2217C50.2121 36.0067 49.9593 35.8716 49.6653 35.8511L49.5816 37.0515C49.5463 37.049 49.483 37.0253 49.4371 36.967C49.4004 36.9205 49.396 36.8797 49.3965 36.8604C49.3969 36.8419 49.4025 36.8021 49.4414 36.7565C49.4623 36.7319 49.4917 36.7078 49.5287 36.6905C49.5663 36.673 49.6003 36.6679 49.6234 36.6679V37.8712ZM39.2513 37.888C42.6528 37.7984 46.2856 37.703 49.593 37.8704L49.6539 36.6687C46.2917 36.4985 42.611 36.5958 39.2196 36.6852L39.2513 37.888ZM31.9994 37.9551C34.0812 38.0245 36.5994 37.9579 39.2513 37.888L39.2196 36.6852C36.5562 36.7553 34.0778 36.8204 32.0395 36.7525L31.9994 37.9551ZM26.6605 37.9344C26.6579 37.9345 26.6151 37.934 26.7807 37.9435C26.9005 37.9504 27.0967 37.9587 27.4461 37.9653C28.1435 37.9785 29.4634 37.9845 32.0263 37.9554L32.0126 36.7522C29.4537 36.7813 28.148 36.7751 27.4687 36.7623C27.1296 36.7559 26.9496 36.7479 26.8496 36.7422C26.7952 36.7391 26.6888 36.7297 26.6229 36.7317L26.6605 37.9344ZM26.5694 37.9494C26.5954 37.9457 26.6167 37.9425 26.6341 37.9399C26.6524 37.9372 26.6635 37.9355 26.6727 37.9342C26.6916 37.9316 26.6798 37.9338 26.6605 37.9344L26.6229 36.7317C26.5734 36.7333 26.5316 36.7389 26.5037 36.7429C26.4894 36.7449 26.4729 36.7474 26.4573 36.7497C26.4408 36.7522 26.4219 36.7549 26.3993 36.7582L26.5694 37.9494ZM27.474 39.1663C27.2657 38.5652 27.1347 37.94 27.0841 37.3059L25.8846 37.4016C25.9434 38.1374 26.0954 38.8628 26.337 39.5602L27.474 39.1663ZM51.5225 38.1868C51.2331 38.3467 50.6599 38.5307 49.8101 38.7151C48.9794 38.8953 47.9405 39.0647 46.7617 39.2166C44.4052 39.5204 41.5203 39.7508 38.6859 39.8631C35.8493 39.9754 33.0805 39.9687 30.9525 39.8024C29.8858 39.719 29.0016 39.5971 28.3575 39.4374C28.0346 39.3573 27.7929 39.2727 27.6258 39.1899C27.4466 39.1011 27.4168 39.0456 27.4257 39.061L26.3853 39.6655C26.5507 39.9501 26.829 40.138 27.0915 40.2681C27.3662 40.4042 27.6998 40.514 28.0679 40.6053C28.8055 40.7882 29.7649 40.9165 30.8588 41.002C33.0521 41.1734 35.8725 41.1787 38.7335 41.0654C41.5966 40.952 44.5176 40.7192 46.9155 40.41C48.1139 40.2556 49.1894 40.081 50.0653 39.891C50.9221 39.7051 51.6477 39.4924 52.1043 39.2401L51.5225 38.1868ZM51.754 35.1945C51.6983 36.3314 51.5233 37.4592 51.2318 38.5594L52.395 38.8675C52.708 37.6858 52.896 36.4744 52.9558 35.2534L51.754 35.1945ZM51.6611 24.7413C52.0669 28.2023 52.0988 31.697 51.7562 35.1648L52.9536 35.2831C53.3048 31.7293 53.2721 28.148 52.8562 24.6011L51.6611 24.7413ZM51.597 23.7635C51.6171 24.1352 51.6357 24.4826 51.6598 24.7296L52.8574 24.6128C52.8365 24.398 52.8193 24.082 52.7986 23.6986L51.597 23.7635ZM51.2932 20.9415C51.2403 20.8992 51.2343 20.8689 51.254 20.9094C51.2703 20.9427 51.2928 21.0013 51.3179 21.092C51.3681 21.2735 51.4122 21.5226 51.4496 21.8229C51.5243 22.4214 51.5634 23.1402 51.597 23.7635L52.7986 23.6986C52.7655 23.0857 52.7245 22.3224 52.6436 21.674C52.6033 21.3509 52.5507 21.0353 52.4776 20.7712C52.4411 20.6391 52.3954 20.5046 52.3357 20.3822C52.2794 20.2668 52.1899 20.118 52.0449 20.0019L51.2932 20.9415ZM43.9375 19.7766C45.3624 19.8004 46.8892 19.8266 48.2427 19.9913C49.6236 20.1593 50.6931 20.4592 51.2921 20.9407L52.0459 20.0028C51.1616 19.292 49.7882 18.9672 48.3881 18.7968C46.9606 18.6231 45.3684 18.5971 43.9577 18.5735L43.9375 19.7766ZM41.7079 19.7127C42.3755 19.7506 43.1422 19.7633 43.9375 19.7766L43.9577 18.5735C43.1555 18.5601 42.4148 18.5476 41.776 18.5114L41.7079 19.7127ZM32.5331 19.69C35.6011 19.6024 38.6918 19.5145 41.7025 19.7124L41.7814 18.5117C38.7044 18.3095 35.5566 18.3999 32.4987 18.4872L32.5331 19.69ZM29.032 19.7738C30.1879 19.757 31.3589 19.7236 32.5331 19.69L32.4987 18.4872C31.323 18.5208 30.1606 18.554 29.0146 18.5706L29.032 19.7738ZM28.3086 19.4778C28.4981 19.6674 28.7552 19.7738 29.0233 19.7738V18.5706C29.0743 18.5706 29.1233 18.5908 29.1594 18.627L28.3086 19.4778ZM28.0125 18.7631C28.0125 19.0312 28.119 19.2882 28.3086 19.4778L29.1594 18.627C29.1955 18.6631 29.2158 18.712 29.2158 18.7631H28.0125ZM28.3086 18.0484C28.119 18.2379 28.0125 18.495 28.0125 18.7631H29.2158C29.2158 18.8141 29.1955 18.8631 29.1594 18.8992L28.3086 18.0484ZM29.0233 17.7523C28.7552 17.7523 28.4981 17.8588 28.3086 18.0484L29.1594 18.8992C29.1233 18.9353 29.0743 18.9556 29.0233 18.9556V17.7523ZM32.6699 17.613C31.431 17.6657 30.2074 17.7178 29.0059 17.7526L29.0407 18.9554C30.2518 18.9203 31.4836 18.8678 32.721 18.8152L32.6699 17.613ZM41.8124 17.464C38.7967 17.3519 35.6879 17.4846 32.6699 17.613L32.721 18.8152C35.748 18.6864 38.8082 18.5565 41.7678 18.6664L41.8124 17.464ZM44.0396 17.4938C43.2336 17.4926 42.4823 17.4914 41.8148 17.4641L41.7654 18.6663C42.4614 18.6949 43.2381 18.6959 44.0379 18.697L44.0396 17.4938ZM52.7583 19.0326C51.714 18.2276 50.2386 17.8604 48.726 17.6798C47.1986 17.4975 45.5295 17.4959 44.0396 17.4938L44.0379 18.697C45.5428 18.6992 47.1389 18.7022 48.5834 18.8746C50.0428 19.0488 51.2461 19.3862 52.0237 19.9856L52.7583 19.0326ZM54.0064 23.4367C53.9602 22.718 53.9048 21.8413 53.754 21.0643C53.6783 20.6741 53.5748 20.2872 53.4253 19.9448C53.2773 19.6057 53.0679 19.2722 52.7592 19.0333L52.0228 19.9849C52.114 20.0555 52.2198 20.1907 52.3225 20.4261C52.4238 20.6581 52.5064 20.9513 52.5728 21.2935C52.7062 21.9812 52.7583 22.7781 52.8056 23.5139L54.0064 23.4367ZM43.154 44.3682C41.1486 44.7627 40.2627 44.6978 38.8909 44.5998L38.8051 45.8001C40.2313 45.9019 41.235 45.972 43.3862 45.5488L43.154 44.3682ZM43.8718 44.9946V44.9585H42.6685V44.9946H43.8718ZM42.3143 41.6785C42.5898 42.7539 42.7093 43.8633 42.6689 44.9727L43.8714 45.0165C43.9159 43.7918 43.7841 42.567 43.4799 41.3798L42.3143 41.6785ZM35.882 42.3955C38.304 42.3955 40.7258 42.2987 42.943 42.129L42.8512 40.9293C40.6644 41.0966 38.2731 41.1922 35.882 41.1922V42.3955ZM35.6583 44.5277C35.7359 44.6163 35.7184 44.6906 35.7199 44.6189C35.7215 44.5445 35.7413 44.4105 35.8003 44.176C35.9185 43.7056 36.1401 43.0271 36.4582 41.9667L35.3057 41.621C35.0019 42.6339 34.7603 43.3777 34.6333 43.8827C34.5697 44.1359 34.5215 44.3779 34.5169 44.5933C34.5122 44.8113 34.5504 45.0891 34.7531 45.3205L35.6583 44.5277ZM36.7793 44.4893C36.2906 44.4836 36.0006 44.4955 35.757 44.4823C35.6445 44.4762 35.591 44.4659 35.5699 44.4599C35.5537 44.4552 35.6047 44.4665 35.6583 44.5277L34.7531 45.3205C34.8994 45.4875 35.0812 45.5713 35.2369 45.6161C35.3877 45.6596 35.5472 45.6759 35.6918 45.6838C35.9623 45.6985 36.363 45.6878 36.7655 45.6925L36.7793 44.4893ZM38.8909 44.5998C38.3127 44.5585 37.6461 44.5109 36.7874 44.4894L36.7574 45.6923C37.5859 45.713 38.2286 45.7589 38.8051 45.8001L38.8909 44.5998ZM32.7153 33.6607C32.7562 33.8819 32.8733 34.0818 33.0462 34.2257L33.8159 33.3007C33.8591 33.3367 33.8883 33.3866 33.8986 33.4419L32.7153 33.6607ZM33.6169 29.9375C32.9916 31.0423 32.6766 32.2958 32.7055 33.565L33.9084 33.5376C33.8845 32.4854 34.1456 31.4462 34.6641 30.5302L33.6169 29.9375ZM36.258 27.2889C35.1549 27.9175 34.2423 28.8326 33.6169 29.9375L34.6641 30.5302C35.1826 29.6142 35.9392 28.8555 36.8537 28.3344L36.258 27.2889ZM34.644 26.2999C34.9579 27.1064 35.5019 27.8029 36.2083 28.3028L36.9034 27.3206C36.3895 26.9569 35.9937 26.4502 35.7654 25.8635L34.644 26.2999ZM34.4427 23.7666C34.2601 24.6126 34.3301 25.4935 34.644 26.2999L35.7654 25.8635C35.537 25.2768 35.4861 24.6359 35.6189 24.0205L34.4427 23.7666ZM35.6708 21.5418C35.0523 22.1471 34.6252 22.9207 34.4427 23.7666L35.6189 24.0205C35.7517 23.405 36.0624 22.8422 36.5124 22.4019L35.6708 21.5418ZM37.9217 20.3623C37.0721 20.5264 36.2893 20.9366 35.6708 21.5418L36.5124 22.4019C36.9623 21.9615 37.5318 21.6631 38.15 21.5437L37.9217 20.3623ZM38.2863 20.3524C38.1517 20.33 38.0139 20.3365 37.8819 20.3714L38.1898 21.5346C38.1568 21.5433 38.1223 21.5449 38.0887 21.5393L38.2863 20.3524ZM38.6627 20.5014C38.5492 20.4256 38.4209 20.3748 38.2863 20.3524L38.0887 21.5393C38.055 21.5337 38.0229 21.521 37.9946 21.5021L38.6627 20.5014ZM38.9446 20.7919C38.8723 20.6762 38.7762 20.5771 38.6627 20.5014L37.9946 21.5021C37.9662 21.4832 37.9422 21.4584 37.9241 21.4295L38.9446 20.7919ZM39.0821 21.1726C39.0638 21.0374 39.0169 20.9076 38.9446 20.7919L37.9241 21.4295C37.906 21.4005 37.8943 21.3681 37.8897 21.3343L39.0821 21.1726ZM39.0509 21.5762C39.0898 21.4454 39.1004 21.3078 39.0821 21.1726L37.8897 21.3343C37.8851 21.3005 37.8878 21.2661 37.8975 21.2334L39.0509 21.5762ZM38.8566 21.9313C38.9458 21.8281 39.012 21.707 39.0509 21.5762L37.8975 21.2334C37.9072 21.2007 37.9238 21.1704 37.9461 21.1446L38.8566 21.9313ZM38.5334 22.1751C38.6572 22.1177 38.7674 22.0346 38.8566 21.9313L37.9461 21.1446C37.9684 21.1188 37.9959 21.098 38.0269 21.0837L38.5334 22.1751ZM38.1386 22.2645C38.2751 22.263 38.4097 22.2326 38.5334 22.1751L38.0269 21.0837C38.0578 21.0693 38.0915 21.0617 38.1256 21.0613L38.1386 22.2645ZM37.0723 23.0689C37.3697 22.6632 37.7977 22.3723 38.2844 22.245L37.9799 21.0809C37.2258 21.2781 36.5627 21.7289 36.1019 22.3575L37.0723 23.0689ZM36.6513 24.4727C36.6263 23.9703 36.775 23.4746 37.0723 23.0689L36.1019 22.3575C35.6411 22.9861 35.4107 23.7542 35.4495 24.5326L36.6513 24.4727ZM37.2722 23.1117C36.7138 23.4851 36.2425 23.7954 35.8484 23.936L36.2525 25.0694C36.818 24.8677 37.4258 24.4565 37.941 24.112L37.2722 23.1117ZM41.0344 23.173C40.886 22.7485 40.646 22.3912 40.2691 22.1925C39.8932 21.9942 39.4953 22.0141 39.1599 22.0998C38.8278 22.1846 38.4962 22.3486 38.1921 22.5243C37.8845 22.702 37.5685 22.9136 37.2722 23.1117L37.941 24.112C38.2448 23.9089 38.5269 23.7205 38.794 23.5662C39.0645 23.41 39.2841 23.31 39.4577 23.2656C39.6281 23.2221 39.6905 23.2477 39.7078 23.2568C39.7241 23.2654 39.81 23.3171 39.8986 23.5702L41.0344 23.173ZM41.081 23.335C41.0716 23.2991 41.0577 23.2451 41.0395 23.1882L39.8935 23.5549C39.9001 23.5756 39.9061 23.5982 39.9167 23.6388L41.081 23.335ZM41.6626 23.7797C41.2977 23.6261 41.1752 23.5207 41.1365 23.4779C41.1173 23.4567 41.1122 23.4545 41.081 23.335L39.9167 23.6388C39.953 23.7778 40.0146 24.0316 40.2445 24.2855C40.4549 24.5179 40.7638 24.7069 41.1956 24.8887L41.6626 23.7797ZM41.9915 23.9012C41.8672 23.859 41.7636 23.8234 41.6683 23.7822L41.1899 24.8862C41.3377 24.9503 41.488 25.001 41.6047 25.0406L41.9915 23.9012ZM42.8134 24.3675C42.6753 24.1949 42.4927 24.0992 42.373 24.0447C42.2455 23.9868 42.1024 23.9388 41.9915 23.9012L41.6047 25.0406C41.7313 25.0836 41.813 25.1119 41.875 25.1401C41.8885 25.1463 41.8986 25.1513 41.9058 25.1552C41.9094 25.1572 41.912 25.1587 41.9138 25.1597C41.9156 25.1608 41.9164 25.1614 41.9164 25.1613C41.9163 25.1613 41.9153 25.1606 41.9134 25.1592C41.9115 25.1577 41.9086 25.1554 41.9049 25.1521C41.8976 25.1457 41.8864 25.1349 41.8738 25.1192L42.8134 24.3675ZM41.8552 24.3999C41.8619 24.385 41.8706 24.3711 41.881 24.3586L42.8062 25.128C42.8652 25.0571 42.9143 24.9784 42.9523 24.8942L41.8552 24.3999ZM40.9117 22.9143C41.2852 23.1944 41.6002 23.4784 41.7784 23.7565C41.9409 24.0098 41.9555 24.1931 41.8627 24.384L42.9449 24.9101C43.2732 24.2347 43.1073 23.5997 42.7914 23.107C42.4914 22.6391 42.0303 22.2492 41.6337 21.9517L40.9117 22.9143ZM40.0127 22.41C40.3313 22.5008 40.6253 22.6623 40.8727 22.8825L41.6726 21.9835C41.2899 21.643 40.8353 21.3932 40.3426 21.2528L40.0127 22.41ZM41.8186 21.0001C41.2465 20.6632 40.7689 20.4754 40.3728 20.4314C39.9716 20.3867 39.5237 20.4887 39.2878 20.8939C39.0789 21.2525 39.1628 21.6466 39.303 21.897C39.4471 22.1544 39.747 22.433 40.1777 22.433V21.2297C40.2394 21.2297 40.2869 21.251 40.3142 21.2697C40.3389 21.2867 40.3491 21.3024 40.353 21.3093C40.3568 21.3161 40.3634 21.3302 40.3651 21.3561C40.3669 21.3829 40.3637 21.4374 40.3276 21.4994C40.23 21.667 40.0935 21.611 40.2398 21.6273C40.3911 21.6441 40.6973 21.7362 41.208 22.037L41.8186 21.0001ZM43.2331 22.0491C42.8229 21.5909 42.3215 21.2234 41.761 20.9702L41.2656 22.0668C41.6734 22.251 42.0381 22.5183 42.3366 22.8517L43.2331 22.0491ZM44.1432 23.631C43.9533 23.0461 43.6433 22.5073 43.2331 22.0491L42.3366 22.8517C42.635 23.185 42.8605 23.577 42.9987 24.0026L44.1432 23.631ZM41.6487 28.1477C42.3135 27.7155 43.0156 27.0571 43.516 26.3014C44.0096 25.5561 44.365 24.6246 44.1585 23.6873L42.9834 23.9463C43.0897 24.4288 42.9217 25.0195 42.5128 25.637C42.1108 26.244 41.5314 26.7888 40.9929 27.1388L41.6487 28.1477ZM44.1934 29.6433C43.6045 28.5535 42.6977 27.6689 41.5937 27.107L41.0479 28.1794C41.9341 28.6305 42.6621 29.3406 43.1349 30.2154L44.1934 29.6433ZM44.891 33.2077C45.0257 31.9763 44.7824 30.733 44.1934 29.6433L43.1349 30.2154C43.6077 31.0902 43.803 32.0883 43.6948 33.0768L44.891 33.2077ZM44.8656 33.4758C44.904 33.3335 44.9109 33.1846 44.8857 33.0394L43.7001 33.245C43.6953 33.2174 43.6966 33.189 43.7039 33.1619L44.8656 33.4758ZM44.6632 33.8629C44.758 33.7502 44.8271 33.618 44.8656 33.4758L43.704 33.1619C43.7113 33.1348 43.7244 33.1096 43.7425 33.0882L44.6632 33.8629ZM44.3163 34.1285C44.4499 34.0663 44.5683 33.9756 44.6632 33.8629L43.7425 33.0882C43.7606 33.0667 43.7831 33.0494 43.8086 33.0376L44.3163 34.1285ZM43.8898 34.2229C44.0372 34.2229 44.1827 34.1907 44.3163 34.1285L43.8086 33.0376C43.834 33.0257 43.8617 33.0196 43.8898 33.0196V34.2229ZM43.4633 34.1285C43.5969 34.1907 43.7424 34.2229 43.8898 34.2229V33.0196C43.9179 33.0196 43.9456 33.0257 43.971 33.0376L43.4633 34.1285ZM43.1164 33.8629C43.2113 33.9756 43.3297 34.0663 43.4633 34.1285L43.971 33.0376C43.9965 33.0494 44.019 33.0667 44.0371 33.0882L43.1164 33.8629ZM42.914 33.4758C42.9525 33.618 43.0216 33.7502 43.1164 33.8629L44.0371 33.0882C44.0552 33.1096 44.0683 33.1348 44.0757 33.1619L42.914 33.4758ZM42.8939 33.0394C42.8687 33.1846 42.8756 33.3335 42.914 33.4758L44.0757 33.1619C44.083 33.189 44.0843 33.2173 44.0795 33.245L42.8939 33.0394ZM42.081 30.5304C42.6553 31.2617 42.9417 32.1781 42.8861 33.1062L44.0873 33.1782C44.1605 31.9563 43.7834 30.7499 43.0273 29.7872L42.081 30.5304ZM39.7695 29.1377C40.6843 29.3037 41.5067 29.7992 42.081 30.5304L43.0273 29.7872C42.2713 28.8246 41.1887 28.1723 39.9843 27.9537L39.7695 29.1377ZM37.9331 29.3422C38.5421 29.1503 39.1835 29.0831 39.819 29.1445L39.9348 27.9468C39.1383 27.8698 38.3346 27.9541 37.5714 28.1946L37.9331 29.3422ZM36.2746 30.2615C36.7601 29.8468 37.3241 29.5342 37.9331 29.3422L37.5714 28.1946C36.8083 28.4351 36.1015 28.8269 35.4931 29.3466L36.2746 30.2615ZM35.1075 31.7559C35.3922 31.1845 35.7891 30.6762 36.2746 30.2615L35.4931 29.3466C34.8847 29.8663 34.3872 30.5032 34.0304 31.2194L35.1075 31.7559ZM34.6174 33.5877C34.6561 32.9504 34.8227 32.3274 35.1075 31.7559L34.0304 31.2194C33.6736 31.9355 33.4648 32.7162 33.4164 33.5149L34.6174 33.5877ZM34.2776 34.2257C34.4505 34.0818 34.5676 33.8819 34.6085 33.6607L33.4253 33.4419C33.4355 33.3866 33.4648 33.3367 33.508 33.3007L34.2776 34.2257ZM33.6619 34.4483C33.8869 34.4483 34.1047 34.3695 34.2776 34.2257L33.508 33.3007C33.5512 33.2647 33.6057 33.245 33.6619 33.245V34.4483ZM33.0462 34.2257C33.2191 34.3695 33.437 34.4483 33.6619 34.4483V33.245C33.7182 33.245 33.7726 33.2647 33.8158 33.3007L33.0462 34.2257ZM39.3057 24.8651C39.4444 24.7911 39.5287 24.7525 39.5778 24.7341C39.6013 24.7252 39.6055 24.7253 39.5955 24.7273C39.5863 24.7292 39.547 24.7364 39.489 24.73C39.4252 24.7228 39.3479 24.6999 39.2734 24.6494C39.2015 24.6007 39.1586 24.5444 39.1359 24.5075C39.1152 24.474 39.1073 24.4501 39.1087 24.4539C39.1102 24.4581 39.1128 24.4664 39.122 24.497L40.2746 24.1515C40.2666 24.1249 40.2314 23.9916 40.1601 23.876C40.057 23.7087 39.8765 23.5625 39.6227 23.5341C39.4328 23.5129 39.2622 23.5672 39.1542 23.6078C39.0318 23.6538 38.8933 23.7213 38.7394 23.8033L39.3057 24.8651ZM38.4209 24.3222V24.3342H39.6242V24.3222H38.4209ZM36.2788 25.9028C37.3447 25.7305 38.3724 25.3734 39.3155 24.8477L38.7296 23.7967C37.9088 24.2542 37.0144 24.565 36.0868 24.7149L36.2788 25.9028ZM41.4164 25.021C40.7558 25.9052 39.7174 26.4332 38.781 26.472C37.8826 26.5093 37.1018 26.1073 36.7503 25.109L35.6153 25.5087C36.1663 27.0734 37.4792 27.7303 38.8309 27.6743C40.1447 27.6198 41.5128 26.9025 42.3804 25.7411L41.4164 25.021ZM40.0893 25.5316C40.646 25.7512 41.2278 25.901 41.8213 25.9777L41.9755 24.7844C41.4804 24.7204 40.9952 24.5954 40.5308 24.4123L40.0893 25.5316ZM39.122 24.497C39.15 24.5902 39.2084 24.7969 39.3658 25.0058C39.5277 25.2206 39.7611 25.3981 40.0833 25.5292L40.5368 24.4147C40.3834 24.3522 40.3382 24.2968 40.3267 24.2816C40.3108 24.2604 40.3012 24.2401 40.2746 24.1515L39.122 24.497Z" fill="white" mask="url(#path-2-outside-1_2142_93921)"></path><path d="M76.067 20.5984C76.067 21.706 75.867 22.6632 75.467 23.4699C75.0671 24.2767 74.5184 24.8988 73.8211 25.3364C73.1237 25.7739 72.3272 25.9927 71.4316 25.9927C70.536 25.9927 69.7395 25.7739 69.0421 25.3364C68.3448 24.8988 67.7961 24.2767 67.3962 23.4699C66.9962 22.6632 66.7963 21.706 66.7963 20.5984C66.7963 19.4909 66.9962 18.5337 67.3962 17.727C67.7961 16.9202 68.3448 16.2981 69.0421 15.8605C69.7395 15.423 70.536 15.2042 71.4316 15.2042C72.3272 15.2042 73.1237 15.423 73.8211 15.8605C74.5184 16.2981 75.0671 16.9202 75.467 17.727C75.867 18.5337 76.067 19.4909 76.067 20.5984ZM74.8364 20.5984C74.8364 19.6891 74.6842 18.9217 74.38 18.2961C74.0792 17.6706 73.6707 17.1971 73.1545 16.8758C72.6417 16.5545 72.0674 16.3938 71.4316 16.3938C70.7958 16.3938 70.2198 16.5545 69.7036 16.8758C69.1908 17.1971 68.7823 17.6706 68.4781 18.2961C68.1773 18.9217 68.0269 19.6891 68.0269 20.5984C68.0269 21.5077 68.1773 22.2752 68.4781 22.9007C68.7823 23.5263 69.1908 23.9998 69.7036 24.3211C70.2198 24.6424 70.7958 24.8031 71.4316 24.8031C72.0674 24.8031 72.6417 24.6424 73.1545 24.3211C73.6707 23.9998 74.0792 23.5263 74.38 22.9007C74.6842 22.2752 74.8364 21.5077 74.8364 20.5984ZM79.2512 21.1112V25.8491H78.0411V17.9731H79.2102V19.2037H79.3128C79.4974 18.8038 79.7777 18.4824 80.1537 18.2397C80.5297 17.9936 81.0151 17.8706 81.6099 17.8706C82.1432 17.8706 82.6098 17.9799 83.0098 18.1987C83.4097 18.4141 83.7208 18.7422 83.943 19.1832C84.1652 19.6208 84.2763 20.1746 84.2763 20.8446V25.8491H83.0662V20.9266C83.0662 20.3079 82.9055 19.8259 82.5842 19.4806C82.2628 19.1319 81.8219 18.9576 81.2613 18.9576C80.875 18.9576 80.5297 19.0414 80.2255 19.2089C79.9247 19.3764 79.6871 19.6208 79.5127 19.9421C79.3384 20.2634 79.2512 20.6531 79.2512 21.1112ZM87.6977 15.3478V25.8491H86.4876V15.3478H87.6977ZM90.6935 28.8026C90.4884 28.8026 90.3055 28.7855 90.1448 28.7514C89.9842 28.7206 89.8731 28.6898 89.8116 28.6591L90.1192 27.5925C90.4132 27.6677 90.673 27.6951 90.8986 27.6746C91.1242 27.654 91.3242 27.5532 91.4985 27.372C91.6763 27.1943 91.8387 26.9054 91.9857 26.5055L92.2113 25.8901L89.2988 17.9731H90.6115L92.7856 24.2493H92.8676L95.0417 17.9731H96.3544L93.0112 26.9977C92.8608 27.4045 92.6745 27.7412 92.4523 28.0078C92.2301 28.2779 91.972 28.4779 91.678 28.6078C91.3874 28.7377 91.0593 28.8026 90.6935 28.8026ZM102.177 25.8491V15.3478H108.474V16.4758H103.448V20.0242H108.002V21.1522H103.448V25.8491H102.177ZM113.109 26.0132C112.398 26.0132 111.774 25.844 111.237 25.5056C110.704 25.1671 110.287 24.6937 109.986 24.0852C109.689 23.4767 109.54 22.7657 109.54 21.9521C109.54 21.1317 109.689 20.4156 109.986 19.8037C110.287 19.1918 110.704 18.7166 111.237 18.3782C111.774 18.0398 112.398 17.8706 113.109 17.8706C113.82 17.8706 114.442 18.0398 114.975 18.3782C115.512 18.7166 115.929 19.1918 116.226 19.8037C116.527 20.4156 116.678 21.1317 116.678 21.9521C116.678 22.7657 116.527 23.4767 116.226 24.0852C115.929 24.6937 115.512 25.1671 114.975 25.5056C114.442 25.844 113.82 26.0132 113.109 26.0132ZM113.109 24.9262C113.649 24.9262 114.093 24.7877 114.442 24.5108C114.791 24.2339 115.049 23.8699 115.216 23.4186C115.384 22.9674 115.468 22.4786 115.468 21.9521C115.468 21.4257 115.384 20.9352 115.216 20.4805C115.049 20.0259 114.791 19.6584 114.442 19.3781C114.093 19.0978 113.649 18.9576 113.109 18.9576C112.569 18.9576 112.124 19.0978 111.776 19.3781C111.427 19.6584 111.169 20.0259 111.001 20.4805C110.834 20.9352 110.75 21.4257 110.75 21.9521C110.75 22.4786 110.834 22.9674 111.001 23.4186C111.169 23.8699 111.427 24.2339 111.776 24.5108C112.124 24.7877 112.569 24.9262 113.109 24.9262ZM118.525 25.8491V17.9731H119.694V19.1627H119.776C119.92 18.773 120.179 18.4568 120.555 18.2141C120.931 17.9714 121.355 17.85 121.827 17.85C121.916 17.85 122.027 17.8518 122.16 17.8552C122.294 17.8586 122.395 17.8637 122.463 17.8706V19.1012C122.422 19.0909 122.328 19.0755 122.181 19.055C122.037 19.0311 121.885 19.0191 121.725 19.0191C121.342 19.0191 121 19.0995 120.699 19.2601C120.402 19.4174 120.166 19.6362 119.991 19.9165C119.82 20.1934 119.735 20.5096 119.735 20.8651V25.8491H118.525ZM131.363 25.8491H128.123V15.3478H131.507C132.525 15.3478 133.397 15.558 134.122 15.9785C134.847 16.3955 135.402 16.9954 135.788 17.7783C136.175 18.5577 136.368 19.4909 136.368 20.5779C136.368 21.6718 136.173 22.6136 135.783 23.4032C135.393 24.1895 134.826 24.7945 134.081 25.2184C133.336 25.6389 132.43 25.8491 131.363 25.8491ZM129.394 24.721H131.281C132.149 24.721 132.869 24.5535 133.44 24.2185C134.011 23.8835 134.436 23.4067 134.717 22.7879C134.997 22.1692 135.137 21.4325 135.137 20.5779C135.137 19.7302 134.999 19.0003 134.722 18.3884C134.445 17.7731 134.031 17.3014 133.481 16.9732C132.931 16.6416 132.245 16.4758 131.425 16.4758H129.394V24.721ZM141.639 26.0132C140.88 26.0132 140.225 25.8457 139.675 25.5107C139.128 25.1723 138.706 24.7005 138.409 24.0955C138.115 23.487 137.968 22.7794 137.968 21.9726C137.968 21.1659 138.115 20.4549 138.409 19.8396C138.706 19.2208 139.12 18.7388 139.649 18.3936C140.183 18.0449 140.805 17.8706 141.516 17.8706C141.926 17.8706 142.331 17.9389 142.731 18.0757C143.131 18.2124 143.495 18.4346 143.823 18.7422C144.151 19.0465 144.413 19.4499 144.608 19.9524C144.803 20.4549 144.9 21.0736 144.9 21.8086V22.3213H138.829V21.2753H143.669C143.669 20.8309 143.581 20.4344 143.403 20.0857C143.228 19.737 142.979 19.4618 142.654 19.2601C142.333 19.0585 141.953 18.9576 141.516 18.9576C141.034 18.9576 140.617 19.0773 140.265 19.3165C139.916 19.5524 139.648 19.8601 139.46 20.2395C139.272 20.619 139.178 21.0257 139.178 21.4599V22.1572C139.178 22.752 139.28 23.2563 139.485 23.6699C139.694 24.0801 139.983 24.3929 140.352 24.6082C140.721 24.8202 141.15 24.9262 141.639 24.9262C141.957 24.9262 142.244 24.8817 142.5 24.7928C142.76 24.7005 142.984 24.5638 143.172 24.3826C143.36 24.198 143.505 23.969 143.608 23.6955L144.777 24.0237C144.654 24.4202 144.447 24.7689 144.157 25.0697C143.866 25.3671 143.507 25.5996 143.08 25.7671C142.652 25.9312 142.172 26.0132 141.639 26.0132ZM152.32 19.737L151.233 20.0447C151.164 19.8635 151.063 19.6874 150.93 19.5165C150.8 19.3422 150.622 19.1986 150.397 19.0858C150.171 18.973 149.882 18.9166 149.53 18.9166C149.048 18.9166 148.647 19.0277 148.325 19.2499C148.007 19.4687 147.848 19.7473 147.848 20.0857C147.848 20.3865 147.958 20.6241 148.177 20.7984C148.395 20.9728 148.737 21.118 149.202 21.2343L150.371 21.5214C151.075 21.6923 151.6 21.9538 151.945 22.3059C152.291 22.6546 152.463 23.1041 152.463 23.6545C152.463 24.1057 152.333 24.5091 152.074 24.8646C151.817 25.2201 151.458 25.5004 150.997 25.7055C150.535 25.9107 149.999 26.0132 149.387 26.0132C148.583 26.0132 147.919 25.8389 147.392 25.4902C146.866 25.1415 146.532 24.6322 146.392 23.9622L147.541 23.675C147.65 24.0989 147.857 24.4168 148.161 24.6287C148.469 24.8407 148.871 24.9467 149.366 24.9467C149.93 24.9467 150.378 24.827 150.71 24.5877C151.045 24.345 151.212 24.0545 151.212 23.716C151.212 23.4426 151.116 23.2135 150.925 23.0289C150.734 22.8409 150.44 22.7008 150.043 22.6085L148.73 22.3008C148.009 22.1299 147.479 21.865 147.141 21.506C146.806 21.1437 146.638 20.6907 146.638 20.1472C146.638 19.7028 146.763 19.3097 147.013 18.9679C147.266 18.626 147.609 18.3577 148.043 18.1628C148.481 17.968 148.977 17.8706 149.53 17.8706C150.31 17.8706 150.922 18.0415 151.366 18.3833C151.814 18.7252 152.132 19.1764 152.32 19.737ZM155.413 22.9777L155.392 21.4804H155.639L159.084 17.9731H160.582L156.91 21.6855H156.808L155.413 22.9777ZM154.285 25.8491V15.3478H155.495V25.8491H154.285ZM159.289 25.8491L156.213 21.9521L157.074 21.1112L160.828 25.8491H159.289ZM165.564 17.9731V18.9986H161.483V17.9731H165.564ZM162.672 16.0861H163.883V23.593C163.883 23.9348 163.932 24.1912 164.031 24.3621C164.134 24.5296 164.264 24.6424 164.421 24.7005C164.582 24.7552 164.751 24.7826 164.929 24.7826C165.062 24.7826 165.171 24.7757 165.257 24.7621C165.342 24.745 165.411 24.7313 165.462 24.721L165.708 25.8081C165.626 25.8389 165.511 25.8696 165.364 25.9004C165.217 25.9346 165.031 25.9517 164.805 25.9517C164.464 25.9517 164.129 25.8782 163.8 25.7312C163.476 25.5842 163.206 25.3603 162.99 25.0595C162.778 24.7586 162.672 24.3792 162.672 23.9211V16.0861ZM170.5 26.0132C169.789 26.0132 169.165 25.844 168.628 25.5056C168.095 25.1671 167.678 24.6937 167.377 24.0852C167.08 23.4767 166.931 22.7657 166.931 21.9521C166.931 21.1317 167.08 20.4156 167.377 19.8037C167.678 19.1918 168.095 18.7166 168.628 18.3782C169.165 18.0398 169.789 17.8706 170.5 17.8706C171.211 17.8706 171.833 18.0398 172.366 18.3782C172.903 18.7166 173.32 19.1918 173.617 19.8037C173.918 20.4156 174.069 21.1317 174.069 21.9521C174.069 22.7657 173.918 23.4767 173.617 24.0852C173.32 24.6937 172.903 25.1671 172.366 25.5056C171.833 25.844 171.211 26.0132 170.5 26.0132ZM170.5 24.9262C171.04 24.9262 171.484 24.7877 171.833 24.5108C172.182 24.2339 172.44 23.8699 172.607 23.4186C172.775 22.9674 172.858 22.4786 172.858 21.9521C172.858 21.4257 172.775 20.9352 172.607 20.4805C172.44 20.0259 172.182 19.6584 171.833 19.3781C171.484 19.0978 171.04 18.9576 170.5 18.9576C169.96 18.9576 169.515 19.0978 169.167 19.3781C168.818 19.6584 168.56 20.0259 168.392 20.4805C168.225 20.9352 168.141 21.4257 168.141 21.9521C168.141 22.4786 168.225 22.9674 168.392 23.4186C168.56 23.8699 168.818 24.2339 169.167 24.5108C169.515 24.7877 169.96 24.9262 170.5 24.9262ZM175.916 28.8026V17.9731H177.085V19.2242H177.228C177.317 19.0875 177.44 18.9132 177.598 18.7012C177.758 18.4859 177.987 18.2944 178.285 18.1269C178.586 17.956 178.992 17.8706 179.505 17.8706C180.168 17.8706 180.753 18.0363 181.259 18.3679C181.765 18.6995 182.159 19.1695 182.443 19.778C182.727 20.3865 182.869 21.1044 182.869 21.9316C182.869 22.7657 182.727 23.4887 182.443 24.1006C182.159 24.7091 181.766 25.1808 181.264 25.5158C180.761 25.8474 180.182 26.0132 179.526 26.0132C179.02 26.0132 178.615 25.9295 178.31 25.762C178.006 25.591 177.772 25.3979 177.608 25.1825C177.444 24.9638 177.317 24.7826 177.228 24.639H177.126V28.8026H175.916ZM177.105 21.9111C177.105 22.5059 177.193 23.0306 177.367 23.4853C177.541 23.9365 177.796 24.2903 178.131 24.5467C178.466 24.7997 178.876 24.9262 179.361 24.9262C179.867 24.9262 180.29 24.7928 180.628 24.5262C180.97 24.2561 181.226 23.8938 181.397 23.4391C181.571 22.9811 181.659 22.4717 181.659 21.9111C181.659 21.3573 181.573 20.8582 181.402 20.4138C181.235 19.966 180.98 19.6122 180.638 19.3524C180.3 19.0892 179.874 18.9576 179.361 18.9576C178.869 18.9576 178.456 19.0824 178.121 19.3319C177.786 19.578 177.533 19.9233 177.362 20.3677C177.191 20.8087 177.105 21.3231 177.105 21.9111ZM69.5652 49.8491H66.3929L71.2265 35.8473H75.0415L79.8683 49.8491H76.696L73.1887 39.0469H73.0793L69.5652 49.8491ZM69.3669 44.3455H76.8601V46.6563H69.3669V44.3455ZM85.7548 50.0542C84.6791 50.0542 83.7538 49.8263 82.979 49.3705C82.2087 48.9102 81.6162 48.2721 81.2014 47.4562C80.7912 46.6404 80.5861 45.7015 80.5861 44.6395C80.5861 43.5638 80.7935 42.6203 81.2083 41.809C81.6276 40.9932 82.2224 40.3573 82.9927 39.9015C83.763 39.4412 84.6791 39.211 85.7411 39.211C86.6572 39.211 87.4594 39.3774 88.1476 39.7101C88.8359 40.0428 89.3805 40.51 89.7816 41.1117C90.1827 41.7133 90.4038 42.4198 90.4448 43.2311H87.6964C87.6189 42.7069 87.4138 42.2853 87.0811 41.9663C86.7529 41.6427 86.3222 41.4809 85.7889 41.4809C85.3377 41.4809 84.9434 41.6039 84.6062 41.85C84.2734 42.0916 84.0136 42.4448 83.8268 42.9098C83.6399 43.3747 83.5465 43.9376 83.5465 44.5984C83.5465 45.2685 83.6376 45.8382 83.8199 46.3076C84.0068 46.7771 84.2689 47.1349 84.6062 47.381C84.9434 47.6272 85.3377 47.7502 85.7889 47.7502C86.1217 47.7502 86.4202 47.6818 86.6846 47.5451C86.9535 47.4084 87.1745 47.2101 87.3477 46.9503C87.5255 46.686 87.6417 46.3692 87.6964 46H90.4448C90.3992 46.8022 90.1805 47.5087 89.7885 48.1194C89.4011 48.7256 88.8655 49.1996 88.1818 49.5415C87.4981 49.8833 86.6891 50.0542 85.7548 50.0542ZM97.0543 50.0542C95.9786 50.0542 95.0534 49.8263 94.2786 49.3705C93.5083 48.9102 92.9158 48.2721 92.501 47.4562C92.0908 46.6404 91.8857 45.7015 91.8857 44.6395C91.8857 43.5638 92.0931 42.6203 92.5078 41.809C92.9271 40.9932 93.5219 40.3573 94.2922 39.9015C95.0625 39.4412 95.9786 39.211 97.0406 39.211C97.9568 39.211 98.759 39.3774 99.4472 39.7101C100.135 40.0428 100.68 40.51 101.081 41.1117C101.482 41.7133 101.703 42.4198 101.744 43.2311H98.996C98.9185 42.7069 98.7134 42.2853 98.3806 41.9663C98.0525 41.6427 97.6218 41.4809 97.0885 41.4809C96.6373 41.4809 96.243 41.6039 95.9057 41.85C95.573 42.0916 95.3132 42.4448 95.1263 42.9098C94.9394 43.3747 94.846 43.9376 94.846 44.5984C94.846 45.2685 94.9372 45.8382 95.1195 46.3076C95.3064 46.7771 95.5684 47.1349 95.9057 47.381C96.243 47.6272 96.6373 47.7502 97.0885 47.7502C97.4212 47.7502 97.7198 47.6818 97.9841 47.5451C98.253 47.4084 98.4741 47.2101 98.6473 46.9503C98.825 46.686 98.9413 46.3692 98.996 46H101.744C101.699 46.8022 101.48 47.5087 101.088 48.1194C100.701 48.7256 100.165 49.1996 99.4814 49.5415C98.7977 49.8833 97.9887 50.0542 97.0543 50.0542ZM108.395 50.0542C107.315 50.0542 106.385 49.8354 105.605 49.3979C104.831 48.9558 104.234 48.3313 103.814 47.5246C103.395 46.7133 103.185 45.7539 103.185 44.6463C103.185 43.5661 103.395 42.618 103.814 41.8022C104.234 40.9863 104.824 40.3505 105.585 39.8947C106.351 39.4389 107.249 39.211 108.279 39.211C108.971 39.211 109.616 39.3227 110.213 39.546C110.815 39.7648 111.339 40.0953 111.786 40.5374C112.237 40.9795 112.588 41.5355 112.839 42.2056C113.089 42.871 113.215 43.6504 113.215 44.5437V45.3437H104.347V43.5387H110.473C110.473 43.1194 110.382 42.7479 110.2 42.4243C110.017 42.1007 109.765 41.8478 109.441 41.6654C109.122 41.4786 108.75 41.3851 108.327 41.3851C107.884 41.3851 107.492 41.4877 107.151 41.6928C106.813 41.8933 106.549 42.1645 106.358 42.5064C106.166 42.8437 106.068 43.2197 106.064 43.6345V45.3505C106.064 45.8701 106.159 46.319 106.351 46.6973C106.547 47.0757 106.822 47.3674 107.178 47.5725C107.533 47.7776 107.955 47.8801 108.443 47.8801C108.766 47.8801 109.063 47.8345 109.332 47.7434C109.6 47.6522 109.831 47.5155 110.022 47.3332C110.213 47.1509 110.359 46.9275 110.46 46.6632L113.153 46.8409C113.017 47.4881 112.736 48.0533 112.312 48.5365C111.893 49.015 111.351 49.3888 110.685 49.6577C110.024 49.922 109.261 50.0542 108.395 50.0542ZM123.853 42.3423L121.187 42.5064C121.141 42.2785 121.043 42.0734 120.893 41.8911C120.742 41.7042 120.544 41.5561 120.298 41.4467C120.056 41.3327 119.767 41.2758 119.43 41.2758C118.978 41.2758 118.598 41.3715 118.288 41.5629C117.978 41.7498 117.823 42.0005 117.823 42.3149C117.823 42.5656 117.923 42.7776 118.124 42.9508C118.324 43.124 118.668 43.263 119.156 43.3678L121.057 43.7507C122.078 43.9603 122.839 44.2976 123.34 44.7625C123.842 45.2274 124.092 45.8382 124.092 46.5948C124.092 47.283 123.889 47.887 123.484 48.4066C123.083 48.9262 122.531 49.3318 121.829 49.6235C121.132 49.9107 120.327 50.0542 119.416 50.0542C118.026 50.0542 116.918 49.7648 116.093 49.1859C115.273 48.6025 114.792 47.8095 114.651 46.8067L117.515 46.6563C117.602 47.0802 117.811 47.4038 118.144 47.6272C118.477 47.8459 118.903 47.9553 119.423 47.9553C119.933 47.9553 120.343 47.8573 120.653 47.6613C120.968 47.4608 121.127 47.2033 121.132 46.8888C121.127 46.6244 121.016 46.4079 120.797 46.2393C120.578 46.0661 120.241 45.9339 119.785 45.8427L117.966 45.4804C116.941 45.2753 116.177 44.9198 115.676 44.4139C115.179 43.9079 114.931 43.263 114.931 42.479C114.931 41.8045 115.113 41.2233 115.478 40.7356C115.847 40.2479 116.364 39.8719 117.03 39.6076C117.7 39.3432 118.484 39.211 119.382 39.211C120.708 39.211 121.752 39.4913 122.513 40.052C123.279 40.6126 123.725 41.376 123.853 42.3423ZM134.664 42.3423L131.997 42.5064C131.952 42.2785 131.854 42.0734 131.703 41.8911C131.553 41.7042 131.355 41.5561 131.108 41.4467C130.867 41.3327 130.578 41.2758 130.24 41.2758C129.789 41.2758 129.408 41.3715 129.098 41.5629C128.789 41.7498 128.634 42.0005 128.634 42.3149C128.634 42.5656 128.734 42.7776 128.934 42.9508C129.135 43.124 129.479 43.263 129.967 43.3678L131.867 43.7507C132.888 43.9603 133.65 44.2976 134.151 44.7625C134.652 45.2274 134.903 45.8382 134.903 46.5948C134.903 47.283 134.7 47.887 134.294 48.4066C133.893 48.9262 133.342 49.3318 132.64 49.6235C131.943 49.9107 131.138 50.0542 130.227 50.0542C128.836 50.0542 127.729 49.7648 126.904 49.1859C126.083 48.6025 125.603 47.8095 125.461 46.8067L128.326 46.6563C128.413 47.0802 128.622 47.4038 128.955 47.6272C129.288 47.8459 129.714 47.9553 130.233 47.9553C130.744 47.9553 131.154 47.8573 131.464 47.6613C131.779 47.4608 131.938 47.2033 131.943 46.8888C131.938 46.6244 131.826 46.4079 131.608 46.2393C131.389 46.0661 131.052 45.9339 130.596 45.8427L128.777 45.4804C127.752 45.2753 126.988 44.9198 126.487 44.4139C125.99 43.9079 125.742 43.263 125.742 42.479C125.742 41.8045 125.924 41.2233 126.289 40.7356C126.658 40.2479 127.175 39.8719 127.84 39.6076C128.511 39.3432 129.294 39.211 130.192 39.211C131.519 39.211 132.562 39.4913 133.324 40.052C134.089 40.6126 134.536 41.376 134.664 42.3423ZM154.114 42.8482C154.114 44.3751 153.825 45.6741 153.246 46.7452C152.672 47.8163 151.888 48.6344 150.894 49.1996C149.905 49.7602 148.793 50.0406 147.558 50.0406C146.314 50.0406 145.197 49.758 144.208 49.1928C143.219 48.6276 142.437 47.8095 141.863 46.7384C141.289 45.6673 141.001 44.3706 141.001 42.8482C141.001 41.3213 141.289 40.0223 141.863 38.9512C142.437 37.8801 143.219 37.0643 144.208 36.5037C145.197 35.9385 146.314 35.6559 147.558 35.6559C148.793 35.6559 149.905 35.9385 150.894 36.5037C151.888 37.0643 152.672 37.8801 153.246 38.9512C153.825 40.0223 154.114 41.3213 154.114 42.8482ZM151.113 42.8482C151.113 41.8592 150.965 41.0251 150.669 40.3459C150.377 39.6668 149.964 39.1518 149.431 38.8008C148.898 38.4499 148.273 38.2744 147.558 38.2744C146.842 38.2744 146.218 38.4499 145.685 38.8008C145.151 39.1518 144.737 39.6668 144.44 40.3459C144.149 41.0251 144.003 41.8592 144.003 42.8482C144.003 43.8373 144.149 44.6714 144.44 45.3505C144.737 46.0296 145.151 46.5447 145.685 46.8956C146.218 47.2466 146.842 47.4221 147.558 47.4221C148.273 47.4221 148.898 47.2466 149.431 46.8956C149.964 46.5447 150.377 46.0296 150.669 45.3505C150.965 44.6714 151.113 43.8373 151.113 42.8482ZM159.165 43.778V49.8491H156.253V39.3478H159.028V41.2005H159.151C159.384 40.5898 159.774 40.1067 160.321 39.7511C160.867 39.3911 161.531 39.211 162.31 39.211C163.039 39.211 163.675 39.3706 164.218 39.6896C164.76 40.0087 165.181 40.4644 165.482 41.057C165.783 41.6449 165.934 42.3469 165.934 43.1627V49.8491H163.021V43.6823C163.026 43.0396 162.862 42.5383 162.529 42.1782C162.196 41.8136 161.738 41.6313 161.155 41.6313C160.763 41.6313 160.416 41.7156 160.115 41.8842C159.819 42.0529 159.587 42.299 159.418 42.6226C159.254 42.9417 159.17 43.3268 159.165 43.778ZM175.891 49.8491L171.885 35.8473H175.119L177.436 45.5761H177.553L180.11 35.8473H182.879L185.429 45.5966H185.552L187.869 35.8473H191.103L187.097 49.8491H184.212L181.545 40.6946H181.436L178.777 49.8491H175.891ZM196.291 50.0542C195.211 50.0542 194.281 49.8354 193.501 49.3979C192.726 48.9558 192.129 48.3313 191.71 47.5246C191.291 46.7133 191.081 45.7539 191.081 44.6463C191.081 43.5661 191.291 42.618 191.71 41.8022C192.129 40.9863 192.72 40.3505 193.481 39.8947C194.247 39.4389 195.144 39.211 196.175 39.211C196.867 39.211 197.512 39.3227 198.109 39.546C198.711 39.7648 199.235 40.0953 199.682 40.5374C200.133 40.9795 200.484 41.5355 200.735 42.2056C200.985 42.871 201.111 43.6504 201.111 44.5437V45.3437H192.243V43.5387H198.369C198.369 43.1194 198.278 42.7479 198.096 42.4243C197.913 42.1007 197.66 41.8478 197.337 41.6654C197.018 41.4786 196.646 41.3851 196.222 41.3851C195.78 41.3851 195.388 41.4877 195.046 41.6928C194.709 41.8933 194.445 42.1645 194.253 42.5064C194.062 42.8437 193.964 43.2197 193.959 43.6345V45.3505C193.959 45.8701 194.055 46.319 194.247 46.6973C194.443 47.0757 194.718 47.3674 195.074 47.5725C195.429 47.7776 195.851 47.8801 196.339 47.8801C196.662 47.8801 196.958 47.8345 197.227 47.7434C197.496 47.6522 197.726 47.5155 197.918 47.3332C198.109 47.1509 198.255 46.9275 198.355 46.6632L201.049 46.8409C200.912 47.4881 200.632 48.0533 200.208 48.5365C199.789 49.015 199.247 49.3888 198.581 49.6577C197.92 49.922 197.157 50.0542 196.291 50.0542ZM203.066 49.8491V35.8473H205.978V41.1117H206.067C206.195 40.8291 206.38 40.5419 206.621 40.2502C206.867 39.954 207.186 39.7078 207.578 39.5119C207.975 39.3113 208.467 39.211 209.055 39.211C209.821 39.211 210.527 39.4116 211.174 39.8127C211.822 40.2092 212.339 40.8086 212.726 41.6108C213.114 42.4084 213.308 43.4088 213.308 44.6121C213.308 45.7835 213.118 46.7726 212.74 47.5793C212.366 48.3815 211.856 48.99 211.209 49.4047C210.566 49.8149 209.846 50.02 209.048 50.02C208.483 50.02 208.002 49.9266 207.606 49.7397C207.214 49.5529 206.892 49.3181 206.642 49.0355C206.391 48.7484 206.2 48.459 206.067 48.1673H205.937V49.8491H203.066ZM205.917 44.5984C205.917 45.2229 206.004 45.7675 206.177 46.2324C206.35 46.6973 206.601 47.0597 206.929 47.3195C207.257 47.5747 207.656 47.7024 208.125 47.7024C208.599 47.7024 209 47.5725 209.329 47.3127C209.657 47.0483 209.905 46.6837 210.074 46.2188C210.247 45.7493 210.334 45.2092 210.334 44.5984C210.334 43.9922 210.249 43.459 210.081 42.9986C209.912 42.5383 209.664 42.1782 209.335 41.9184C209.007 41.6586 208.604 41.5287 208.125 41.5287C207.651 41.5287 207.25 41.6541 206.922 41.9047C206.598 42.1554 206.35 42.5109 206.177 42.9713C206.004 43.4316 205.917 43.974 205.917 44.5984Z" fill="white"></path></svg>